/* XPM */
static char *result[] = {
/* columns rows colors chars-per-pixel */
"64 64 150 2 ",
"   c #002466",
".  c #2C7D4E",
"X  c #60C96B",
"o  c #43BB6E",
"O  c #53D17B",
"+  c #73E57E",
"@  c #9BF596",
"#  c #93FD8A",
"$  c #88FD83",
"%  c #8BFD8B",
"&  c #98FB95",
"*  c #B3E9AB",
"=  c #2C6F48",
"-  c #74FD7A",
";  c #69FD7B",
":  c #56FD73",
">  c #56F572",
",  c #79FD84",
"<  c #3BA96B",
"1  c #A6FC93",
"2  c #A6F1A0",
"3  c #A3F59A",
"4  c #68F47F",
"5  c #38F475",
"6  c #36EA6A",
"7  c #25E36D",
"8  c #26DA62",
"9  c #B6F1B1",
"0  c #3F9157",
"q  c #27F468",
"w  c #0ABB54",
"e  c #0BA24F",
"r  c #0E773F",
"t  c #0D6637",
"y  c #139C4B",
"u  c #18D365",
"i  c #48FD73",
"p  c #35FB6B",
"a  c #15D25A",
"s  c #13B354",
"d  c #138542",
"f  c #0B4F2E",
"g  c #133F27",
"h  c #131F17",
"j  c #13472C",
"k  c #133723",
"l  c #106037",
"z  c #0B8B45",
"x  c #36E36A",
"c  c #36F46A",
"v  c #0BF364",
"b  c #09D359",
"n  c #15C359",
"m  c #0F7F42",
"M  c #125837",
"N  c #131611",
"B  c #093F22",
"V  c #13BB57",
"C  c #35DB62",
"Z  c #57FD7B",
"A  c #48FD7B",
"S  c #26FC6A",
"D  c #0ADC64",
"F  c #0B9C4E",
"G  c #0E2F1E",
"H  c #13AB54",
"J  c #1DB257",
"K  c #189453",
"L  c #0B934B",
"P  c #0D6F3B",
"I  c #45E26A",
"U  c #18F36D",
"Y  c #25EB6A",
"T  c #0D562A",
"R  c #14934A",
"E  c #25F374",
"W  c #15CA5A",
"Q  c #46F471",
"!  c #15FC6B",
"~  c #17E366",
"^  c #1CA255",
"/  c #24C25A",
"(  c #0BEA62",
")  c #15EB63",
"_  c #0A4728",
"`  c #0BE364",
"'  c #0B100E",
"]  c #036034",
"[  c #0ACB57",
"{  c #0F271B",
"}  c #B9FD97",
"|  c #C3FD9A",
" . c #09AB4E",
".. c #2FA44F",
"X. c #77F383",
"o. c #58EB71",
"O. c #28CB66",
"+. c #036734",
"@. c #26D366",
"#. c #44EB72",
"$. c #15DB5B",
"%. c #39E375",
"&. c #56E36E",
"*. c #53DB6E",
"=. c #64F172",
"-. c #69FD73",
";. c #35CB60",
":. c #84F487",
">. c #39EB74",
",. c #18CC64",
"<. c #65EC79",
"1. c #26CB5B",
"2. c #34C261",
"3. c #3BB563",
"4. c #5CDC72",
"5. c #34D362",
"6. c #26DC6E",
"7. c #2EA55C",
"8. c #44BC5D",
"9. c #1EBC5D",
"0. c #1CA349",
"q. c #48F47E",
"w. c #67E57F",
"e. c #3BBB5F",
"r. c #38FD75",
"t. c #55D369",
"y. c #2EBB5E",
"u. c #13A153",
"i. c #0A160E",
"p. c #17DB66",
"a. c #38DC70",
"s. c #131013",
"d. c #46D470",
"f. c #2DB25E",
"g. c #A9F9A4",
"h. c #2DB251",
"j. c #13A24B",
"k. c #48DB72",
"l. c #134F31",
"z. c #037E3B",
"x. c #43C35D",
"c. c #1EAB56",
"v. c #1D6F42",
"b. c #36D36E",
"n. c #2FAB4F",
"m. c #47CB62",
"M. c #94F587",
"N. c #0AC355",
"B. c #55D77F",
"V. c #16090F",
/* pixels */
"                                                                                                                                ",
"                                                      . X X X X X o                                                             ",
"                                            . O + @ # # $ $ $ % % # & & * o =     =                                             ",
"                                        . X @ $ - ; ; ; : : > > ; , $ # # # & X < 1 2 X                                         ",
"                                    < 3 % 4 > 5 6 6 6 7 6 8 8 8 8 6 > , # 9 # # & # , $ 3 o                                     ",
"                                0 @ % - > 5 q w e r t t r t r r r y u 6 ; $ # # # # $ - ; $ 3 0                                 ",
"                              . 3 - > i p q a s e d f g h h j j k f l z u x > $ # # , ; > ; $ & X                               ",
"                            < @ - > c v b n s z m r M f k N B g g g g k f d V C ; $ $ Z A 5 > $ # O                             ",
"                        0 + # - : 5 S D s F r k G k t r r y H J H H e K L r P P H I ; ; 5 5 5 > , $ *                           ",
"                      0 3 , ; > U Y V y r f T P R H n Y Y U 5 E E 5 c Y Y D n F z d W Q q ! q 5 ; - , *                         ",
"                    0 @ - i U ~ s R t k T r s n U E Q Z Z ; ; ; ; ; ; ; Z : 5 Y D V L ^ / 8 ( ) > ; ; $ o                       ",
"                  0 @ - i U s r _ G k m V Y U > > ; - - , , $ $ $ $ $ $ $ - ; ; > 5 ` H m t R e 6 > A 4 @ 0                     ",
"                  3 $ > Y s P G ' _ z n U Z ; - , % % # # # # # # # # # # # % $ - > : 5 8 R f ] s 5 5 Q ; & *                   ",
"                o # ; c [ R M { l s Y Q Z - , % # # # # # # # # # # # # 1 # 1 1 $ - , ; 5 ` R T t D ) 5 Z $ # + 0               ",
"              0 3 - Z p ) R k P / q > ; - % # # # # # # # % > # # $ % # # # } | 1 % # $ 4 Q Y s M P e ~ > ; $ # +               ",
"              @ $ - Z 5  .g P / U > - , % # # # $ % % $ % # 4 , # $ , % # # } | | } # # $ ; A 5 s M t [ Q ; - # # o             ",
"            * # , ; Q ..k l / U : ; - % $ $ $ $ , - - - - % # $ $ - ; $ # # # } | } 1 # # $ - Z c s T d x > ; $ $ +             ",
"          X # # - Q  .k _ s q > - - ; X., - - - - > o.; ; , # $ - - > , # % % # } 1 # # # $ - ; > Y R T J 5 ; $ $ &             ",
"          2 % - c  .k G z Y > , # # # # # % $ $ , Z O.6 A Q , # , - Z ; # $ , # # # # # # $ , - ; Q ` R +.D > $ $ # O           ",
"          3 - c V t h T n 8 4 % # 1 1 1 % $ % # # - Q J @.p p , , - > #.% $ 4 # % # $ $ # , - , , ; 5 $.r r %.; $ # # O         ",
"        X , > V r f j s U &.4 % # 1 # # $ - &.; $ , > q w ! D q *.- > s $ , =.; ; $ ; - X.- - , # - -.5  .M ;.; $ # % & 0       ",
"      0 # > D r t M d Y > - # # 1 $ $ $ :., , ; , ; I ( q q s V >.> > ,.:., x U p - > $ *.$ - $ # $ ; i D z y > % % - % *       ",
"      @ ; q H d z l s U ; % 1 } 1 # $ 4 #.: ; &.<.4 4 1.D q 8 n > -.: 5 4 #.s V Y &.=.4 4 , > $ # # - > 5  .P x $ , - - & 0     ",
"    0 % Q $.n V P m n Z , # & $ 1 # # # , Z > > 2.3.4.4 5.6.5 7.> ; A 5.8 e R H x I <., % > > - % $ - ; i ` r W ; - ; ; $ *     ",
"    + ; 5 q q R j y U ; % 1 | | | 1 # $ > q ` 8 #.>.y 8.o.D @.c #.A A 5.9.R t e #.: > - ; c ; - $ - $ , Z U R R 5 > p ; , &     ",
"    @ ; A q V T M s Q - # } | | } & # % > q n e e s d t R V ^ 0.q 5 q i o.d r 8 ; ; 6.> C 5 ; - ; X.# $ 4 5 V P ( 5 ` Z - #     ",
"  0 # ; q.U R f t n > , # } | 1 % $ 4 > , 4 s m m m L P { ;.E n E Z > > > F d ;., &.n D 9.A > &.w.# # % - Q u t W / V > ; %     ",
"  X % ; 5 n L f L Y : $ # 1 $ - 4 X.4 - % % C d l r y z t e.4 ~ 9.> 4 U [ J V 4 -.;.n D Y r.#.C , # # # , : 8 d m P s 5 > %     ",
"  X $ ; q a F T d Y ; $ # # # # # # # % $ X.t.y 8 > > U O.r y s z U s V / J W p x y.9.v q 5 4 $ # # # # , Z Y z f G z ` Q %     ",
"  X $ : ( a y t u.U ; $ # # # $ $ - - ; >.;.2.) 5 Q D s r ] T m R s V z V ~ Y b 5 9.F D v 4 % # # # # % - ; Y z i.N m H 5 $ <   ",
"  O $ p ! ( R T H 5 ; $ # # $ , - - ; > > 5 Z Z >.H ~ p.r u._ N G T r s Q c F a.@.9.H 8 > % % $ # # # % - ; 5 H k s.f F Q $ O   ",
"  X $ c c ) F t J E ; $ # # # % - - - , , > - ; > 5 5 #.t t G s.s.s.f s n L L n E 8 I > % % - , % # # % - -.5 H g s.j R Q $ O   ",
"  X , A p b H t H E -.$ # # # # $ - % # - > > Z 5 ! q 6 W _ N s.s.s.G f T V 5.6 x Z - - $ - - - $ $ % % - Z c H g s.j H ; $ X   ",
"  O , Z q ) b t H E -.$ # # # # % % # - D s D A i 5 p #.T P N s.s.s.N N R x s 8 5 Z Z > Z ; - - - $ % # $ ; U H B s.f @.; # .   ",
"  O $ ; 5 5 7 ] y U ; $ # # # # # # X.q v a 6 A A 5 A #.m t R G N t P T P R @.5 5 6 x U Q ; - , $ # # # $ > / m k s.+.7 ; &     ",
"  < # ; 5 > 6 t z Y ; , # # # # $ , > q ! ! S A I 9. .n H r e m d y P P / V J s P P d., % % % # # # # # , I ~ d N h  .c , &     ",
"    2 ; Z ; 6 d m p.Z , # # # $ - ; A 5 ! ` p ; ;.J { z / W r D 1.I <.f.m H a e z J > % # # # # # # # # $ > Y R s.l / > $ @     ",
"    g., > ; p y P 8 i - % # # % - ; A i @.f.> c s B m u.h.E R ;.q x e.8.f t j.e e u.8 - % $ # # % :.+ > > 5 n t B s c - $ +     ",
"    * $ - ; 5 R g V 5 ; $ , # % - ; A A a.4 k.5.F P V R t.o.V m q v z r +._ l.R r z V U - # # 1 $ :.:., > 8 s ] z.c - - $ +     ",
"    X % % ; 5 d G R Y ; o.4 # # - - ; 4 - , Q Q x n F P J x.z e ! 5 ,. .c.a y @.9.P m e #.$ # 1 | } # $ > Y y l.9.> - - % X     ",
"    = & # ; 6.P f P D 6 > $ # # $ - - $ # - -.x.@.e F t v.e.y.6.Q ,.5 E I 4 Q Q 8 b.#.Q Z , # 1 } 1 # - > n d d c ; ; - & =     ",
"      < & ; 8 P z t L @.4 $ # # $ - , # % - - W [ J F R c.>.a i ; 8 y.5 V n.> ; &.6 > 4 $ # # ; X.+ , > q s t V ! i 4 $ @       ",
"        + , @.H 8 R r D : - $ # $ - $ # # $ - Q Y a ,.<.X.A 5 > > n F b v $.6.; , o.I > $ # # $ $ :.; > ( d l J p > - # 2       ",
"        < $ x s q [ M  .5 ; , # $ - % # # # , ; 5 U x % % C C C > ,.y ` ! q > ; # # $ $ % $ # # # , -.q V T P V p - $ # O       ",
"          % c U p ~ d r 8 p 4 $ , - % # # $ 4 $ ; - m.# % a.f.=., =.Y a q ~ 5 ; # # # # # # # # # - Q W P k z U > - $ & 0       ",
"          # Q 5 5 5 [ M R ` Q - - , # 1 # $ , # # # <.# # 4 u.- $ % 4 Q 5 8 2.Q , $ $ # # # % $ - > Y z G M y.: ; - , 3         ",
"          2 4 Q > q.5 y f R Y > ; - % 1 # % % # # # ; # # , a.> - # % - 4 > I J t.-.- - - - - ; > U s _ k  .c ; -.- # .         ",
"          X , ; Z > > p.d T s 5 Z - $ # # # # 1 1 1 , # # , -.> , $ # % - - - <.a.Q - , - - ; : U / l f  .c > Z ; , 3           ",
"            & - , ; - Q 1.l.T s U > ; $ # # # } # M.1 % $ $ - > $ # # # $ , , % % - ; - - ; > U / P T s E Q i Z - @ 0           ",
"            * # # , - > x z k M s Y Q ; $ # # 1 :.M.} $ ; % , , $ # # # # # # # # # , ; > > U N.P T H U A 5 Q > $ o             ",
"              O @ % - ; A 1.t l.T R ` 5 ; , $ # , # } M.o.# % # % # # # # # # # $ , - Z 5 Y s l T  .U 5 5 5 Z - +               ",
"                  * $ , ; x R t l T R 8 5 : ; , 4 - # % ; # # % % % % % % % $ - ; Z > U W z f f r W U q q i - @ 0               ",
"                    * # - > p.e F z t t  .` 5 > Q > - $ ; , , - - - - - - - -.> > U 8 s d j l.l m J V $.c 4 @ 0                 ",
"                      2 % ; 5 ` a W H z M R w D v 5 : Z A > Z -.Z ; Z : i > c Y n s r f k l l l m H 9.c ; 3 0                   ",
"                        * $ Z ! q c ` a [ R P z y n 8 8 Y q 5 5 c U U Y Y n  .z.l f f M m z y H 8 Q 4 % 3 0                     ",
"                          * $ Q 5 > 5 ) q ` L l l t m K y y H H H H y d r t k M t d 9.D 6 Q > ; , & 3 0                         ",
"                            B.$ ; - , > 5 5 ` V V y z r l M g g g g h G k +. .n 8 5 > ; - % # # @ 0                             ",
"                              O % % # % , Q 5 ( q 5 6 x 8 V J y d t P t t m n $.5 5 Z 4 - $ # & <                               ",
"                                X X B.2 X , ; Q 5 5 5 > ; Q 5 5 p 6 ~ a a s / n q 5 : ; - % @ 0                                 ",
"                                          o @ $ ; > Z > ; , - ; - - ; ; > Z Z > ; ; - % 3 X 0                                   ",
"                                            . * # $ , , - $ # # # # $ , , , $ # @ X O .                                         ",
"                                                = o @ & g.& 2 2 & & & # # # @ 0                                                 ",
"                                                                      < .                                                       ",
"                                                                                                                                "
};
