/* XPM */
static char *result[] = {
/* columns rows colors chars-per-pixel */
"64 64 144 2 ",
"   c #002466",
".  c #2D7C52",
"X  c #46C276",
"o  c #49D27F",
"O  c #37A367",
"+  c #2C8C59",
"@  c #9AF197",
"#  c #94FD8B",
"$  c #8BFD8B",
"%  c #88FD82",
"&  c #A8ECA2",
"*  c #75FD7A",
"=  c #68FC73",
"-  c #57F471",
";  c #56FC73",
":  c #46F471",
">  c #77F579",
",  c #93FD83",
"<  c #2C8356",
"1  c #78FD83",
"2  c #26F469",
"3  c #15C351",
"4  c #16BB59",
"5  c #09B355",
"6  c #17D363",
"7  c #25E367",
"8  c #37EB6A",
"9  c #38F477",
"0  c #18F375",
"q  c #14A251",
"w  c #0A8B47",
"e  c #0F6237",
"r  c #0E532A",
"t  c #0F7B40",
"y  c #0A9C4F",
"u  c #0AD35D",
"i  c #0AC35D",
"p  c #0A934E",
"a  c #0E6B38",
"s  c #0F432D",
"d  c #131210",
"f  c #132318",
"g  c #0F4B2E",
"h  c #143B21",
"j  c #115336",
"k  c #36E368",
"l  c #0AF366",
"z  c #0D733E",
"x  c #16CB60",
"c  c #46E46F",
"v  c #67F573",
"b  c #69FD7C",
"n  c #A8F4A6",
"m  c #25EB69",
"M  c #09BB55",
"N  c #159343",
"B  c #1B6232",
"V  c #0A8344",
"C  c #0C5C2A",
"Z  c #035C35",
"A  c #A6FC91",
"S  c #0BEC6D",
"D  c #15AA51",
"F  c #15C35F",
"G  c #36F469",
"H  c #17DB65",
"J  c #036A35",
"K  c #168B4D",
"L  c #36DB68",
"P  c #28FC74",
"I  c #09AB4E",
"U  c #143320",
"Y  c #0A241B",
"T  c #16B357",
"R  c #0ADB60",
"E  c #17F469",
"W  c #36FC6B",
"Q  c #47FD72",
"!  c #45EB6F",
"~  c #16EB61",
"^  c #99F99C",
"/  c #24AB59",
"(  c #25C356",
")  c #036435",
"_  c #B8FD96",
"`  c #14833B",
"'  c #25DB64",
"]  c #037B3D",
"[  c #0AA34F",
"{  c #15E261",
"}  c #115C38",
"|  c #38FD75",
" . c #A4F497",
".. c #26BB5F",
"X. c #C3FD99",
"o. c #48FD7C",
"O. c #57FD7C",
"+. c #47F47F",
"@. c #0A4A22",
"#. c #168348",
"$. c #34C35C",
"%. c #68F480",
"&. c #1C5B32",
"*. c #45DC6D",
"=. c #26B45F",
"-. c #15CB51",
";. c #149C42",
":. c #66EB7B",
">. c #38EB76",
",. c #0ACB5D",
"<. c #25F377",
"1. c #26D363",
"2. c #1C5332",
"3. c #26CB68",
"4. c #56F382",
"5. c #23A348",
"6. c #36CB5D",
"7. c #24A35A",
"8. c #55EB6A",
"9. c #179352",
"0. c #132B1B",
"q. c #131A13",
"w. c #24B34F",
"e. c #26FC6A",
"r. c #0A130D",
"t. c #27C367",
"y. c #1E6B41",
"u. c #45CC6F",
"i. c #57DB71",
"p. c #66E476",
"a. c #46D367",
"s. c #159C52",
"d. c #33BA5F",
"f. c #0A4320",
"g. c #88F07C",
"h. c #09331D",
"j. c #0BF474",
"k. c #26CB58",
"l. c #25BC50",
"z. c #16FB74",
"x. c #133B2C",
"c. c #46EC7F",
"v. c #148A3B",
"b. c white",
/* pixels */
"                                                                                                                                ",
"                                                        . X X o X X O                                                           ",
"                                              + X @ # $ $ % % % % $ $ # # & & X                                                 ",
"                                        . X @ $ * = - ; ; : ; ; ; ; = > % # , # & X                                             ",
"                                    < & # 1 = ; 2 2 3 4 5 6 6 7 7 7 7 8 ; 1 # , # # o & # & +                                   ",
"                                  O @ % * ; 9 0 7 4 q w e r r t t w w y 6 8 * % , $ # # # % $ &                                 ",
"                              < & # * ; 9 2 u i 5 q p w a s d f g s h j a p k ; % $ $ $ $ 1 = % &                               ",
"                            O @ % * ; : 2 l i y w z r g h h s h h h h h f g z x c v % $ % * ; b % n +                           ",
"                        < & # * ; : 2 m i M N e r g B V N M 4 4 4 4 4 3 w t C Z V x c 1 1 b ; 9 v % A &                         ",
"                      O @ 1 v ; S M y t Z r h a D F m G : ; ; ; ; ; ; : G m H M V J K L v = P 2 9 v % # &                       ",
"                    < n % * ; 7 I z U Y r w T m : ; b 1 1 % % 1 % % % % * 1 ; : m R p z i : 2 E 2 W b * $ +                     ",
"                    & $ * : u y J U r N F 8 : Q 1 % $ # # # # # # # # # # # % % * - ! H y y i R ~ E ; b * &                     ",
"                  < ^ * ; 9 x p g e 4 m ; * % 1 % # # # # # # # # # # A A A A A , % * - L / V p ( R W ; = % X                   ",
"                & ^ 1 = ; 2 T ) a 4 : b % $ $ # # # # # # $ % % # $ $ # A , _ _ A # , % = 9 R ` e N H Q Q = @                   ",
"              + ^ * * b : / r z ' - * $ # # # # $ % $ $ % * b * 1 1 1 # # % # # A # # # % 1 : R ] j p k G - % &                 ",
"            < @ % * - 7 [ h z L ; 1 $ # # # # # # 1 1 * * * * * * * * % # * % , , , # # # # % - { t } 6 E | = $ o +             ",
"             .$ * - ..] h Z 3 : * # A A # # # # % * * * * b = b = ; = 1 # * * $ $ , , , # _ # % ; { t t R 9 v 1 #  .            ",
"          O ^ * - F z U a 4 : * # _ X.X.X._ _ A # 1 ; ; ; o.O.+.; Q ; 1 # 1 * * * % , % # X.A , * ; i } N k v * % # &           ",
"        <  .* +.m D r @.M : b % # _ A # A _ _ A A # b ; +.Q o.9 9 9 Q b $ % b * * * , * # X._ # , * 9 / a 6 : b % , &           ",
"        o 1 - F t e U N m = % % 1 # % $ $ % % % $ $ # b 9 2 - ; H 2 E = 1 1 - = = * 1 ; % _ _ # , % = 7 N #.k v % % #           ",
"      . @ v ' y w z ) F ; % # A # # # , % v ; W v $ # % ; x $.%.- ( l ; b b ; ; = * * ; % A A # $ 1 % - R &.T ; * % ^ <         ",
"      o * 9 S i T } D : * , A # # # # % 1 b Q k G * % % > D ) *.; =./ %.= ; o.o.b b v : $ A A # 1 % , b ! w ] c b % # ^ X       ",
"      @ ; 9 E -.z &.F - % # A , # $ % 1 * = = - 8 : b $ * k &.p S ;.y %.1 v 2 ; b v 9 b % A A % b $ # % ; i Z L = % # $ &       ",
"    X % O.9 2 5 h t m b # _ A $ # 1 * v ; G k : 8 M : $ $ - t Z q e z :.1 c E ; ; >.2 b > A , b * # # $ = m t ,.- $ $ % # X     ",
"    & * ; <.M z h D : 1 A _ A , $ * * %.O.: k m F t 1.= 1 - w z e j e K $.,.S : ! k o.b , % 1 = % # # # 1 : 5 V ! % * * % &     ",
"    @ * ; m [ ) 2.F ; % _ _ # , % * * O.o.o.+.: >.3.T E 7 i p t e e g } V D : ,.D - b > $ 1 = * * $ # # % ; u &.8 * = = * ^ .   ",
"    # b 9 ( y } t m b # _ A % 1 ; ; * = - ; G l i : 4.G 1.p y p N K U t V : v 5.%.% # % * o.- = * $ # # $ = S ) x v ; : = # X   ",
"    # = m ,.y r y : 1 # A # % % % % % % * = v G i 5 ,.[ z 6 I i i ! 7 ,.i : : :.# # % - | +.; b b 1 $ # $ * 8 z y 9 >.7 = % o   ",
"    # - ~ 7 N 2.5 - % A X.A % b % 1 1 b O.1 # % D e p 6 V 6.: x V 7.R w i x 1.8.% > D D S o.o.b * * % # # * : I ` { 5 7 = 1 o   ",
"    $ : 2 3 ` e i ; $ A A 1 1 1 * = O.- v v - *.p g a 9.[ D 5 w g r 4 [ M m [ p q ) 0.y ! +.9 - * * % # # 1 ; M &.q t 7 ; = o   ",
"  O $ ; 2 3 p e 4 ; $ # # $ % b = o.P 2 R [ w r s 0.g 7 ' z s q.d 0.V T 9 [ p #.t h w.%.; E P = * * % # # 1 ; 4 e a a 7 9 b o   ",
"  o 1 ; 2 x 4 a 4 ; % # # $ 1 b ; o.9 L S 3.$.a j e x : y s d d d d U V i 1.y p ) 3.b : m l 9 v = * % # # 1 ; i h 0.} D 7 b o   ",
"  o % v 2 e.R a i ; % # # # 1 * b 9 7 H $.> :.9.V z 4 G y s d d d d h z 4 9 V j g w c F i l 2 9 O.= % # # 1 ; i g r.r y m 1 o   ",
"  X $ b 9 2 H a i ; % # # $ * b ; 9 ' 1.*...) Z p a [ m x z 0.d d d 2.5 +.F U Z e z w [ u 2 Q : : ; % # # % ; i h d g N : % o   ",
"    # = 9 9 H &.M ; % # # $ * * ; 9 : m D e ) t./ y H 6 8 p y.U d } ) D 4 ,.z e q u.i.: - - = b 1 $ # # # % ; i h d g T ; % X   ",
"    # b O.- 7 B 5 : * $ $ $ * * b ; e.2 6 $.p.% - { H w p w H ) t N T i w T w V c % b = 1 , , , , # # # # 1 : 5 h q.&.1.v # <   ",
"    # * v ; H &.a 8 * $ , , % * b ; Q 9 - % $ $ b : 1.z z w : $.L 8 1.4 t T D y T *.- b * % % % % % $ # # 1 G y d q.z <.*  .    ",
"    & % 1 ; R r B m = % , , , * * = ; 1 , , % % b c - 8 y H 6.c m 4 i i [ S : $.i H 2 o.O.= = = b % $ # # * m t d h 5 ; 1 &     ",
"    X # % ; 4 e h u ; % # # # % * = 1 , , % ; ; a.` c 2 V a @.t w a T y u ' M x 7 9 9 o.9 ; = * % # # # % ; F r q.N 2 * $ &     ",
"      & % - s.z g I : 1 # $ # % = * , , , b o.8 V p u 3 V e e e z ) ) d.T u I J 1.; b O.9 O.b 1 , # # # 1 : D U a 7 ; % # X     ",
"      X % : D I w z m = $ # # % = , A # % v ; Q m m 5 4 8.a.a e 2.e a *.b %.: M m ; = b * * * * * % # % b m t f.1.; 1 1 # .     ",
"        # : ,.R 4 Z 6 ; % # $ % % A _ # 1 = b = : 2 6 a.A g.V r d.r h.*.* % = : W : * * 1 * % $ $ $ # 1 - F e [ : * * %  .      ",
"        ^ ; { l H V V ! * # # # # _ X.A 1 * * ; - ! 2 ; A g.y w : N g N > $ % b ; v * b b 1 $ # # # $ b <.D t ' Q v * % o       ",
"        & - j.9 2 ,.&.R ; % # # # _ X.A % * * b ; 9 9 = % %.[ ,.: *.z y +.% $ $ % v * 1 % $ , # # # % : k.) p m 9 ; * # <       ",
"        o %.9 9 W k ] N L b % # # _ X.# # % % * ; Q | * = %.,.S 2 : T i 9 1 $ # # $ # # # A _ _ # $ * m N &.D 0 +.* , n         ",
"        X * b O.o.: x e / : * , # _ X._ # $ % * = = Q 1 b v l.0 z.o.0 ,.2 ; 1 $ A A X._ _ _ _ _ # * : M g z M G b 1 , o         ",
"          $ b * ; ; k w } H : * , A X._ A # % * b b O.1 % b G 9 o.o.; : | +.= 1 # _ _ _ _ _ A , 1 : 4 a 0.t ' - * 1 # +         ",
"          & % % = = : H ) t H : % # _ X._ # % 1 % b = 1 # 1 +.9 ; ; b b v = * * % , $ * 1 , $ 1 ; F a f ) T - b * % &           ",
"          < & # % * ; j.y x.t { ; % , _ _ # % % , % 1 * , 1 = ; b ; b * * * * * , , , $ % 1 b : ' z 0.e T : b b * @ +           ",
"              & ^ * b | x e g ] H : 1 % # # $ $ # # $ * # % = * * = = * * % % $ # $ , , % 1 : 4 a &.w 4 c.; v * $ X             ",
"                O # 1 O.k N z j t R 9 b % # $ $ # # # % # # * = % % = 1 % , , # # # # 1 b : 4 a r [ ' ; O.O.b 1 n               ",
"                  & # b : u D N J t I k - * 1 , , A A # A # $ % 1 # $ v 1 # , # $ 1 b : m T a a I 0 +.%.v = * @ <               ",
"                    & % = { R u i y t N R ! - * % $ $ $ # # # # 1 % $ $ %.% % * * ; 2 i w r a y ,.2 o.o.; *  .+                 ",
"                      & % : E j.2 R ,.V J p ( S : v b * % % % 1 * = * * v ; - : m i p e 2.a V I u E 2 : > @ +                   ",
"                        n b : : +.k ~ H p ) &.z M R m ! : - - - ; : : : G m 3 D a f.s } z V y [ i S : b @ +                     ",
"                        + ^ * b b = 9 0 H [ p ) &.Z t w 4 4 4 4 ( 4 4 N v.) g U &.t y y q T ( ' : = # & +                       ",
"                          <  ., % % b 9 2 ~ m { 4 y w C e f.f.s f.h f h r z y I H m G : - v > $ ^ o <                           ",
"                            < X & ^ # 1 O.9 2 e.9 P k R ,.;.p V z } } z T 3 E : ; = * % # ^ n +                                 ",
"                                  O X & $ b - W : o.O.; Q 9 P ! 7 u p y D ,.R 9 o.= * % , ^ O                                   ",
"                                        . @ $ b = = * * * v b %.= ; : : ! 8 G o.; * * $  .+                                     ",
"                                            X @ $ % % 1 , $ % % $ % * * * 1 1 $ $ # n X +                                       ",
"                                                X & o & & n & ^ # # # # # @ X O + .                                             ",
"                                                              . O O X X <                                                       ",
"                                                                                                                                "
};
