/* XPM */
static char *result[] = {
/* columns rows colors chars-per-pixel */
"64 64 156 2 ",
"   c #002466",
".  c #278356",
"X  c #5DCF6D",
"o  c #3DA95D",
"O  c #2B734E",
"+  c #6EDC70",
"@  c #9AF194",
"#  c #98FB95",
"$  c #8BFD8B",
"%  c #88FD82",
"&  c #78FD83",
"*  c #A7ECA4",
"=  c #2C7C51",
"-  c #75FD7A",
";  c #69FD79",
":  c #56F471",
">  c #56FC72",
",  c #46F470",
"<  c #36F46E",
"1  c #93FD8A",
"2  c #A5F49E",
"3  c #77F578",
"4  c #25F36C",
"5  c #36E763",
"6  c #15D358",
"7  c #0BC35C",
"8  c #16E360",
"9  c #37FC71",
"0  c #67F577",
"q  c #0BF465",
"w  c #13BB59",
"e  c #13A251",
"r  c #0AA34E",
"t  c #0E7B3F",
"y  c #0E6B38",
"u  c #158B42",
"i  c #0BDC64",
"p  c #17F368",
"a  c #0ACB5C",
"s  c #159C52",
"d  c #0E733C",
"f  c #0F6237",
"g  c #104B2E",
"h  c #035D35",
"j  c #0B934D",
"k  c #37E370",
"l  c #B6EBB1",
"z  c #26EB63",
"x  c #15C350",
"c  c #13AB51",
"v  c #239B44",
"b  c #0D5329",
"n  c #10442C",
"m  c #133B27",
"M  c #131B11",
"N  c #09331E",
"B  c #035533",
"V  c #0B9C4F",
"C  c #0BE25E",
"Z  c #18EB6F",
"A  c #13B355",
"S  c #153325",
"D  c #0D5B2A",
"F  c #148341",
"G  c #143319",
"H  c #132419",
"J  c #125436",
"K  c #17DB67",
"L  c #57FD7C",
"P  c #1B723A",
"I  c #1CAB54",
"U  c #26C357",
"Y  c #38EB72",
"T  c #0BEC6E",
"R  c #26D35D",
"E  c #133B1B",
"W  c #0B8B4C",
"Q  c #36DB6F",
"!  c #48FD7C",
"~  c #149C42",
"^  c #16C35E",
"/  c #0BD464",
"(  c #0A4220",
")  c #27DB5F",
"_  c #258B57",
"`  c #A6FC96",
"'  c #036435",
"]  c #26E361",
"[  c #1DB357",
"{  c #B8FD97",
"}  c #C3FD9A",
"|  c #AAFBAC",
" . c #0A844B",
".. c #08BB50",
"X. c #159242",
"o. c #09AB4E",
"O. c #42BB66",
"+. c #25DB70",
"@. c #369C56",
"#. c #1C6A39",
"$. c #037B3A",
"%. c #16DB59",
"&. c #57F47E",
"*. c #47FD72",
"=. c #46EB70",
"-. c #37C466",
";. c #27FC6D",
":. c #142B1C",
">. c #16EB61",
",. c #083B1F",
"<. c #1EBB5B",
"1. c #39F47D",
"2. c #46F47E",
"3. c #35DB5F",
"4. c #55EB70",
"5. c #46E36C",
"6. c #248248",
"7. c #AAF3AB",
"8. c #87F182",
"9. c #16CB60",
"0. c #45DA61",
"q. c #36CC68",
"w. c #64EC78",
"e. c #55E36C",
"r. c #0BE26C",
"t. c #16FC68",
"y. c #26CA58",
"u. c #36D46D",
"i. c #18E36E",
"p. c #36D35D",
"a. c #115C38",
"s. c #2EB460",
"d. c #2FAA59",
"f. c #49DC70",
"g. c #46EC7D",
"h. c #41BB53",
"j. c #08B34F",
"k. c #131210",
"l. c #18D366",
"z. c #35C357",
"x. c #39FD7B",
"c. c #269247",
"v. c #67E479",
"b. c #26CB67",
"n. c #0AEB60",
"m. c #0A632A",
"M. c #036A35",
"N. c #1CA253",
"B. c #68FD83",
"V. c #37CC57",
"C. c #082B16",
"Z. c #178B4E",
"A. c #46B45B",
"S. c #5EDC73",
"D. c #47D370",
"F. c white",
/* pixels */
"                                                                                                                                ",
"                                                          . X X X X o O                                                         ",
"                                                . + @ # $ $ % % & & % $ # # * X O                                               ",
"                                            = * # - - ; : > , < < , : ; ; - & % 1 * X                                           ",
"                                        = + 2 % 3 : , < 4 5 5 6 7 7 8 5 9 , : 0 ; % 1 # *                                       ",
"                                  . X 2 # % - ; : < q 6 w e r r e t y u w i 5 < 9 ; % 1 1 2 X                                   ",
"                                X 2 % - ; > , , , < p a s t d y t f f g h t j w i k : % 1 1 1 l   O                             ",
"                            . * $ - ; > 4 z x c v v v d y f b n n n n m M N b B u V C > % 1 1 1 * # +                           ",
"                          . 2 $ - : , Z A t h S S D t V c x x w w x w w F h G M H J j K 0 % $ % 1 $ % *                         ",
"                      . * # - ; L 9 p A d n b P I U Y , , : > > > : : , Y T R c P E g W Q ; % % % % - % *                       ",
"                    . @ & ; > ! 9 4 w y D ~ ^ Z , > - - & % $ $ $ $ $ % - - L , T / d ( P ) , & & - ; L $ *                     ",
"                  _ 2 - 0 0 : , 4 e g d U < > - & $ $ 1 1 1 1 1 1 1 ` ` ` 1 % & ; : Y / t ' 7 , ; ; , < 0 $ *                   ",
"                . @ & ; : , ] [ t b c 5 > 3 % 1 1 1 1 1 1 1 1 1 1 1 1 { } } ` 1 $ % ; > Q e b c < > < < < 0 1 +                 ",
"                | & 0 > 4 ^  .( y w , ; % $ 1 1 1 # 1 1 1 1 1 1 1 1 1 1 { { { 1 1 % % % 0 < R t V 4 z T q , & 1 o               ",
"              * % > < 4 ..F m d K : - % 1 1 1 1 1 1 1 $ 1 1 % $ % % & % 1 ` { 1 % & $ 1 3 ; , i t X.o.7 8 < ; & +               ",
"            O.% : 4 7 c d S d +.L & 1 1 1 % % $ $ 1 % & % $ 3 ; - - ; ; % 1 1 1 % ; 1 1 % % - , C t d j 7 8 : 0 1 .             ",
"          @.2 - 4 7 e t n #.) > & $ 1 $ & - ; 0 & $ & : 0 & - Y ; 0 L > ; $ 1 1 3 0 $ 1 1 1 $ - , i $.B X.%.< &.; *             ",
"          @ - , T 8 r P b w : - $ 1 $ - 0 : > *.< 0 ; 0 Z : : Y Y ! , *.> & 1 1 0 , - % $ $ 1 % - , / g b j 8 , ; #             ",
"        . $ : < p 7 d S c , - % 1 1 $ - =.-.R ;.q 4 , > < =., z Y 9 < < < L & - > > - - - % $ 1 % ; < e :.f / 9 ; $ *           ",
"        2 - > < >.r ,.d Z ; % $ 1 1 & - ; > Y q a ..Z i ..<.Y 7 p ! < p ;.1.> 2.> > ; ; - - - % 1 % 0 3.t b V >.: & #           ",
"      . 1 ; , 4 w h ,.^ > & $ % 0 0 : 0 0 *., 4 ) [ w < c j A 8 >.9 < %.q ;.< < 9 ! > > ; ; 0 - % 1 % , / g X.z : - $ X         ",
"      * % > 4 w t N u 4 3 1 1 1 $ 3 4.: ! > - ; , , , : 5.6.d w p p < < >.q p 4 < ! *.! *.*.L - % 1 $ 0 Y X.y i , 0 % 7.        ",
"      * - : w e d N w : & 1 1 1 % - ; ! < 2.0 8.& 4., 0 : 5.7 9.a a , , < 8 i , ; ; , k T 9 2.; % 1 1 % > 7 f w 1.; & 1 o       ",
"      2 ; T 7 e ( ' 5 - $ 1 1 & : 0.q.Z < > 0 5.5.; 0 ; : k a 9.I u 0 > 4 / k ; ; w.k [ 8 4 ! - 1 1 1 % L Z d u 5 0 - 1 *       ",
"    o # : 4 w d H c , & 1 1 1 1 % - ; *.< < > - - ; : ^ : < w 9.j t 3.: q.K : - & , e.e I 4 ; % 1 1 1 & 0 , w y r.L - $ X       ",
"    * & , 4 c B N U > % 1 # 1 1 1 $ - > < t.< 0 ; 0 : j j 3.] R y.y., : u.! ; - w., U r i > - % 1 1 $ % % > i f w > - % * _     ",
"    * ; L 5 X.B f z 0 $ ` } ` 1 1 $ ; 9 4 a a 9.: & 0 V e F u j 9.5 ! k , 3.: ; : : 5.i.< ; ; - $ 1 1 1 $ ; T d A > - % 1 #     ",
"    # - , / j b F < - ` } } ` 1 & ; , t.t.t.p Y Y , p.j r V b Q X.4 < a Y t K > ; , : R i p , - $ 1 1 1 1 - Y W X., & 1 $ #     ",
"    # 0 , 7 V a.I : % ` } { 1 & ; *.9 ;.q q < 3.s.e A 9.=.X.y d. .T 0 / f.F Y ; =.g.h.u j.4 : & $ 1 1 1 1 & , w j , - % - $ O.  ",
"    # 0 < R w f ..: $ { { 1 % ; ; ! < q p 1.> &.: 5.< 8 K d n b f c K ^ P B 0.0 4 K j j U T ; - - % $ 1 1 % : 7 d Y ; ; ; % X   ",
"    # ; 9 q w B w > % ` 1 $ - ; ; > ! *.< 4 R 8 9.5 < q < j b k.G n F ' <.j =.p.w w w 7 c 4 : ; - - $ $ 1 % : 7 d 5 0 : , % +   ",
"    # ; , < r B w : $ 1 $ % & - - > ! ! < q / r c 5 < < 4 ' k.k.k.k.g d Q i c #.j V K a ] 4 ! 0 ; & % 0 1 % : 7 y ] , 4 < % *   ",
"    1 - > < c f 7 > % 1 1 1 $ - ; &.! 9 t.%.r e 7 9 9 , 3.a.k.k.k.k.m d t A l.d W ) t.;.k *.*.> - ; 0 % $ % : 7 d / p 6 , - 2   ",
"    # & > < V ( 7 > % 1 1 1 $ - ; > < 4 p 7 7 < , 0 o.z.d.B M k.k.k.N v Z p < 7 ) , 9 < x.! *.: ; - & 1 $ % : 7 ' V w w , - # O ",
"    # % L 5 F ( w > % 1 1 1 & , ; f.=.4 ..X.=.> 0 d.M F I B a.B k.g a.X.r.< &.0 ; ; > 9 q q < *.L - % ` ` % , w B  . .7 , ; 2   ",
"    * % > K j f 7 , % 1 1 % % % 4.4., ) r w k : Y ..B V t c.y A P a.f c.c X.r T < *.9 q t.;.< > - % % $ & - , c B ' t w 9 ; +   ",
"    * % : y.j h X.Y - 1 1 1 1 v.=.> 9 4 4 4 ; 0 p r t w F d.t R r e g F b.9.w.0 ! 9 q t.t.< : ; & 0 3 # 1 - < F g f t w , & X   ",
"    O.$ , R w u d T ; $ 1 1 3 3 & ; ; > k =.; > 5 t w ^ ..A A 8 K #.N d t u 0 % ; < n.t.< > & % $ 1 ` ` % 0 z m.,.f t / > $ o   ",
"    . $ , q C V ' ) 0 $ 1 % % 1 $ - > ) c =.; 0 q.e.0 0 ] c , 8 l.=.A A e g d.: > : ;.;.9.l.4.0 & % % & 3 : ^ ,.h f W 5 0 2     ",
"    O $ , < 5 w M.w , % 1 1 1 1 % ; 4 7 A 0 & 0 3.- : , 4 o.9.7 X.5.k 5.5.N.q.f.: 0 , Y p., ; ; > e.B.- ; , c m a.' A , & *     ",
"    = 1 > *.9 C F t T - $ 1 1 1 & , t.>.8 ; % 0 0 - 5.< < 9.q.A W 7 0 V.5.< i : - % & , Y < > ; & 1 1 $ ; Z y M C.d R 0 # _     ",
"    O # ; L 9 4 9.' ) : % 1 1 $ ; ! 9 < , ; > - 3 ; y.>., 9.f.9.V r : ; , , 4.&.; - & =.y.u., : - % 1 & : 7 E k.g [ : % *       ",
"      * - ; , < 8 y X.Y ; $ 1 % - ; > ! < 5.4.; > , a >.< i , C 8 V Z.A., y.5.0 ; ; 0 > , : > , , ; $ 0 < X.k.b A , % 2 .       ",
"      X % - ; 9 Z j b / > & 1 $ - ; ; > < ! : ! < U K q 8 7 4 q p >.c f r / v ^ i < ! ! > ; - % % % - : 7 N g [ , - 1 l         ",
"        | % - > 9 / D t Q ; % $ % - - 0 : > 9 ! , / 4 7 p C 4 9 < q T j.v ) / A a 4 , > 0 0 - % $ % 0 ] d ,.c , - % 1 X         ",
"        X 1 % ; 9 8 F :.e < ; % 1 1 % - - ; 0 &.g.0.> q.< t.< 9 ! < &., 8 5 k p q < < L ; & $ 1 % ; < c m c 4 ; - % 2 .         ",
"          * 1 - L < r b ( / , - % 1 1 % - - - ; 0 S.% D., ! ! ! ! 9 0 ; : > < , < , > L 0 & 1 1 - : w B V z , > - 1 *           ",
"            * % ; , R W b t i , - $ 1 1 $ % % - 0 : 1 ; > ! : 0 > L ; & - - - 0 ; 0 ; - - & & - > U y d A T , ; & # @.          ",
"              + % L ] I j B $.C *.& % 1 1 1 1 $ - > 1 % - ; 0 - - - 0 % 1 1 1 1 $ % % & - - - > i d B V A T : - $ 2             ",
"              o 1 ; < 8 R j B d i , 0 % 1 1 1 1 % 0 1 1 % - - & & % % $ 1 1 1 1 1 1 1 $ & ; , U d :.a.F 7 , - % 1 X             ",
"                * $ > z C a V F F R < ; % $ 1 1 $ 0 ` { ` $ % $ 1 1 1 1 1 1 1 1 $ % % & ; 4 A y H N P [ 4 : - 1 *               ",
"                  * - , 9 q ) w X.b r i , ; & % 1 & ` 1 ` { 1 1 1 1 1 1 3 1 1 1 % - > 2.5 o.( N y c K : ; & $ *                 ",
"                  . # ; L 9 9 >.i j J t / =.: ; & & $ % & ` 1 1 1 1 1 1 - - % & - : Z 7 d :.' V A 4 : - - # *                   ",
"                    * % & ; L < < i V P g t 7 T , > 0 0 4.% $ $ % % & - - *.> , Z y.F f ' j A z , 0 - % $ l                     ",
"                      * 1 % - 0 9 < 8 9.j B g d c R T Y 4 : : : : : : , < T 7 c d f P j A 6 4 > ; - & % 2 .                     ",
"                        * * $ $ B.! < < 8 9.W f g ,.h P V w 7 7 7 7 w A V t D a.d W A a 6 q 9 > 0 - - 2 _                       ",
"                            * 1 $ - L ! 9 < 8 / I X.M.b g N ( b J b f #.B d F e r A R i q < < > 0 & 2 .                         ",
"                              + * # & ; L ! 9 9 5 5 8 [ X.P f f ' t F w 7 ) Z 4 Y 5 4 , , 0 ; $ 2 X                             ",
"                                  . * $ - ; L L 0 : , 9 Y r...j V e 9.4 9 > > ; - & $ $ @ + + @.                                ",
"                                      = * $ & & - - ; ; ; ; > =.z 5 i.p 9 0 ; % 1 1 *                                           ",
"                                          X * * # # $ % % % & & ; ; 0 > L ; - $ 1 2 .                                           ",
"                                                O . X * # 1 # 1 1 1 # 1 $ # # 2 X                                               ",
"                                                          O.O.O.X O..                                                           ",
"                                                                                                                                "
};
