/* XPM */
static char *result[] = {
/* columns rows colors chars-per-pixel */
"64 64 140 2 ",
"   c #002466",
".  c #43A56B",
"X  c #5BD18B",
"o  c #2D7952",
"O  c #9BF19F",
"+  c #8AFD8B",
"@  c #88FD82",
"#  c #79FD83",
"$  c #94FD8C",
"%  c #A8ECA6",
"&  c #75FD7A",
"*  c #69FD79",
"=  c #57F573",
"-  c #46F470",
";  c #37F46E",
":  c #56FD77",
">  c #A6FB97",
",  c #4EB970",
"<  c #2C8254",
"1  c #A5F39D",
"2  c #26F46D",
"3  c #0BD363",
"4  c #13BB59",
"5  c #13AA51",
"6  c #13B357",
"7  c #0AE362",
"8  c #25E368",
"9  c #67F576",
"0  c #93FD83",
"q  c #2B8B57",
"w  c #27FC6D",
"e  c #0AC35D",
"r  c #13A251",
"t  c #039D4F",
"y  c #0F7B41",
"u  c #0D6A38",
"i  c #035D35",
"p  c #118B4A",
"a  c #119C51",
"s  c #0ADB64",
"d  c #15E361",
"f  c #38F47C",
"g  c #03934D",
"h  c #1C6B3F",
"j  c #0F6237",
"k  c #0F4B2D",
"l  c #132318",
"z  c #104329",
"x  c #115436",
"c  c #1B7A43",
"v  c #1B934A",
"b  c #99F191",
"n  c #25EB69",
"m  c #0D733E",
"M  c #0E532A",
"N  c #0F3324",
"B  c #0F3B25",
"V  c #141B13",
"C  c #034C28",
"Z  c #1B9B4A",
"A  c #0D5C2B",
"S  c #115C38",
"D  c #108346",
"F  c #1CAB54",
"G  c #038A45",
"H  c #35DB67",
"J  c #25DB65",
"K  c #092B1C",
"L  c #035433",
"P  c #15C351",
"I  c #0ACB5E",
"U  c #44E470",
"Y  c #46F37F",
"T  c #26CB5F",
"R  c #45EC70",
"E  c #47FD72",
"W  c #37FC71",
"Q  c #26D364",
"!  c #A5ED99",
"~  c #16CB60",
"^  c #16C35E",
"/  c #17DB66",
"(  c #16FC68",
")  c #036435",
"_  c #08B34F",
"`  c #18EB70",
"'  c #15D358",
"]  c #1EBB5A",
"[  c #1C8A41",
"{  c #48FD7B",
"}  c #08BB51",
"|  c #09AA4E",
" . c #038343",
".. c #0AA34F",
"X. c #0F9341",
"o. c #0AF466",
"O. c #037B3D",
"+. c #17F468",
"@. c #75F485",
"#. c #0AEB62",
"$. c #36E367",
"%. c #B8FCB3",
"&. c #49D462",
"*. c #26C35C",
"=. c #68FD83",
"-. c #AAF3AC",
";. c #119350",
":. c #4FDC61",
">. c #B8FD96",
",. c #036B35",
"<. c #2DB451",
"1. c #57EC78",
"2. c #37EB68",
"3. c #0D8239",
"4. c #43B963",
"5. c #37EB77",
"6. c #16DB59",
"7. c #1B8341",
"8. c #0AFD67",
"9. c #0C7231",
"0. c #1EB359",
"q. c #093319",
"w. c #131210",
"e. c #142B1D",
"r. c #1B9B56",
"t. c #17D367",
"y. c #2BBB5F",
"u. c #35D363",
"i. c #36C35C",
"p. c #36CC5E",
"a. c #1C7340",
"s. c #18E36E",
"d. c #57FC83",
"f. c #64EB74",
"g. c #27CC6D",
"h. c #2CB361",
"j. c #15EB61",
"k. c #B7ECB2",
"l. c #AAFAAC",
"z. c white",
/* pixels */
"                                                                                                                                ",
"                                                      . X X X X X X X o                                                         ",
"                                              . X X O + @ @ # # # # @ + $ % % X o                                               ",
"                                          X O + & * = - ; - - - - : : * * & @ $ > % ,                                           ",
"                                      < 1 $ & * : - 2 2 3 4 5 6 3 7 8 2 ; - 9 # 0 $ $ X o                                       ",
"                                  q X 1 # & = w 2 3 e 4 r t y u i p p a e s d - & 0 0 0 > X X X o                               ",
"                              < X 1 @ & 9 : f 2 7 4 t g y y h j k l z x i c v 8 - 9 @ 0 $ $ $ $ 1 .                             ",
"                            . b @ & = - 2 n n s e r m M z N z z B B B B V l C y 6 - 9 @ $ + + @ & $ %                           ",
"                          , $ # * = 2 4 Z y u A S M u y D v F 6 F F r Z G m i B M a H = @ @ @ # * * @ %                         ",
"                        < 1 & : - J 5 m N K L h Z 6 P n n 2 2 ; ; ; 2 n J 3 e v m S y I U * # * : Y 9 @ %                       ",
"                      , O & = ; 3 5 u N M p 6 T n R = = * = * : * 9 * * = = - n 7 4 p S D H 9 * - ; ; * + %                     ",
"                  q 1 + & 9 E 2 4 m k y 4 n 2 W * & & & # # # # & & & & # # * 9 : ; 7 5 y y Q - 2 w 2 - # + !                   ",
"                  1 # & 9 = - ~ u x p ^ 2 : & & & @ + + 0 $ $ 0 @ & & # 0 $ + @ # * = R / a y ~ / s ( w * & $ q                 ",
"                % @ & * = ; F ) L _ ` - 9 # + $ $ + > $ + + + @ # & & & @ $ $ 0 0 @ & * - 7 Z c g t ' d = * & !                 ",
"              , $ & = R ] [ B u 4 2 = & # 0 $ $ $ $ > $ @ & & & & & * * * @ $ 0 0 0 @ @ * = n 6 u S v 3 f { 9 $                 ",
"            . O & = n 6 m N j } 2 = # @ 0 $ $ $ + + @ + # & * 9 * 9 - = : & $ 0 0 0 0 0 @ & * ; | S L  ./ ; = & X               ",
"          q 1 & : n 6 m N L ..8 = & 0 $ $ $ $ # & & & & & * = = : { - Y - = # # 0 @ 0 0 0 0 @ * n 6 L L 5 2 ; 9 $ X             ",
"          % & = ` 6 m B u 6 n - * @ $ $ $ $ 0 @ & * = = 9 = Y f { ; - { ; ; * * @ @ @ 0 0 0 0 & = n X.i G d 2 = # >             ",
"        o $ : n e a u k v n = & @ @ $ $ $ $ $ 0 @ # 9 : { { { f f ; ; - W { * * & # @ @ @ 0 0 @ & - 7 t i v 8 : & $ %           ",
"        1 & 2 o.3 ..i D P - 9 & = 9 & # @ @ # # $ $ $ # = f ; 2 8 ; 2 w w # # * & & & 9 # 0 0 0 @ 9 ; / O.u J = & @ $ ,         ",
"      < + : f +.e m M 4 2 * # @ & * # @ # & * : - @.+ $ + = w ( 2 2 ( ( ( & # = * * * = @ @ 0 0 + * * ; F u } ; * # 0 X         ",
"      % & = 2 #.r z m n = & 0 $ $ 0 + # & * - ; n n 9 @ @ # n 4 R $.o.+.2 E * E = : = ; @ & @ 0 # & & = d Z G H 9 # $ %.        ",
"    o $ & Y 2 4 j M 6 2 * @ 0 $ $ $ @ & 9 * 9 = H n W = 9 & &.i *.= 3 6 = * = W E W ; = @ @ @ # 9 @ @ 9 - 4 j 4 = & @ %         ",
"    . $ * ; 4 p k h *.= # 0 0 $ $ $ # * - 2 R - - W 2 R * & - u [ ; 4 e =.# - ; - ; W 9 & @ & * # $ $ # = s u X.= & @ -.% o     ",
"    , @ = J ..y z ;.2 = @ $ $ $ $ + & * = 2 4 4 I R *.5 # # :.D S ..) 4 @ 9 f - - 2 ; * + & * - @ >.> @ 9 n v ,.U * @ $ $ X     ",
"    X # - ' 5 m M 6 - & + $ 0 0 0 @ & * = { ; 2 ; / 8 5 ; ; T ,.j j j [ U <.n W 2 f ; @.0 & 9 * $ >.> @ * - } j 8 * 0 + @ %     ",
"    X * w #.6 A h e - & $ $ @ # 9 - = # # & 9 = 2 d J 1.R I t 6 y y M S m ..+.; 2.f = + @ * = & @ $ 0 @ * - 3 j I = @ & & $ o   ",
"    O : - e G k ;.n : # + 0 # * = - : & & & * * @.H t v v v p t Q ` Z D 3.; ; * 9 & # @ & E : * & @ @ # & = s D v = & * * + X   ",
"    $ * 2 P G j p n * @ 0 # 9 2.n n ; ; 2 2 ; 9 9 4.j Z 6 Z 5.4 Z 5 n 5 6.8 T # + + = = - { { * * * # # & : n m 7.- * = * @ X   ",
"  o + * 2 P r u a 2 9 & & * 9 = { { ; 2 8.6...v p u z Z 4 F t y M S _ 6 4 s ] 1.& U I o.2 f { : * & & # & * n G 9.8 Y 2 = @ %   ",
"  X @ : 2 3 4 u F ; * & & & * : = { ; ; +.o.3 0.M N L _ J  .q.w.w.e.y T $.4  .r.r k p +.( ( ; { = & & # & : 2 F m 8 t.e = & %   ",
"  . + * 2 ( e u 6 ; * & & & & 9 { { ; J s 8 = 9 v h D R ..z w.w.w.w.q.Z J e t p k [ T d d +.; { = * & & & * 2 F ) Z p 6.- * !   ",
"    + * ; 2 } j 5 ; * & # # & 9 { ; W J 5 e y.x i m G u.J A w.w.w.w.w.m T Q u M i.& $.Z 3 w s n ; - * * * : 2 F z j u P - * X   ",
"    $ * - - } ) F ; = & @ @ & * - W w s _ v i 7.y.v 3 8 - Z e.w.w.w.z ] Y 7.S i p p.6 n ( 8 2 ; n = * * & = n Z B z j 6 2 9 X   ",
"    $ & * - ^ z t 2 * # 0 0 & * * = f J #.2 1.@ # $.7 e *.6 y q.w.M  .*.3 7.i m D D p 7 o.; f - W * & & & : 2 t B w.S r 2 # X   ",
"    $ @ * - F l y n 9 & 0 + & & * = w ; = @ 0 0 @ - 8 v m e ` m r 6 0.O.p y y U = - - 8 ; - { { - : # @ & : n p B w.M 4 - @ X   ",
"    ! + * - G k D J = & + + @ @ & = E * @ 0 @ * * U - T Z e - H 8 8 Q p a v y p.9 9 * * * 9 = : = & + $ # = n G w.V a.^ = $ <   ",
"    o $ * s.;.j m s = * + $ $ $ & 9 * @ 0 @ : - 3 y ; T D 7.3.Q p 4 T } n R ] e 2 - d.* # * = =.# + + + & - e u w.N y J * 1     ",
"    o $ * J r v L 4 - * + > >.> & - * 0 + * { - 8 5 5 ..m j i y c y v v e | I J w 2 f { - = * @ $ $ $ + * ; 6 k w.N 5 - # X     ",
"      % 9 8 ^ 4 ) p n 9 @ > >.0 9 = & 0 @ : { = - 8 I u.f.0.L j L L ^ U T y Z n ; ; ; ; = * & + + 0 0 & = n G q.V m 8 * $ .     ",
"      % * ( +.I p m / = # $ $ # * & @ 0 & * 9 * - 4 s f.>.i.j T e.k R * * 2.J - = : = = = * : : * @ @ & - ^ h w.j ] = @ 1 o     ",
"      X * 2 2 +.4 j 4 W * @ + @ @ @ 0 0 @ * 9 * R s ; * + 6 e U p B g.& * = { ; ; : = 9 = * # @ @ + @ = 2 6 k M <.= & 0 %       ",
"      X * ; f 2 7 y Z d = & @ $ $ $ $ $ + * = : R 5.: * 9 Z d 2 H k h.* # # : : = * : = * & @ $ 0 $ & = J m z 0.= & @ 0 %       ",
"      , @ * : - ; r u F ; * @ $ $ $ $ $ @ & * = = - = & n I s ( d } v = @ + + & 9 * & # & # @ 0 0 # = 2 6 S ..; * & @ $ q       ",
"        $ & * - E / ,.y s - 9 @ $ $ $ $ @ & & 9 = = { 9 T n 3 2 2 n r 8 @.$ $ + + + 0 0 0 0 0 0 @ * - P  .u Q - 9 & @ %         ",
"        % @ # * { 2.v k t 8 = * @ $ $ $ 0 @ & * * * { 9 2.; 4 ; ( 2 2 J - * # # @ @ 0 0 0 0 0 0 # : n p x t n - = # $ .         ",
"        < > $ # 9 - s u x v n * # 0 $ $ $ + @ & # & * = - - 2 ; ( W W W Y = 9 & & * # 0 0 0 0 # = 2 6 m m 4 2 = & 0 1           ",
"          . ! + * * ; Z k L 6 ; * @ 0 $ $ $ @ # 0 @ * - ; ; f - w ; { : * * & * & # # # # @ # = 2 4 ) k m I 2 * # 0 %           ",
"            q % @ * - ~ j M x 6 R * & @ 0 $ + @ $ 0 # = - ; ; = = - : * & @ @ @ @ 0 0 + & 9 : 2 P h V z 5 2 = * # O .           ",
"                > # = 8 v m L i 6 n = * @ @ 0 $ 0 0 # 9 * = - ; * * = * # 0 > > $ $ @ & * = 2 4 u l C X.n = * & b .             ",
"                % $ * ; I ..p ) u Z d - * & @ @ 0 0 + # # & * E * & & 9 @ $ $ $ $ + & = f n 6 ) z h 6 ` { * & $ .               ",
"                  X @ = j.s I 4 v m t / R = * & @ @ @ @ @ & & * = # # 9 # # + @ # * = ` I v j ) ..^ ; = * & @ 1                 ",
"                    % & ; 2 2 d ^ 4 m y | d ; = * * & & & & & & : * & & * 9 * = = 2 n 4 y M m 6 2 = * * & @ > q                 ",
"                    . $ * = - ; #.( s D A p } s n - = = * 9 * * = - 9 = = ; 2 n *.6 G j j c 6 +.; : 9 * & > .                   ",
"                      % @ * * * - +.2 s v j j m v P s J n 2 2 2 2 +.2 n n e 6 D u x S m t 6 6.( ; - = & $ %                     ",
"                        % $ @ @ # = W +.7 e p j S i c G Z r F F F 5 Z y m ) M z S m D a t e s ( w = & 1 .                       ",
"                          , , O 0 @ * ; 2 2 8 3 ..Z G L L k z z B B B k L h  .F 4 e ^ / J s.R = * + % .                         ",
"                              q ! %.@ * : - f f - $.8 3 ..p h u S j c X.4 3 2 - = : * * @.$ $ -.X .                             ",
"                                  , , O @ * : : = 9 = - f U s./ t Z r I s ; { 9 * + $ 0 k.o                                     ",
"                                        X $ @ * & & & * * * * : E R $.n 8 2 = = & @ 0 1 <                                       ",
"                                            X $ $ + + + @ @ + @ & & & & * * * & # $ 1 o                                         ",
"                                              o X % % X X $ $ $ $ $ $ $ l.O X X X .                                             ",
"                                                            , X X , X <                                                         ",
"                                                                                                                                "
};
