/* XPM */
static char *result[] = {
/* columns rows colors chars-per-pixel */
"64 64 137 2 ",
"   c #002466",
".  c #A7ECA4",
"X  c #44CA73",
"o  c #337153",
"O  c #367C56",
"+  c #9AF097",
"@  c #94FD8C",
"#  c #8BFD8B",
"$  c #88FD82",
"%  c #28AA61",
"&  c #46D37C",
"*  c #A6F39E",
"=  c #93FD83",
"-  c #75FD7A",
";  c #69FD79",
":  c #56FD77",
">  c #57F473",
",  c #B6ECB1",
"<  c #78FD83",
"1  c #37FC71",
"2  c #25F46D",
"3  c #37F46F",
"4  c #47F471",
"5  c #15D358",
"6  c #09C356",
"7  c #26BB56",
"8  c #16C35B",
"9  c #17E365",
"0  c #17EB67",
"q  c #15DB59",
"w  c #0BE360",
"e  c #47FD73",
"r  c #25E367",
"t  c #0BD365",
"y  c #15BB50",
"u  c #15CB58",
"i  c #18D367",
"p  c #25EB69",
"a  c #14A251",
"s  c #147B41",
"d  c #108B48",
"f  c #119450",
"g  c #0AA34F",
"h  c #26B364",
"j  c #08BB51",
"k  c #115436",
"l  c #0E5329",
"z  c #104B2D",
"x  c #15733E",
"c  c #156B3E",
"v  c #0A6B3C",
"b  c #0A633B",
"n  c #115C38",
"m  c #133B24",
"M  c #17F368",
"N  c #14AB51",
"B  c #0D5B2A",
"V  c #16BB5D",
"C  c #146232",
"Z  c #03934E",
"A  c #17DB66",
"S  c #0BDC64",
"D  c #37EB68",
"F  c #26DB5A",
"G  c #15B353",
"H  c #0D9341",
"J  c #25C358",
"K  c #0E8346",
"L  c #083B1F",
"P  c #249B5D",
"I  c #09AB4E",
"U  c #0F4329",
"Y  c #B9FD97",
"T  c #A6FC95",
"R  c #46EB70",
"E  c #097B3C",
"W  c #133320",
"Q  c #0D833A",
"!  c #119C50",
"~  c #47FD7B",
"^  c #C3FD9A",
"/  c #35DB68",
"(  c #27A25F",
")  c #45E36D",
"_  c #19EC75",
"`  c #16FC68",
"'  c #1C9342",
"]  c #23AC50",
"[  c #0ADC59",
"{  c #26D36B",
"}  c #47DB69",
"|  c #035C36",
" . c #33CD57",
".. c #37EB77",
"X. c #55E374",
"o. c #038B46",
"O. c #26DB6D",
"+. c #18F376",
"@. c #0BF367",
"#. c #131B12",
"$. c #039C4E",
"%. c #37E368",
"&. c #034B25",
"*. c #0E241C",
"=. c #2B8B5B",
"-. c #57EC78",
";. c #17CB65",
":. c #26CB58",
">. c #37C467",
",. c #09733A",
"<. c #35D36D",
"1. c #68FD83",
"2. c #24B356",
"3. c #1B8A4A",
"4. c #36D358",
"5. c #039B40",
"6. c #0AEB62",
"7. c #26CB67",
"8. c #0D2B1C",
"9. c #08B34F",
"0. c #131210",
"q. c #43C960",
"w. c #27FC6D",
"e. c #25C467",
"r. c #0BEA73",
"t. c #0F9C42",
"y. c #27D359",
"u. c #33B35B",
"i. c #1B8348",
"p. c #47D265",
"a. c #096332",
"s. c #23A250",
"d. c #38F47E",
"f. c #076A30",
"g. c #14623C",
"h. c #239B51",
"j. c white",
/* pixels */
"                                                                                                                                ",
"                                                                . X o                                                           ",
"                                                      O + @ # # $ $ @ @ @ @ . % o                                               ",
"                                            o & & & . * = - ; ; : > : ; ; ; ; $ @ . X                                           ",
"                                        o , + = # $ < < - - > 1 2 2 2 3 3 2 1 4 ; $ @ @ .                                       ",
"                                  O X + @ @ $ - ; ; : > : > 1 2 5 6 7 8 9 0 q w 3 > ; < $ @ .                                   ",
"                              O X + $ - ; ; ; e 3 2 r t y u i p 6 a s s d f g g w 2 3 ; ; < # . h                               ",
"                            O + $ ; > 4 4 2 2 q j f s k l z x x c v b n m z n s d u 9 3 4 > ; # @ .                             ",
"                        O . @ - 4 3 3 2 M 8 N x n B s g N V 8 6 V 8 8 V d x C k k b Z 8 A 3 > ; # @ .                           ",
"                      O * < ; > 2 0 S 8 N b z x N 8 p 4 > : : > : : : 4 D p S 7 d B z n Z A 3 : $ @ @ .                         ",
"                    O + < e M F 5 G Z v z H J p 4 > ; - $ # # @ @ # $ $ < - : 4 p A K L z s A 3 ; $ @ @ & P                     ",
"                  X + - : M u G I x U x J 3 > - < $ = = @ @ Y Y Y Y T T @ @ # $ ; > R q E W Q S 4 - # $ @ @ + O                 ",
"                X @ - > M 7 ! K k l N p ~ - < = # @ @ @ @ @ @ Y ^ ^ ^ ^ ^ Y T T = < - > / a z d A > < - $ $ $ .                 ",
"              o + - 4 2 q g x W v 7 4 ; < # @ @ # @ @ # $ # # @ Y ^ ^ T @ T Y T @ # # $ ; 3 t E s / ; ; < - ; # &               ",
"              * - > 3 M G x W x A > - $ = @ @ @ $ $ < - - - $ < @ Y ^ T @ @ @ @ = = @ = < ; > S E K / ; - ; 4 ; @ (             ",
"            O @ : 3 M j x W x / : - # @ @ @ # < ; ; ; : : : ; ; - = T = @ # # @ $ $ @ # - < - 4 w E K ) > 4 2 4 < .             ",
"          O * - : 2 j d m v 8 4 - = = @ = < - - ; : : ~ r _ 3 3 ; - < < < < $ $ ; ; $ $ ; @ $ - 4 S s N 3 2 0 3 ; $ .           ",
"          & $ ; e 5 Z B z 7 > ; - @ # = < ; ; > ~ ~ 3 3 A 5 2 ` 4 : 4 4 ; - - $ > 4 - - - @ = $ - 4 t B j t u 0 4 < @           ",
"        O * < > 2 I x W N 4 - $ = @ @ < ; 4 3 R e 3 2 5 8 ' 0 2 _ 4 3 3 ~ ; - - 4 3 ; - - $ = = $ ; 3 a l Z ] S 3 ; $ X         ",
"        X # ; 2 8 s W x r ; # # = # < - - : 4 t u M [ ' s s { r p D 2 2 2 4 ; - } R e ; - - $ = = $ ; r s | d g S : < &         ",
"        + - 4 M G | L J > - @ = $ < ; ; : e 3 2 0 0 S G l l  .1 S ..2 w 2 2 > - X.p 4 : ; ; - $ = = < 4 t z n d ] 4 ; T         ",
"      O # : 3 8 x W o.3 ; = = = # - > 3 M O.p 2 2 5 G a x W y 3 G +.q u 0 @.> ; : 2 2 1 > ; - - $ = $ ; R x #.k $.%.; # h       ",
"      . < 4 2 j k &.6 > - # # = $ ; : 4 M S w 0 M j N q 7 C Q 5 o.6 N u $.8 D ; > ` M 2 4 e ; - < = = $ > V L U d r : $ X       ",
"    o @ ; 4 9 s m v p ; $ $ $ $ - > 3 / 7 8 M 8 N a 9 p 4 4 i N x x G 9 $.a / : 4 9 w ` 3 ~ : ; - $ = $ ; p x *.K r : $ .       ",
"    =.@ ; 2 7 v U G 4 $ @ @ @ $ - ; > ; ; X.-.> S d 7 : 3 ; 3 ;.r o.8 M A a 8 O.A f A @.2 4 e : ; $ = < ; 4 7 m $.2 > $ T o     ",
"    X $ ; 2 I b C :.: $ Y Y @ # $ < < - ; ; ; : t g R ; > >.-.G S d d -.3 7 a Z G g g 9 M 2 4 ~ ; - ; < $ > A B Z p > - @ o     ",
"    X # : 2 g k ,.p - @ ^ T # @ # < - ; e / ;.j g a <.1.> o.! 2.u G a 3 3 u 5 %.3 u Z N G 0 2 ~ > > > = # ; p s o.0 > - @ o     ",
"    X $ ; r $.l g 4 < @ ^ T # @ $ ; : 3 ` @.u g G / A M 3 t d x 3.N 3 3 r 4.; ; r f s v s 5.M 4 : - $ @ @ - D $.E 0 > ; @ %     ",
"    X $ > 5 ! k G > $ T ^ @ # # - : e 2 ` @.9 6.r %.9 V I 7.G H t t 3 2 9 r } 4 3 H 8.n x g 0 4 : ; $ @ @ $ 4 j ,.0 : - # X     ",
"    X < 4 9 H U 6 : # T # @ T @ < > 3 2 2 w 6.M u 7.7 3 3 :.B z n N S S 9.j > > > d ' 8 A 2 2 4 ; - < @ @ $ : V v r > - # h     ",
"    + - 4 9 K U 6 : # Y ^ Y T $ ; e 1 4 3 0 I a f ! G 5 r V l 0.0.U K K | g X.q.%.i M 3 3 w.3 : > > $ T Y = > 8 ,.r > - @ . %   ",
"    * ; 3 8 Z k 8 > @ Y ^ Y @ $ ; : 1 3 ~ 4 t Q Z t 0 2 w K 8.0.0.0.l Z e./ 9 V ' b o.i 4 e 4 ~ : < @ T Y = > 6 ,.r > ; $ @ &   ",
"    @ ; 2 t ! k 6 : # Y ^ T $ - ; D 8 3 %.i x x R > -.o.u n 0.0.0.0.W x H K x K E x 2.9 _ 3 1 : ; > @ ^ Y = : 8 s p : - - $ &   ",
"    @ ; p M G U 6 : # Y Y @ $ ; 4 5 ;.7 p ..r.S D > $.8.g l 0.0.0.0.z 8 5 u f G V ! G 2 2 1 ~ ; ; T ^ T @ $ > 7 x r > ; - - &   ",
"    @ > 2 ` t.k 7 > $ T T @ < 4 4 y.g ;.7 3.s <.> q.x a N l z 0.0.8.b 7.9 2 y.3 9 9 9 ` ` 2 1 : $ @ @ @ = $ : 6 v { e > : < &   ",
"    # 4 3 2 g l 7 > $ @ @ # - : D 6 8 d b n C R : t K t u.G ! i.U U c $.f w 4 > p 9 S @.@.2 3 : $ # $ @ @ < 4 N v A 4 ~ 4 $ &   ",
"    # : 1 2 8 n $.R - @ # - ; 4 4 3 j f x K a ; : i X.4 V N S u g B d ;.R ; > D N g u @.2 1 1 : ; < $ @ @ < D g v 9 ` 2 4 $ &   ",
"    @ ; 4 3 9 d s p - # # $ ; : ~ 3 0 u G ] ] > D 3 > 0 3 d M j i K K x p.- D N 8 u A 3 4 : e ; # # @ @ # - p x s V 0 0 : $ X   ",
"    . - ; 4 0 $.| A > $ @ $ > ; : 4 2 ` @.j u y.Z i i { %.! a g 4 / } K 8 %.9 g p 2 0 4 : - - - $ = # @ $ > :.C d N 5 2 > # X   ",
"    X $ ; > +.8 C j 4 - # ; < - ; ~ 1 3 ` M ] ] a G ! G r %.K s p > p.} i 3 / a p R %.> > 3 D R > - $ = < 4 ] n ! g 6 2 ; @ O   ",
"    h @ - ; 3 9 v x p ; < $ = - ; : e 1 w.9 $.u S p a H N w $.K ' u.> M > 3 t G 8 N 8 5 M 2 4 ; - $ = $ ; p x x a G 0 4 - +     ",
"      . $ ; 4 2 f m 8 > $ = = $ - ; : e 2 V u @.: R A f a w G G a.K 3.Q s.:.V 6 q q I j A S 4 ; < # # < > 6 &.d j 5 2 > # =.    ",
"      X @ < 4 3 V z E R ; = = = - - ; ~ 3 S ` 2 : > D ! G t 5 _ g t H #.n x d S S 2 3 3 R p.} 4 - $ $ ; 3 ' v $.g 8 3 - +       ",
"        @ $ > 4 t C m t > $ = = $ - - ; e 3 2 2 : ~ > G 0 S r ~ 3 3 :.m n ! 5 w @.2 2 ~ : ; ; - $ $ - > 7 z c s K A > @ =.      ",
"        & $ ; 4 9 Z k s / ; $ = = $ - ; > : 4 3 4 R > u 2 ` ` e ~ ~ 3 E v N w 2 ` 2 d.> : - - $ # $ ; r ,.z m b G -.# .         ",
"          . - ; p G d m g 3 ; $ = = $ - - ; ~ ~ > M ; D 3 2 3 1 ~ M 2 G ! K @.2 1 1 ~ ; - - = # # - 3 N *.m n g 4 $ .           ",
"          X $ ; 1 0 7 v z t 4 - # @ # $ - - ; > ~ %.- > > 1 ~ ~ e r 2 M 6.9 S 4 ~ : ; ; - $ = # < > G U W x 7 4 < + (           ",
"            . < 4 2 q N s s S 4 < $ = # $ < ; ; ; R $ - ; : ; : : R r 4 2 3 4 4 : ; - - $ = # < > 8 v W K i > - # .             ",
"            O @ ; 4 D 9 S K s S 4 - $ # # # < - - -.$ > $ $ @ < - - > e > : e : ; < < $ $ $ - > / E l g p > ; $ @ =.            ",
"              . < ; 4 ` 2 S K E S 4 ; $ @ # $ $ $ - # > # @ ^ T - - ; 4 - ; : > - = = = < ; > J E v G _ 4 > - = &               ",
"              O * - ; 4 1 2 A ,.x A 3 ; $ $ # @ # # @ ; # T ^ ^ T = # 4 - $ $ - - < $ < : 3 G c f.j M 3 4 ; - + O               ",
"                X @ $ ; > 1 2 A o.l g r 4 ; - $ # # T $ @ T ^ ^ ^ Y @ # - @ @ # < ; : > r N z x g 5 @.2 > - T O                 ",
"                  . @ - ; ; 3 2 S d U E q R > ; $ # # $ $ @ T Y Y Y T @ $ $ < - ; 4 p 8 ,.W n K a 8 M : - $ *                   ",
"                    . $ - ; > 1 3 S Z k m E V p 4 > ; - ; $ $ # $ # # < - ; > -.p 6 x m U c f G A M > - = + O                   ",
"                      . # $ - : > 3 S ! v | z x j S p ..3 > 4 4 > > > 4 3 p J N x U *.U x N u M > ; - @ * O                     ",
"                        . @ # $ ; ; 1 _ t ! Z C n a.Q f V V V 7 8 7 7 N N s v b ,.f ] A A 2 4 ; - @ * X                         ",
"                          % & @ $ - ; 1 3 0 0 9 $.v g.z n g.g.b x v b B v Z V S p _ 3 ~ ~ > - $ # .                             ",
"                              h . # $ ; > 4 4 3 3 t h.d s s s 3.N 8 8 A A 0 2 3 3 1 e : : ; - $ + O                             ",
"                                  X + @ $ ; ; : : > ) 9 8 g V 8 6 2 2 3 4 4 4 4 e : > ; - - @ * O                               ",
"                                      % . @ $ - - ; - ; 4 r 9 0 2 3 > ; ; < < $ $ # # # @ . O                                   ",
"                                            . @ # = $ $ $ < ; : > : ; - $ # + ( O                                               ",
"                                              o X + + + * * @ # # $ $ $ @ + O                                                   ",
"                                                            o     ( & & O                                                       ",
"                                                                                                                                "
};
