/* XPM */
static char *result[] = {
/* columns rows colors chars-per-pixel */
"64 64 144 2 ",
"   c #002466",
".  c #3B7D63",
"X  c #5BD16B",
"o  c #A4EB9A",
"O  c #9AF098",
"+  c #98FB96",
"@  c #A9F4AC",
"#  c #AAFAAC",
"$  c #AAECA7",
"%  c #45CC71",
"&  c #35B962",
"*  c #89FD85",
"=  c #76FD7D",
"-  c #68FD79",
";  c #94FD89",
":  c #A6F49C",
">  c #8AFC94",
",  c #56FD77",
"<  c #47FD72",
"1  c #26F468",
"2  c #26F376",
"3  c #36EB69",
"4  c #25E361",
"5  c #46F471",
"6  c #26DB60",
"7  c #09D364",
"8  c #15BB59",
"9  c #09BB56",
"0  c #09B355",
"q  c #03934B",
"w  c #118B4A",
"e  c #1C9B4A",
"r  c #039C4E",
"t  c #0AC35C",
"y  c #25E371",
"u  c #67F576",
"i  c #77F57D",
"p  c #38F477",
"a  c #0BF366",
"s  c #11944F",
"d  c #096B36",
"f  c #0A6336",
"g  c #0E5329",
"h  c #115435",
"j  c #136233",
"k  c #115C37",
"l  c #038444",
"z  c #0ACB5C",
"x  c #45EB6F",
"c  c #57F475",
"v  c #38FD76",
"b  c #36F469",
"n  c #0AEC6D",
"m  c #15D358",
"M  c #119C51",
"N  c #0F442C",
"B  c #0A130D",
"V  c #141B15",
"C  c #0E331F",
"Z  c #0E4321",
"A  c #0F4B2D",
"S  c #156B3E",
"D  c #038B45",
"F  c #37E267",
"G  c #36FC6B",
"H  c #16B357",
"J  c #0A7B44",
"K  c #157340",
"L  c #087339",
"P  c #0AA34F",
"I  c #14AA4F",
"U  c #147A3A",
"Y  c #17CB5F",
"T  c #16EB62",
"R  c #17F468",
"E  c #26FC6A",
"W  c #0E3B22",
"Q  c #26C358",
"!  c #0BDB63",
"~  c #1C934A",
"^  c #47FD7C",
"/  c #035C35",
"(  c #18EB6E",
")  c #16C35E",
"_  c #A7FC91",
"`  c #B9FD97",
"'  c #18F475",
"]  c #0D9342",
"[  c #C3FD99",
"{  c #25AB58",
"}  c #14A251",
"|  c #108347",
" . c #74FC73",
".. c #25EB62",
"X. c #27D25E",
"o. c #0D5B2A",
"O. c #36DB70",
"+. c #46D368",
"@. c #35DB61",
"#. c #142312",
"$. c #25EB73",
"%. c #0AE25F",
"&. c #33CB66",
"*. c #98F189",
"=. c #28FC74",
"-. c #64EA77",
";. c #43C15B",
":. c #16FC68",
">. c #18E36E",
",. c #14623C",
"<. c #15B248",
"1. c #16FB74",
"2. c #15C351",
"3. c #15DB5A",
"4. c #132B1F",
"5. c #47DA67",
"6. c #17D366",
"7. c #146A32",
"8. c #25D46E",
"9. c #15E361",
"0. c #58FC83",
"q. c #131211",
"w. c #18DB68",
"e. c #37C366",
"r. c #130D0F",
"t. c #081B0D",
"y. c #37E375",
"u. c #46E36E",
"i. c #0A4A21",
"p. c #26BC61",
"a. c #24A349",
"s. c #37EB77",
"d. c #34D35E",
"f. c #27CB58",
"g. c #68F486",
"h. c #77E97F",
"j. c #86F086",
"k. c #0BE26B",
"l. c #48F47E",
"z. c #26B460",
"x. c #0D8239",
"c. c #68FD83",
"v. c #1B4329",
"b. c white",
/* pixels */
"                                                                                                                                ",
"                                                                                                                                ",
"                                              . X o O + + + @ # + + $ X %   X X & .                                             ",
"                                        X X O * * = - - - - = * * ; : ; ; o o ; * > o &                                         ",
"                                    . : * = - - , < 1 2 3 4 3 5 - * ; ; ; ; ; ; = - = * o .                                     ",
"                                . : * - 5 1 6 7 8 9 0 q w e r t y 5 u = * ; ; * = , , - * ; o                                   ",
"                            . o + i , p a 9 s d f g g h j d f k l s z 4 x c = * - < v < , = * : .                               ",
"                          . O i - < b n m 0 M w j N B V C Z Z Z Z Z A S D e F c - p 1 1 b , - = O .                             ",
"                        . : i , G 1 a t H J K g N h L P I 8 8 8 8 8 9 8 w J U s Y 2 T n R G - - - O .                           ",
"                      . O = , 5 E a 9 M K W h S I Q 3 5 c c , , , , , 5 3 3 ! 9 ~ ~ q r t ! 5 , ^ - + o                         ",
"                    . : = - , 2 ! 0 K h / w 8 ( 5 , u = * * * * * * * * i = , 5 3 ! q d K w ! p v 5 - ; o .                     ",
"                  . O i , < a 9 l h W D ) 5 c = = * * ; ; _ ` ` ` _ ; ; ; ; * * = c x ! q A L ! ' b , * ; + o                   ",
"                . : = , n 8 ] L C g H 4 c = * * ; ; ; ; ; _ ` [ [ [ ` ; * _ ` ` ; * = c F { k L t ! v - * * + .                 ",
"              . : = , a 0 K k W d 8 5 - * ; + _ + ; ; ; ; ; _ [ [ [ ` ; * ; [ [ ` _ ; * u 5 ! U h } 3 < - * * o                 ",
"              o * - a 9 | k C L 6 c i * ; ; ` _ _ ; * ; * = * _ ` ` _ ; * * ; ` ` ` _ ; * = , ! U d 7 p -  .= * &               ",
"            . O = 5 T 0 K C U F c = * ; ; ; ; ; ` _ ; ; = - - * [ _ ; ; * * ; ; ; _ ; _ _ _ * 5 ! U L ! 5 - = * o               ",
"            X * - ^ ..P W d 6 , = ; _ _ ; ; * = i ; ` _ * - G , _ ` ; * = = ; ; ; ; ; ; _ [ _ * 5 ! U D 6 - = * ; o             ",
"          . O = - ^ X.k o.8 c = ; ; _ ` ` ; i , < 5 * _ _ = p 6 = ` _ * - - * ; ; * ; * ; [ ` ; i 5 0 S } 5 - * ; ; X           ",
"          o ; = , 6 d A 9 5 = * _ ; _ ; _ ` ; - p R a u ; * O.X.+._ [ = < < - * = = * * * [ ` ; * = 3 I S F - * ; ; : .         ",
"        . + * - @.L #.D $.= ; ` [ [ _ ; i i ; ; c %.0 0 c * &.P 8 *.` u n =., - 5 c = u * ` ; ; ; = , F D e 5 * * * * o         ",
"        $ ; = b | C o.) c * _ [ ` _ _ ; * * ` _ ; c I D r x ) K r -._ F Y 1 < 5 a c - , _ _ ; ; ; = = c 6 L 6 = = u = ; X       ",
"        : = b 9 S W P b = ; ` _ ; ; ; * = * * ; ; * -.l d I J g L e ;.P m :.c X.) i - u + * = * ; ; ; = x ~ ~ , - -  .* + .     ",
"      . ; c >.q j o.Y , * ; _ ; * * = u u - = = = * * &.J U K k j f S K T G - Q F i * * i - - = ; _ ; * , ) L y ^ ^ ,  .* %     ",
"      O i 1 9 D ,.J 3 = ; ` _ ; * = , ! X.3 u = , 5 c ) M s K h j k k | <.u = Q 5 * ; ; < 1.< = _ ; ; * - 3 K z p a v - = o     ",
"    . * c 2.r r j I 5 * _ [ ` ; ; * = 5 3.9 z p 1 b X.q w J q f k 4.g l M u = ..c ; ; i 4 a 5 ; ` ; ; ; = 5 0 D ! m G , - o     ",
"    o - 1 ! >.q o.) , * ` [ _ ; ; ; = - 5 5.@.3 p ( p 6.Y q l { J K 9 t } x c p 5 * i Y 0 a - ` _ ; ; ; * , ! 7.D } 1 v - :     ",
"    + c 1 1 9 7.J 3 u ; ` _ ; * ; = - , , - * * - @.I H H w z 5 ! p D I } s t ..Y 3 8 | M x _ ` * * ; ; * - 3 J / w ! T u +     ",
"  . * u ^ 1 e W I 5 = ; + * * * = u ^ p ! z F c 5 6 J q 8.5 3 Y } 5.8 d P s H e r } ] U +.* ` ;  .= ; ; ; i 3 e V h q 9.u ; &   ",
"  X * - < t w ,.0 c = ; _ ; ; * - < < p n H 0 9 z R 8 I &.x F H K ~ X.s n I H K l M s X.= ; ; u , = * ; ; * 5 8 4.#.f t u * o   ",
"  X = - p X.q h 8 , * ; ; i * * * * ; ; c 0 l K J t L k e ! I f W g 0 I F 5.l K J ~ K } 3 5 @.3 0.= ; ` ` * , 8 W V k t u ; .   ",
"  X * - E 9.~ h 8 , * ; _ ` ` ; ; ` [ [ _ &.J / A I ) +.I | Z q.q.4.w } Q F X.w f j j S q z m n u _ ` [ ` * c 8 W V k w.u ;     ",
"  X * , b T r h 8 , * ` [ [ ` _ ` ` _ i e.J A N 4.7.p w.l N q.q.r.r.C J s 8 ' | ,.j j J t X.@.i _ [ [ [ ` * c 8 W q.K F , * &   ",
"  X * 5 2 T q k 9 , * ` [ [ [ ` ; u b { D ,.k f f Y 5 I j C q.q.q.q.4.| I p &.#.N j U 6.p , ; ` _ _ [ [ ` * c 8 W V q ' - ; &   ",
"  X * < v R P f 9 , * ` [ [ _ = b ! I P e S ,.f K ) p ) e J t.q.q.q.A P Y y.w.e A f L u.* _ _ ; ; _ ` _ ; * c 8 W #.I b = ; .   ",
"  X i - < T X.d 8 , * ` [ _ = < $.&.x b X.w w q w | P @.z P A C q.i.0 I J / 9 X.f f | w.c u = ; ; * * ; ; * c 8 W g t < = ;     ",
"  & * - 5 1 9.7.8 c * _ _ * = , , i - i u.I } w D P H p.Y U q J A l R 4 &.I ! X.z 8 } P ( b < - - * * ; ; = 5 { N I b - i :     ",
"  & ; - < =.>.L e x = ; ; * * = * ; ; -.~ | } w M @.6 J 8 K t M s U @.3 Y ~ ~ Y u.u.1 T a F 5 u = * = ; * = b P i.6., - = o     ",
"    o = , ^ y D J n - * ; ; ; = _ _ u t e H u.{ H x 8 f s K a.x z 3 z s e D w s.u u - c 5 u = ; ; * _ ` * i 3 | ] 5 - - * o     ",
"    o = , c G } k ! c * ; ; * ; ` * 1 9 X.u i c 5 p ) L s 7 X.X.>.3 8 ) >.O.$.3 x d.f.@.5 - * ; ; ; ` _ * , ) S 8 c u - * o     ",
"    X * - - 5 7 g 0 5 * ; ; ; ` ; c E 1 - ; * * , y c u.} z z Z L K S w e L { n ! ( Y t 7 b i * ; _ ` ; i 5 I K T < , = ; o     ",
"    . + = = 5 ! k L 3 = ; ; ; _ = < G u ; ; * * - t -.g.0 | S A j ,.,.,.K M &.X.( c = - < , - * ; ; ; ; = 3 J q T b u = ; o     ",
"      o * = , X.f g 7 c * ; ; * = - - ; _ _ * * c ~ c u z U K j j j ,.S f t - * i u = = = = = ; ; ; ; * c ) / q T , - = ; X     ",
"      X ; * , Q J / ] 5 = ; * * * = ; ` [ _ ; = F P < ..a { w L S ,.f | j r u * ; _ _ * = * * ; ; ; * i 2 P k H 1 - = = : .     ",
"        o * - ) I ~ f ! , = * ; ; ; ` [ ` ; = - ) } 2 m :.n h.& | f J 8 K f 8 u ; _ [ ` _ _ ; _ _ ; * , ) o.7.6 , u - * o       ",
"          + - w.6 ! l D F - * ; ; _ [ [ ` * - < ) w.p n 2 g._ j.| D w 5 F { q X.u _ ` [ [ [ ` ` ` ; = 3 D C I n , c = + .       ",
"          $ = ( ..' ! d I 5 - ; ; ` [ [ _ * = , 5 , , =.< = ; _ Q 8 7 G u c X.3.G - ; [ [ [ [ ` ; = 5 9 h U k.< < , = :         ",
"          % * 5 p p p r S X.5 = ; ` [ [ ` ; * = - = - , c * ; _ u 9.1 , - i u 5 p , = ; _ ` ` ; = 5 8 f U w.p p , - ; .         ",
"            O , l.< ^ w.l U ! , * _ [ [ ` ; * * * ; * , - * ; ; _ 5 p , = * ; ; i - = ; * ; ; = , 6 d S 7 1.1 < , = o           ",
"            X u c , - , ! L U %.c * _ ` ` ; ; ; ; ; * < = * ; * ` i , ,  .* * _ _ ; ; ; ; = c x w.L f z.n 1 2 p = :             ",
"            . > - - - - 3 I h U ! 5 = ; _ _ ; _ _ ; ; i * ; _ _ ` _ i = i * * ; ; _ ; ; * = x I S k H n 1 :.2 , O .             ",
"              o * = - - c >.] g U ! 5 - * ; ; _ [ ` ` * ; ; _ ` ` [ * = * ; ; ; ; ; ; = - b 9 d W D t X.! 1 , * &               ",
"              . : ; * = - v 6.L g j I @.c = * ; ; _ ` _ ; ; _ ` [ [ ` i * ; ; ; * * = c ( H o.C k J M I 7 5 * o                 ",
"                . % o * = - p I x.f f ] ! x c  .* * ; * ; ; ; _ ` ` ` ; * * * = = c b t D C C A f K I X.c * o                   ",
"                      o ; = - 6 I M q K 7.~ z n 5 , = - = * * * * * * * - c , 5 3 t e / i./ x.} H w.5 i + o .                   ",
"                        $ ; = c T T ! P q w 7.J 9 ! 3 3 5 c , , , c , c b ( t I L k f ~ 8 w.b c c.= * : .                       ",
"                          X + - =.1 1.w.z X.s d / f J w 8 9 9 t t t 8 I I U A k J I w.1 l.- = i ; ; : .                         ",
"                            . O - < , , 5 R %.I e e q f S j ,.N Z Z v.C #.C S e X.' p < , -  .i * : .                           ",
"                              . O - = i = 5 E 9.7 7 9.>.! 6.9 H <.e s s s l | w 9 %.b c u = = + : .                             ",
"                                . O ; + ; * i 5 G 1 1 b p c 5 5 < 5 5 5 5 p x x 5 G , - i * : .                                 ",
"                                    &   X o o > - , < < ^ - - = - =  . .- - -  .= * > O X X .                                   ",
"                                              . o > i - - = = * * ; * * i = = * : o                                             ",
"                                                  . & : ; ; + + o $ + + + + : X X .                                             ",
"                                                      . & X .       .                                                           ",
"                                                                                                                                "
};
