/* XPM */
static char *result[] = {
/* columns rows colors chars-per-pixel */
"64 64 141 2 ",
"   c #002466",
".  c #2C7C52",
"X  c #3BC470",
"o  c #56D47B",
"O  c #2EAA65",
"+  c #A3ED9F",
"@  c #A5F49C",
"#  c #98FB95",
"$  c #93FD88",
"%  c #89FD85",
"&  c #ADECA6",
"*  c #2B744D",
"=  c #9AF09A",
"-  c #78FD83",
";  c #75FD7A",
":  c #69FD79",
">  c #68F577",
",  c #56F471",
"<  c #56FC73",
"1  c #A7FC94",
"2  c #A9F3AC",
"3  c #8AFC94",
"4  c #36F46D",
"5  c #25E369",
"6  c #25EB69",
"7  c #0AD364",
"8  c #26DB61",
"9  c #37E36F",
"0  c #B6F3B2",
"q  c #2B8B57",
"w  c #17F369",
"e  c #0ABB56",
"r  c #119C51",
"t  c #0F7B41",
"y  c #0E6B38",
"u  c #0E733E",
"i  c #1C934A",
"p  c #47F470",
"a  c #15D358",
"s  c #09B355",
"d  c #14A255",
"f  c #0F8346",
"g  c #104B2F",
"h  c #133B25",
"j  c #14231A",
"k  c #10432C",
"l  c #115C38",
"z  c #118B4A",
"x  c #26D35F",
"c  c #56F47F",
"v  c #95F187",
"b  c #15C35B",
"n  c #115435",
"m  c #131210",
"M  c #0E532A",
"N  c #038A45",
"B  c #15BB57",
"V  c #47F47E",
"C  c #25F468",
"Z  c #0BDB66",
"A  c #133321",
"S  c #036435",
"D  c #15AB55",
"F  c #0AAB54",
"G  c #14A249",
"H  c #037B3D",
"J  c #24AB4E",
"K  c #0BEC6C",
"L  c #18EB6E",
"P  c #1B9B4A",
"I  c #0F6237",
"U  c #38EB6A",
"Y  c #09C356",
"T  c #25C35D",
"R  c #17DB67",
"E  c #093B21",
"W  c #1C6B3E",
"Q  c #16E362",
"!  c #0AA354",
"~  c #0BE46B",
"^  c #034B2B",
"/  c #142B1B",
"(  c #23A24E",
")  c #09331E",
"_  c #039C4D",
"`  c #15CB58",
"'  c #03934D",
"]  c #035C35",
"[  c #B9FD97",
"{  c #C3FD99",
"}  c #25F376",
"|  c #46EC79",
" . c #26CB5D",
".. c #14AA48",
"X. c #78F579",
"o. c #64EC7D",
"O. c #46E268",
"+. c #15B358",
"@. c #1C623B",
"#. c #1C8342",
"$. c #35CC5F",
"%. c #74EC7F",
"&. c #45EB6A",
"*. c #37C35D",
"=. c #47DC68",
"-. c #16EB62",
";. c #4ECD68",
":. c #43C76D",
">. c #35DB62",
",. c #17D367",
"<. c #26BB61",
"1. c #57FD7C",
"2. c #43D464",
"3. c #16FC68",
"4. c #58E466",
"5. c #39F47D",
"6. c #77F487",
"7. c #24B450",
"8. c #53DB75",
"9. c #03733C",
"0. c #131A12",
"q. c #0D4321",
"w. c #0A130D",
"e. c #36D36F",
"r. c #119350",
"t. c #36DC70",
"y. c #26FC6A",
"u. c #38EB76",
"i. c #1B8B41",
"p. c #63E16B",
"a. c #17CB65",
"s. c #09A348",
"d. c #09DA57",
"f. c #A8FBAC",
"g. c #56EB6C",
"h. c #37FC71",
"j. c #37BC64",
"k. c #0ACB58",
"l. c #0D5C2B",
"z. c #0AF474",
"x. c white",
/* pixels */
"                                                                                                                                ",
"                                                      . X o O O X O                                                             ",
"                                            . o + @ # $ % % % $ $ $ # # & X *     .                                             ",
"                                        . o = - ; : > : , , , < : - % $ $ $ # o O 1 + o                                         ",
"                                    X 2 3 > , 4 5 5 5 5 6 7 7 8 8 9 < - $ 0 $ $ # $ % % @ X                                     ",
"                                q @ % - < 4 w e r t y y t y u t t i 7 9 > % $ $ $ $ % ; > % @ q                                 ",
"                              q @ ; < p 4 w a s d f g h j j g k h g l z x 9 > - $ $ - : c : - # +                               ",
"                            O v ; p 4 w x b s z t u n g h m h h h h h k M N B 5 < % % < V p , - $ o                             ",
"                        . + $ ; , 4 C Z s r u A A A S u t i D s D F G z N H S y J 9 > > 4 4 4 < - % &                           ",
"                      q = - > , K L e P u k A I z D b 6 6 w 4 4 U 4 w K 8 7 Y i H t T p C C C 4 : : - +                         ",
"                    q @ ; p w R e i S E k W i T K U p , : > : : ; : : : , p 4 6 Q s i ! B 7 ~ 6 < : : % o                       ",
"                  q = ; , w s u ^ A / y s ~ 6 4 c > ; - - % % % % % % % ; ; : : , p Q F f y i ( U c < > @ q                     ",
"                . @ % < w s u ) m ^ z b K , > ; - % % $ $ $ $ $ $ 1 1 $ - % % % ; : , p Z _ W I s 4 p p > # +                   ",
"                o $ ; 4 ` ' ] / I s L p < ; - % $ $ $ $ $ $ $ $ $ [ { 1 % % $ $ % % - : p Q P n S Z K 4 < % $ + .               ",
"              q @ ; , 4 6 z A y Y } c : - $ $ $ $ $ $ $ % % % - % $ [ 1 % ; $ $ $ $ $ % : , 6 s n y ! R < : - $ o               ",
"              = % ; c | ! h y B 4 , ; % $ $ $ $ % % % - ; ; : : ; % $ $ % ; % $ $ $ $ $ % - > 4 s n S  .p : ; $ $ O             ",
"            + $ - : | d h n e w , ; % # 1 1 $ % ; : : ; ; ; : : < - $ $ $ - - % $ $ $ $ % $ % > 4 s n f 9 > : % % +             ",
"          X $ % ; | ..h y s w , ; $ 1 [ { [ 1 $ ; , , : - ; > 4 p > $ $ $ X.; - $ $ $ - $ 1 $ % : 6 ' M D 4 > % % #             ",
"          2 % ; 4 F E A f 6 p : ; $ 1 # 1 [ [ 1 % : p 4 o.% ; O.x p $ % % > : ; $ $ $ ; % { [ % ; p Q i y Z < - % $ +           ",
"          @ ; U +.@.j #.B 4 > % % % $ $ % - X.% $ % c 7 +.o.% : Y ~ $ % X.> , ; % $ % > - [ [ # % c 4 8 u u O.: % $ $ o         ",
"        + - V B u g M e 4 : % $ $ $ $ % ; > > > $ $ - $.t ( %.<  .! % $ : p 4 : ; - ; , $ 1 1 $ % , < 4 F l  .: % $ $ # .       ",
"      q $ c R t S ] f 6 , ; $ $ $ $ $ % ; : 4 &.% $ % c _ I *.=.t ' o.1 < -.4 : : : V c # # 1 $ % : : p 8 H i , % % ; % +       ",
"      = : w F N N l s 4 : % $ $ $ $ % - : : p p > % $ % ;.I t _ ^ y :.o.U Q 6 p U 5 p > - # % % : % - > U i u 9 % % ; - # q     ",
"    q % p 7 b +.y u T V - % $ $ $ % ; , w  .b R , p - % , t u I h l y t F  .O.>.P 5 - : ; % ; ; % $ % : p Z u  .: : : : % &     ",
"    o : p 4 w i k P K < % $ $ $ $ $ $ ; > , *.t P O.p 4 ,.r r S I I l u f x X.P <.X.$ - % : : ; % $ $ - 1.6 z i p c p > - #     ",
"    @ : V 4 e n M +.4 : % $ $ $ % - ; ; : < p 2.T x C 5 B r ' t y M h #.f o.- x > $ $ % , p > ; % $ $ % : 4 B W ~ p Q , ; $ .   ",
"  . $ : V w i g y Y p ; % % ; > : ; > , p 4 3.4 > > U s +.N N T ! b B B +.| 4.>.% $ % O.+.K , ; ; $ $ % : p 7 I b b +., : $     ",
"  X % : 5.b ' M N K < ; % % - ; ; ; ; > p 8 a 8 R 4 ` z B 2.>.4 i &.<.P b s  .>.o.> T u P &.- ; ; $ $ % ; c R t t y D p , %     ",
"  & % < 4 a P @.z 6 : - $ $ % % % - ; , 6.X.2.#.t e Q +.7.O.p B u ( a t B F B f ! P ] t 8.% - > : % $ $ ; < 6 N g ) z Q p 3     ",
"  & % , -.` P I r w : % $ % $ $ $ % % 1 [ 1 X.i 9.y s u H s F P g n e ! K B z u t y u 2.% % < , ; ; $ $ ; > 6 z h 0.t F p % o   ",
"  o % p 3.~ i M F } : % 1 [ [ $ $ $ % - > 8.D M q./ +.p b I q.w.m 0.t ' | e.#.r.r.u t.X.; p C p : ; % $ % : U F h m M _ p % o   ",
"  o % 4 } -._ I s 4 ; % 1 1 $ % ; > 4 x G t g k ] M >.t.u k m m m m A I N K ,.y n g u D  .s x V < ; $ $ % : 4 F h m g i p % o   ",
"  + - p 4 a ..y D } : % $ $ % ; c 9 8 b T ( S I S i p  .u h m m m m / S 7.p P l ^ l t d d B p , ; % $ $ % > 4 s g m g F > % o   ",
"  o - 1.y.-.7 y D 4 : % $ $ - : p 4  .8.- c B r.z ' B } s t 0.m m / M r u.4 i.q.I #.T ;.p.% $ $ % $ [ $ % > w F h m M x > $ .   ",
"  o % > 4 4 5 y G w : % $ $ - : , 4 > , | ( y ' u P D R a.f M / m #.N F ( i. .S I ( % # $ - % $ $ $ $ $ - > K G h m y 5 > $     ",
"  O $ : p V 5 S z 6 : - $ % - ; : > : | ! S N s ' T R s +.t b y S F w  .+.s.b G z s O.> - % % % % $ % % ; < 6 z h 0.J 4 ; #     ",
"    2 : , > 6 f y R , ; % $ $ - : : < B u 7.> > >.5 B y i y t.<.( B w d.r z  .R b ! ` Q p , : ; ; ; ; - : p K N 0.I B c % @     ",
"    f.- > > 4 P u 8 p : % $ $ ; ; : 4 8 O.- % ; p p ,.f r ! ,., U p r r _ d t.c g.$.` U p 1.: : : - % % : p Y y E s 4 ; % +     ",
"    + - ; : 4 i k B p : % $ $ % ; : , > % $ % % : U > &.' +._ u +.P D 7 <.K d.x *.$.p : : : ; - $ $ $ % : 4 s g t 4 ; ; % +     ",
"    o $ % : p #.A i 6 > % $ $ % : ; ; % $ $ % % g...o., ' S M ] S W S t f z $.x f u 5 : , : % $ $ $ $ - < 6 N g B c ; ; $ o     ",
"    . # $ : >.y M y 8 p : % $ - : ; % $ $ % : > J f 9 R D u I I n I I I *.o.| 4 6 8 R : ; % $ $ $ - % ; p ` u N 4 : : - # .     ",
"      O # ; 2.u N I 7.p : % % ; % % 1 $ $ - > =.i B  .s ` <.r I k l I u >.- % % < 4 h.: ; % $ $ $ % - > } s I B C p > % @       ",
"        & ; x F Z f t Q p : ; % $ 1 { [ $ ; : 4 U 4 x 7., 1 o.S l B P k ( > $ $ % : : ; ; ; % $ $ $ ; , 8 N I s C , ; $ &       ",
"        o % 5 e w  .] ! } : - $ $ [ { [ $ ; ; : , , 4 8 - [ > i f } Z u y j.6.$ $ % % % - ; - % $ - > K s n u e 4 : - % o       ",
"          3 4 K 4 5 f u 8 p > % # { { [ $ ; ; : > : p p % 1 : ` +.V 4  .N F p % $ $ 1 1 1 1 # $ % ; p k.#.A z w < ; % # q       ",
"          3 p 4 4 4 ` ] i Q p ; % 1 { [ $ % % % ; ; , > - % : w B 4 c U 6 8 4 : % $ { { { [ 1 $ - , 6 i.A ] B , : ; - @         ",
"          + > p , p 4 P M i 6 > % $ [ 1 $ $ $ $ % - , < % % - V 4 4 , > > V < : ; % 1 [ [ 1 % ; < w e y E F u.> : ; $ q         ",
"          o - > 1., > 8 f n s } > % $ $ $ $ $ $ % % : < % $ - c V p > : ; > : ; : - $ % % % - , w B S g ! 4 c c > - @           ",
"          * # ; - : : p ` M n s 4 > % % $ $ % % $ % - : % $ % - : : ; : ; ; ; - - % $ % ; p p 5 e y n s U p p c ; @ q           ",
"            + $ $ - ; , 5 N h l.s 5 , : % $ % % $ $ $ ; $ # % $ ; > < - % % % $ $ % - ; > < 6 ! S n F } h.h.V : % o             ",
"              o f.% ; : V  .S M ] P Q p : - % % $ $ $ - $ 1 $ 1 % % : - $ $ $ $ - ; : < p 6 s I n F w V 4 4 , ; +               ",
"                  o % - > U i S l W _ 8 4 , > : % % % - % $ $ $ % % % ; - % - ; : < , w b i.^ ^ t b K w C p ; = q               ",
"                    o $ - , R d _ N y f F Q p p > > : : - % % % - ; ; : , < : < p 4 R F y k n I t D B d.4 > @ q                 ",
"                      & % : 4 Q a b ! z y i 7.8 6 p V p 1.> > : : > > , p w 4 6 b D W h A l I I t F B 4 : @ .                   ",
"                        & % > C z.4 Q a ` z I u z Y x R 6 6 4 4 } w 6 6 L e D t I A q.] t N G D >.| > 3 @ q                     ",
"                          & % p p c p -.C R ' I n ] u f z z D D s F z N H S k ] y N <.R U | p > - $ @ q                         ",
"                          * + - : ; - , 4 4 Q B s P i u y n k k M h k A A y F b R u.c : ; % $ $ @ q                             ",
"                              + $ % $ % - p 4 -.C 4 9 9 x e s P f y y y S f b d.4 p , : ; % $ # O                               ",
"                                o o o 2 + - : p 4 4 p > : p V p p U 5 a  .+.B b C V , : ; % @ O                                 ",
"                                          O = - > < < < : ; ; : ; ; : < c < < , : : - $ @ o .                                   ",
"                                            . + # % - - ; % $ $ $ $ % - ; - % $ @ + o .                                         ",
"                                                . X = # f.# 2 & # # # $ $ # + q                                                 ",
"                                                                      O . .                                                     ",
"                                                                                                                                "
};
