/* XPM */
static char *result[] = {
/* columns rows colors chars-per-pixel */
"64 64 132 2 ",
"   c #002466",
".  c #A6F09F",
"X  c #30B26E",
"o  c #337153",
"O  c #3B7D5B",
"+  c #AAF0AB",
"@  c #98FA95",
"#  c #94FD89",
"$  c #88FD82",
"%  c #78FD83",
"&  c #69FD79",
"*  c #66F574",
"=  c #4BC76F",
"-  c #9AF196",
";  c #57F574",
":  c #38F477",
">  c #46F470",
",  c #74FD7A",
"<  c #8BFD8B",
"1  c #56FD77",
"2  c #17F468",
"3  c #0BEB63",
"4  c #17E365",
"5  c #16EB67",
"6  c #26F469",
"7  c #36F469",
"8  c #25F376",
"9  c #26E36D",
"0  c #17D366",
"q  c #27DA60",
"w  c #0BD363",
"e  c #27D35E",
"r  c #15D359",
"t  c #1BBB55",
"y  c #03A44E",
"u  c #1B9B4A",
"i  c #10BB5D",
"p  c #0AC35C",
"a  c #1C934A",
"s  c #097B3E",
"d  c #115436",
"f  c #156B3E",
"g  c #09733D",
"h  c #038344",
"j  c #0A6336",
"k  c #096B36",
"l  c #108B4A",
"z  c #18DB67",
"x  c #4BD173",
"c  c #0AF366",
"v  c #0BDB66",
"b  c #0ACB5D",
"n  c #115C38",
"m  c #108346",
"M  c #039C4E",
"N  c #1CAB57",
"B  c #0EB351",
"V  c #03AB4D",
"C  c #136232",
"Z  c #0F3B26",
"A  c #1BB354",
"S  c #25EB6E",
"D  c #0EAA4F",
"F  c #119C51",
"G  c #119350",
"H  c #37EB6F",
"J  c #0D5229",
"K  c #25C45D",
"L  c #15DB59",
"P  c #1C5332",
"I  c #16CB5F",
"U  c #147339",
"Y  c #114B30",
"T  c #0C4322",
"R  c #B9FD97",
"E  c #1B5B32",
"W  c #0E3324",
"Q  c #C3FD99",
"!  c #A4FC8B",
"~  c #035C36",
"^  c #47DA67",
"/  c #1C8B4A",
"(  c #45EB72",
")  c #10432D",
"_  c #47F47F",
"`  c #132B1C",
"'  c #24BB57",
"]  c #0FA250",
"[  c #78F579",
"{  c #0DBB50",
"}  c #16C35E",
"|  c #14623C",
" . c #146A32",
".. c #26CB5D",
"X. c #36DC61",
"o. c #37DC70",
"O. c #038B44",
"+. c #15CB51",
"@. c #131210",
"#. c #47FD72",
"$. c #157B46",
"%. c #35D35F",
"&. c #47FD7C",
"*. c #0AE360",
"=. c #091B14",
"-. c #37D36E",
";. c #33C56D",
":. c #1BA24A",
">. c #34CC70",
",. c #132417",
"<. c #36E36E",
"1. c #034C2B",
"2. c #26FC6A",
"3. c #03934E",
"4. c #15C351",
"5. c #36FC6B",
"6. c #A6FA99",
"7. c #16FC69",
"8. c #0E9342",
"9. c #0D8239",
"0. c #C3E1C3",
"q. c #1C8349",
"w. c #1EBB65",
"e. c #43D367",
"r. c #45E46D",
"t. c #147B3A",
"y. c #28FC74",
"u. c #25B357",
"i. c #077231",
"p. c #50DC7B",
"a. c #167345",
"s. c white",
/* pixels */
"                                                                                                                                ",
"                                                                . X o                                                           ",
"                                                    O X O O + @ # $ # # @ @ . X O                                               ",
"                                              O + . @ # @ @ @ # % & * & & % $ $ # . = o                                         ",
"                                      O = . + - @ $ $ $ $ % % % ; ; : : : > ; ; * , < @ .                                       ",
"                                  O - @ $ , & & & & & ; 1 1 & & ; : 2 3 4 5 6 7 8 : & % # @ . o                                 ",
"                              O - @ , * ; 7 6 6 : 8 9 0 q w q e q 9 r t y u i 4 5 5 9 > & $ < . X                               ",
"                          O X - , * ; 6 2 2 r p t a s d f f g d f g h s g j k l u i i z : & , % < x                             ",
"                        O - % * > c q v b t a f n d g m l M N B p V u a a g C Z d m a A S > * & , < .                           ",
"                      . @ , ; S t D F G s C n m u A p 5 5 6 H 7 : 7 6 S 5 q p M l j J f u v : ; & % # .                         ",
"                    . < & ; S r N F g n n m A K S > ; ; & & & & & , * ; ; ; > S L t a n P a v : : & $ # x                       ",
"                  = # , ; c r A a k Z f t 4 8 ; * , , , $ $ $ $ # < < , , % & & ; : 4 N g Z k I : ; , < # .                     ",
"                O - % ; 6 5 B U Y T h K 8 ; & , $ # # # # # # # # R R # # # < $ % * ; : w a T E w : * $ # # - X                 ",
"              O - , ; 6 c t g W C B 5 > ; & , $ < # # # $ $ < # # R Q R # # # # < < $ & : 4 a E g v ; , % $ # @ -               ",
"              - % ; : c A U W f t 8 ; & , , $ $ $ $ % , , & , $ < ! Q Q ! # # # # ! # $ * : S t ~ U ^ * , , $ % < X             ",
"            O @ , ; S A g W f p 6 ; , % $ $ , , , & & ; ; ; ; , , $ ! R R < < # # R R # , & ; 8 B E / ( & , , & , -             ",
"            . % & H t s ) d t c > , $ < $ % , , * ; ; > 8 H : ( ; , $ ! Q $ $ # < ! R # * , & & > B n N > & * ; * $ =           ",
"          O @ & > e y E T A 6 H 7 * % $ % , & 1 ; _ : : z B 5 r S ; ; % ! $ , $ $ $ < $ ; % , , ; 5 a E I : ; : : , .           ",
"          . % > 5 B g ` h 5 ; & & * % % , & > > : : 6 2 c y 4 4 v : : ; # $ 1 , % & & * ; , , % & > v a f L 7 6 6 * < .         ",
"        X $ ; S t g W k K > , , $ # % , & ; : z ' 4 q r r A h A ] 0 : ; [ & & & ; _ _ * , , , $ , * : w g m q 5 L : % @         ",
"        - & > S y J Y t 6 * $ < # $ , * ; > : 6 4 { A A a s j l y B 6 c 6 7 & & ^ H : ; & & , , , , & 8 N j a p b 6 & # X       ",
"      O < ; : p g ` l 5 ; , # R # $ & ; 8 S S c 2 r } ] a | Z  ...X.8 w q 5 > & o.5 8 > ; & & , , , & > v O.d l ] v ; $ =       ",
"      . % & 6 A d d A 6 * < # R ! $ & : 6 +.t { p A F F a g @.U 8 q 8 I M b H & > c 2 8 : #.* , , , , & : t P P g N : , .       ",
"      . % 1 4 l W $.K 1 , # ! ! ! $ & H K t q t y ] M O.N %.a s q O.w ] O.D z ; : b c 2 7 : &.& , , , , ; *.h =.d M : & @ O     ",
"    O @ % ; w g Z u S & $ # # # # < , & ; -.%.H > 0 l a e ; > w ..g a ] M ] ..> 9 D w 5 2 6 : ; , , $ % * S l ` ) u 6 & @ O     ",
"    O @ % > V d E A > , # # # < # $ , , , ; ; ; > 8 p ' ; ; ; %.z ' F I 9 y I 9 ;.D A 5 2 2 : &.& , , , & > p J W a 6 & # =     ",
"    O @ % 9 M P j K ; % # # # # # $ & , ; 8 v p B p y 5 ; ^ O.9 :.i a >._ t B A m a ] K 3 2 6 _ ; * * , & > w  .,.A 6 & # =     ",
"    O @ ; b ] P a 5 ; $ < # # # # # $ & : v p ] D } %.6 ( X.y J g A w <.o.t e > N s M N b p 6 : : > , $ , ; z m ` A 8 & $ =     ",
"    = % > 4 a 1.m S & $ < # ! R R R # , 2.v A D b ..r 4 u A K u l 3.H 8 D ^ & : w m $.h m b 2 > ; & , # % * S O.d t : * $ =     ",
"    - & 6 4.u j M 8 * , < # ! R # % * 8 2 5 e A l O.N ..S v m n J g S r M A > 8 e 1.` n G w 2 > &.& , # $ * S a f K 8 & $ =     ",
"    @ & 6 w D E V 6 , $ R R ! # % 1 5.7 6 8 8 w g O.] A v y J @.@.T s ] g 0 ; ; K J 1.j O.w 2 8 H ; $ # $ * H D f v ; & $ =     ",
"    @ ; 3 v V T A 8 , # 6.! # % & > : ..t 9 z $.g o.<.6 4.f @.@.@.@.` h y K z <.I <.z K N v 7.9 ; % < # $ & : D k q ; & $ =     ",
"  O < ; 2 7.a T N 8 , # # # $ , * <.8.h m i S 5 <.; ; 9.k n @.@.@.@.` l N u M y j O...N w 2 7 ; & & # ! # , 8 B U 9 ; & $ # X   ",
"  0.$ > 6 5 a n N 8 & $ # # % ; H 4 t U j J J g 9 ; D P } P @.@.@.@.J N u D a s s I 4 3 c : ; > [ R Q ! $ & 6 N g 9 ; & $ # x   ",
"  x $ ; : 5 F j ] 8 & $ # < , ; : r V y f Y T q.; H U O.w.$.Y @.@.` g A 5 p b p D t 4 c 8 _ [ # R ! # $ , 1 S M $.9 ; & , $ x   ",
"  X < & > : A | l S * $ < , ; > H 5 5 } G l m ..* : I H u F a g n C l A b ( ; 6 5 D b 4.S , # R ! # # $ % 1 S m g 9 ; & , , x   ",
"    # , ; : p C O.z ; % $ * * > : 6 2 v N ] ] p e.z ; ; S N q I s g ] <.* & H N y ] I 3 6 ; % % $ $ # # % ; 5 u $.9 ; ; & , x   ",
"    @ % ; : 4 l s q ; , % $ , > #.: 2 5 b ] F u m M } q <.O.e c >.] C a * 5 D t I K z : r.> ; % < # # < , > K k a 6 > _ ; < O   ",
"    - $ & > 5 u n p : & $ $ > ; ; : 6 2 3 I M l u 0 a A o.t O.K 7 ( %.} 8 t p : <.<.: > ; , , $ # # # $ & H A C B 2 6 : & @ O   ",
"    = $ , ; 2 b n a S * $ % % , & ; : 2 c 4 O.] o.( h 3.i v k s t r.<.> %.] t > 8 5 q 8 8 r.* % $ # # $ 1 S u C t w 2 8 & .     ",
"    X # $ & : 4  .m q ; , % % , & ; #.: 6 L O.t ( ( M s ] y u f l / K e %.m F D l m D 5 6 _ , # R ! # % ; K m k t r 2 > , x     ",
"    O @ $ & : 9 a E t > & , % , , & 1 &.: b p r > ; q a ] i H w q U ,.j f l ] ] A t V u K ( & # 6.! $ & 6 B f N I c 6 ; $ =     ",
"      = # & ; 8 ] Y O.*.> & , % , , & _ : S 7.c 7 > H N A q : : : t.@.f m s F A t c S <.q H > * $ < % ; 5 l g p c 2 : , . O     ",
"        . , & > I l d N > & , % , , , & : : 8 6 H X.> I 5 *.9 5 q O.d f F A B 5 3 6 : _ ; & , , $ % ; 6 t E $.p q 6 ; $ =       ",
"        = $ , ; v A P g v : * , % , , , & ; > : ; 4 ; 6 > 8 2 3 B D m F l I w c 4 6 _ ; * , , , , ; 6 p k k y i p 7 , -         ",
"          - , & 6 r l T a 4 : & % % , , , & ; ; & S 1 & $ & : 6 w p t r 4 q c 4 2 : _ & , , , , & ; 5 9.W g s $.K ; . O         ",
"          = $ & > 9 B l J u 5 ; , , % % , % * , % > * , ! # ; > S { c 2 2 5 6 : : ; * , , , , & ; 6 B ) n | g A ( < =           ",
"            6.% & <.v v a C B 7 * & & $ $ $ < # $ & $ * ! R % ; > q e 8 6 6 y.; ; & * , , , , ; 6 t C ) | g u.> $ .             ",
"            x $ , ; 5 6 v m E B 8 > & , $ # # R $ % $ * ! Q ! * & ; e #.: 7 : ; , , , , , & ; S t k ` n l ' ( % - X             ",
"              . $ & : : 6 q i.f A 5 > * , # # 6.# $ < & ! Q Q # & , * ; & & ; & & , , & & ; 6 t f ` j N S ; , < .               ",
"                . $ ; ; : 6 q U n a 4 : & % $ # # < < , # R Q R < # < ; & , % , & & & ; 7 5 B j E y q ( ; & $ - O               ",
"                = < & & ; : : w k ) a z > ; * , $ < # , % # R R # # # $ & , $ $ & ; ; 6 K h Y s ' H : ; & % - O                 ",
"                  . $ , & ; > : q s Z j y 4 : ; * & % , * , $ # < $ % , & & & * ; 7 z A U Z a 5 6 : _ ; , < X                   ",
"                    . < $ & & > 2 q s J Y 8.t v 9 > ; ; > & & , , & & 1 ; : 8 9 K A h n n s A q 7.6 ; , $ .                     ",
"                      . # $ , ; : 6 v l $.j U l M p v q S 6 6 7 8 : S 5 S 4.:.m f Y ` j G A 5 6 > ; , < - O                     ",
"                        p.@ # $ & > > v b i a E E j $.a a :.V V B N M l O.g ) T Z ) C 9.A c 6 ; , % @ . O                       ",
"                          o x @ $ , & : 6 3 4 b l a.j J J C f j E d j s U 3.N p w q 9 H > ; * , @ . O                           ",
"                              O . # $ & > : : : z D y 3.3.y ] t p w t p 4 8 : _ _ ; ; ; & % < . X                               ",
"                                  = - < % & * 1 * : 4 p D I p *.6 : : : > ; ; ; ; * & , , $ - =                                 ",
"                                      O p.< , , , % & > <.4 2 6 6 ; ; & & * & & & , $ $ @ . O                                   ",
"                                          = . # # # # < % & ; > ; & % $ < - @ # @ . . x O                                       ",
"                                              = = = = = . x @ < $ % $ @ - O o O O                                               ",
"                                                            o X X x x O                                                         ",
"                                                                                                                                "
};
