/* XPM */
static char *result[] = {
/* columns rows colors chars-per-pixel */
"64 64 145 2 ",
"   c #002466",
".  c #2E7C57",
"X  c #4BB973",
"o  c #53D183",
"O  c #2C8A5B",
"+  c #99FB95",
"@  c #94FD89",
"#  c #A6EDA1",
"$  c #AAF3AC",
"%  c #A6F49D",
"&  c #89FD85",
"*  c #79FD83",
"=  c #69FD7A",
"-  c #75FD7A",
";  c #56FD76",
":  c #47F470",
">  c #28FC74",
",  c #38F477",
"<  c #57F575",
"1  c #36F469",
"2  c #25F469",
"3  c #9AF198",
"4  c #16EB62",
"5  c #0AD35E",
"6  c #0AC35C",
"7  c #15C35E",
"8  c #13BB59",
"9  c #17D362",
"0  c #26D35E",
"q  c #36E36A",
"w  c #16DB60",
"e  c #15E360",
"r  c #A9ECAD",
"t  c #17F370",
"y  c #15C351",
"u  c #08B34F",
"i  c #13A251",
"p  c #108B4A",
"a  c #0E7B40",
"s  c #0E6B3D",
"d  c #035433",
"f  c #0F623C",
"g  c #105C38",
"h  c #0E6332",
"j  c #1C8A4A",
"k  c #13B357",
"l  c #039C4E",
"z  c #1B9B51",
"x  c #119C50",
"c  c #0BE46D",
"v  c #0BF46D",
"b  c #16CB60",
"n  c #1CAB54",
"m  c #038B47",
"M  c #0E733E",
"N  c #0D6A31",
"B  c #035C35",
"V  c #13AA50",
"C  c #0C5329",
"Z  c #03944E",
"A  c #25EB6A",
"S  c #36EB69",
"D  c #114B2F",
"F  c #0AA34F",
"G  c #0C4320",
"H  c #0F9341",
"J  c #153325",
"K  c #25C357",
"L  c #A7FC91",
"P  c #B9FD97",
"I  c #66F476",
"U  c #25F376",
"Y  c #173B29",
"T  c #1C6B39",
"R  c #C3FD99",
"E  c #36DB62",
"W  c #11442D",
"Q  c #0ACB5C",
"!  c #093B24",
"~  c #18DB6D",
"^  c #0BE25F",
"/  c #037B3D",
"(  c #0F8346",
")  c #26DB60",
"_  c #09BB51",
"`  c #133218",
"'  c #47FD72",
"]  c #1C9350",
"[  c #47FD7C",
"{  c #25CB57",
"}  c #47F47F",
"|  c #16FC6D",
" . c #17F462",
".. c #8BFC93",
"X. c #0B3323",
"o. c #25E369",
"O. c #0AEB6C",
"+. c #1C7B42",
"@. c #092B1C",
"#. c #03733C",
"$. c #45EB75",
"%. c #0D8A3A",
"&. c #141B16",
"*. c #1DBB5C",
"=. c #0D5B2A",
"-. c #43D467",
";. c #0AF361",
":. c #071B0D",
">. c #36DB70",
",. c #131210",
"<. c #26CB6A",
"1. c #46E371",
"2. c #09AA4E",
"3. c #039B42",
"4. c #1B5B3A",
"5. c #119450",
"6. c #152B1E",
"7. c #143A1B",
"8. c #1C834A",
"9. c #0D833A",
"0. c #2DB455",
"q. c #1B6239",
"w. c #0ADB5E",
"e. c #0D7A33",
"r. c #39EB77",
"t. c #1BA254",
"y. c #16FC63",
"u. c #34D260",
"i. c #34CA58",
"p. c #0BFD6C",
"a. c #63E38B",
"s. c #036B3C",
"d. c #034B2B",
"f. c #26FC6A",
"g. c #115336",
"h. c #85F57D",
"j. c #18EB6E",
"k. c #15D252",
"l. c #2EA261",
"z. c #2B925B",
"x. c #1DB35A",
"c. c #1D7341",
"v. c #142318",
"b. c #B6FBB0",
"n. c white",
/* pixels */
"                                                                                                                                ",
"                                                                  . X X                                                         ",
"                                                    . o o o o X O + @ @ @ + # X .                                               ",
"                                          O o o o # $ % @ @ @ @ + @ & * = = * & + # o                                           ",
"                                      o % + & & * * & & & & & & * * - = ; ; ; = = - & # X                                       ",
"                                O o % & - = : : > , : : < < < < = = = ; 1 2 2 , , < = = & # o                                   ",
"                              X 3 * - < : 2 4 5 6 6 7 7 8 5 9 9 9 0 q , 2 w e 4 4 , , : < * @ r X                               ",
"                          O % & = : t w y 8 u i p a s d f g s s s s h j k l z x x w c v v : = & @ r                             ",
"                        o + = < t b n m M f N B B a M V k 6 6 y y 6 8 u M a p g C h Z w 4 2 : = * & % .                         ",
"                      r @ - < t e 8 n l M g h m n b A : < < < < < < < : S A w 8 p B D j F w v : = - & #                         ",
"                    X @ - < 2 w k l M d G H 7 A : = - * & & & & & & & & - = < : A w Z h B Z w t , = - & #                       ",
"                  O 3 - < 2 v 8 p B J M K 1 < - & @ L P P P L @ @ @ L @ @ & & & - I S w H g j w U : = - & #                     ",
"                O % - < U t 8 M Y T k c < = & @ @ L P R R R P @ @ @ P P @ @ @ L + & - < E i W T Q q ; I * @ #                   ",
"                % - ; , t 8 M ! M K : - & & @ @ @ @ @ P R R R @ @ @ @ P L & & P R P L & = : 5 a B u , < - @ @ r                 ",
"              X @ = < A u M J j ~ < - @ P P L @ @ & & @ P R P & & & @ L L - * P R R R L & = : ^ / N w , = & & @ #               ",
"            O 3 - ; t k M J a ~ < * @ P R R P & - = = = * L @ * - - - @ P * = L R R R R L & = < ^ p ( ) = - - & @ #             ",
"            % - ; t _ ( ` T 7 : - & @ @ @ L P @ = ; ; ' : < ; < < = = * P & = L R R R R + @ & - : ^ ] l < - - * & @ #           ",
"          X & < t _ a W G _ : = - < * * - - - - I [ , , t 5 A w t < < < P @ = @ L L P P & & & & & : y s { ; = - = - @ O         ",
"          % - : 4 F B Y n : * @ & ; ; < - ; ' 1 } , | |  .Q k 5 k A , 1 L L < & & L P L = - * @ @ * : F M E [ ; < = * #         ",
"        O ..; , w M X.p A - L P P L @ & - ' , 2 o.O.w 5 k i z k i n 2 o.@ L < - = @ @ @ ; = - L R @ = E a Z , , , , = +         ",
"        3 * < t 8 C B 7 ; @ P P R R R P @ = ' t v 6 F i ] z ( p Z m A ) * & = = ; & & @ < ' - L R + & : 9 h w 4 t 1 ; & X       ",
"        + - < c +.@.n : * L R R R R R + & = 1 | | w n l H a a s g #.Q 4 < & = ; $.I & = ' : - P P @ & = $.H a F |  ., - #       ",
"      O + - < n ! h Q < & L P P L @ @ & & = ) _ 6 6 i x x a g Y W %.w e w S < ; , : < , , ' * @ & @ @ * < w h p w 5 , = + .     ",
"      o & - o.M &.( A = @ L P L L @ * < < < t 8 Z %.x j a Z M &.#.o.A w Z n A , > e  .| 1 , = = - & @ & = t p d p i ^ I @ X     ",
"      o & : k f X.V : * P R R R P @ & - = < q k w ) *.z s Q q z Q K 8 w m x Q 1 e k 4 | | t , ; = & @ @ & : 8 X.d ( 7 ; & X     ",
"      3 - o.z f =.7 ; @ P P L L L & * = = ; : t $., , n Z A < -.4 8 M %.z i Q t 8 i k ;.4 ;., [ = * & L @ ; w B :.B 8 < & o     ",
"    X ..< 4 x g a A = & @ @ * = = ; = * & - , 5 p l k V A : ~ >.Z t m 6 4 V ~ b ] x n 8 Q ;.2 , = - L R L - A M ,.C 8 ' * #     ",
"    o - 1 6 i d m S = & @ @ & & L L L L @ * S F i F b c : $.u p #.F l b 2 V 8 z +.a x i n 6 2 , < & R R P * S m ,.d 7 < * $     ",
"    3 = 2 5 V d H : - @ + L L L L L @ - = , v 8 k 8 b b <.F Q l h ] 9 , ^ 1.: V s #.x ] p 5 v , - P R R P * : 8 ! d w < & +     ",
"    ..< 4 5 8 W _ < & @ L @ * = = < 1 2 | | v v 6 h j 2.A Q p g D M A ^ 3.$.S w j s p M F 8 ;.I L P P P @ & < _ @.M o.: * $     ",
"  . & : | v n Y 6 < & L L @ & - = [ 1 | 5 _ Q 2 F T p 8 8 p D ,.,.` / H x ^ : q 4.` f 5.i 5 v : = * @ @ @ & < 6 W p o.< - #     ",
"  o * : t 4 ( G 6 < & @ @ @ & - ; , e 6 M g +.o.b E < >.8 =.,.,.,.,.6.+.a ) : $.M 7.! m n ^ ;.8 $.* @ @ @ & ; 6 W k 1 ; - o     ",
"  o & < , 4 m W 6 < & @ @ @ & - < 4 x m 8.D ,.! k , : 9.X.D ,.,.,.,.6.z Z u ;.6 A 6 a ( k 8 E ; = - * @ @ & < 6 s K ; - * #     ",
"  o & < , 4 ] g 6 < & @ @ @ & * = v 5 m ( s W D 0.< 8 f Q g ,.,.,.,.D p Z Z z s 8 6 Z F Q S : 1 < * @ @ @ * < y s E = = * #     ",
"  o & = : t F B 6 < & @ P R L @ = 9 n n i z a M 1.< ) p K V q.,.6.6.Z 6 ^ F m a 4 4 w.2 U , : * & & @ L @ * < 8 h q < = * $     ",
"    @ = [ 2 6 f 8 : & P R P @ = : 2 4 n i i p Z K w 2 < ) 6 Z ( Y s V ^ 1 : t 8 8 8 v , < & & & & L L @ & = 2 H e., ; I & + o   ",
"    + = < 1 6 =.m S - P R P + = r.A  .u i i x Z Z a 8 v 1.a O.) M M t.< = $.0 n i Z S * @ @ L @ * & * & & = t H Z 2 ; - * @ o   ",
"    + - = , 5 p a A - L R P & S : , y.w _ n l s i E t.k q 3.%.t S n ( u.E V Z i 6 9 , ' < ; ; ; ; * & @ & = A a Z 2 ; = - & o   ",
"    $ * = , 2 z h w ; @ R @ = = ; , | v ;.Q F m 6 , n m 8 6 M Q 0 e r.o.z 9 S i.2 , , < = = * @ L L P P @ ; 7 q.l , ; = - & X   ",
"    # & = : , 8 g 8 : & @ & & - = [ , | p.A m i w $.j ( i i M +.n 1., 9 j *.9 b k b ^ 2 1.; * @ L R R P & : n q.8 , , < = % .   ",
"    X @ * ' , 9 q.p A - & @ & - - - < U | ^ F k o., n s a ) 9 w ( C j M Z ( ( a s F A < - & @ L R R P @ - A ( N w t , < - a.    ",
"      # * = < e Z g w < & @ @ & @ * , , t ;.A v , 2 A l n 5 t A D ,.g s s.p Z x 8 8 y 1 * @ P R R R P & < 7 s Z v v 1 < & o     ",
"      X & = < 4 5 =.p $.= & @ P P - [ [ , < < < < 2 < $.2 ^ u V D d.M a a j z k Q 2 1 = & @ @ L P P @ * 1 n s.5 | | < = % .     ",
"        + * = 1 c M W 9 < & L R L - = ; = & & * = 4 < * = f.u i z ( x a Z i k 4 v v , = @ P R P R L & < K s 2.4 | , ; * #       ",
"        r & = : A Z C a E = @ P + - - = @ L L - = r.= & * : A k m l Z V p i 8 v | v , ' = @ L P L @ = o.p M 8 4 v , - @ O       ",
"          + & = S k H g.V : - @ @ & - * P R L * - < : @ @ < : v n k u k 8 6 4 e 2 , [ ; = - * @ & - 1 V D n 6 4 ;.< & r         ",
"          # @ - < 8 9 p a w < * & & & @ P R L @ * = : h.P * < , j.k O.k.Q ^ t , < = = - - * @ & = : k D ( k 8 y t = 3           ",
"            # & ; ;.2 w ] H e : - & @ L R R L P & & ; - P & = ' : ) 1 S 4 ;.2 < = & @ @ @ & & - < 7 T N z l i ) < % l.          ",
"            z.+ = , , t w M m ^ ' = & L R R L R L L = = P @ = ; = ; - @ = 1 , ; = & L R P @ * < ) M D M p x 8 < 3 X             ",
"              # & < [ , , w M a ^ : = & L R R R R L * = P L * & - * @ P L - = = - & @ @ @ - < ) a X.g q.Z 9 < & r               ",
"                % = = < : , 8 M / 8 , = & L P R R P & < @ P @ @ & @ P L P P @ & & & & * = : K M 6.C H x.1 ; & % O               ",
"                o & = = < < ^ 6 q.G F E < - & L L L @ - * P L @ @ @ L R R R P @ * - = < o.k M d H 8 t < = * + O                 ",
"                  # & * = = < 4 k d X.p w S < - & & & & * @ L @ @ @ @ L P L @ & - < t K M C ( 8 t < = = - @ #                   ",
"                  O % @ & = = , c ] s g s Z w A : < = = = & & & & & & * = < I : A b V C T _ 2 , < < = - & r                     ",
"                    X # + & - I [ ) l l j B s H _ w A S , < < < ; ; < : 1 w K n ( s M p u  .t , , < - + r .                     ",
"                          # @ & = : 4 e Q _ m c.g h a p u 8 6 6 6 6 6 n x s B 7.v.d j k 4 2 1 < = - + l.                        ",
"                            # @ & - < , 2 2 w F Z j s M d d f d q.s f N h s / H Z 3.F 8 2 < < - * % X                           ",
"                              X # + * < : [ < q 6 8 V F 8 6 6 _ 8 6 6 c o.q : 1 , : : < = * & % o z.                            ",
"                                  O # & = = - = : A e 5 9 | 2 , } < : < < < < < ; = = * & % o                                   ",
"                                      o @ & & & & - : , f.2 2 , < I - = = = - - - - * & % O                                     ",
"                                        O # # # + b...& = < < < - * * & @ & & & @ + % # O                                       ",
"                                                O . . X # + & & & @ # o O X o o X l..                                           ",
"                                                              X o o .                                                           ",
"                                                                                                                                "
};
