/* XPM */
static char *result[] = {
/* columns rows colors chars-per-pixel */
"64 64 134 2 ",
"   c #002466",
".  c #377D5B",
"X  c #33B76B",
"o  c #A9ECAD",
"O  c #98FA95",
"+  c #47CF75",
"@  c #9AF098",
"#  c #88FD82",
"$  c #94FD88",
"%  c #75FD7C",
"&  c #8AFD8B",
"*  c #69FD79",
"=  c #56FD77",
"-  c #56F574",
";  c #47F475",
":  c #26F468",
">  c #25E368",
",  c #26D45F",
"<  c #0BC35C",
"1  c #0AD364",
"2  c #47FD76",
"3  c #35F469",
"4  c #26DB60",
"5  c #25C357",
"6  c #15BB51",
"7  c #15B355",
"8  c #039C4E",
"9  c #119C51",
"0  c #03944C",
"q  c #108B4A",
"w  c #157B44",
"e  c #1B934A",
"r  c #1B9B4A",
"t  c #14AA4F",
"y  c #44E86E",
"u  c #25F376",
"i  c #38F477",
"p  c #17F368",
"a  c #038B45",
"s  c #157341",
"d  c #0A633C",
"f  c #096331",
"g  c #115C38",
"h  c #1B5B33",
"j  c #114B2F",
"k  c #035333",
"l  c #0F442C",
"z  c #035C35",
"x  c #096B3C",
"c  c #156B3E",
"v  c #17CB60",
"b  c #15D358",
"n  c #16E361",
"m  c #16EB62",
"M  c #46D67E",
"N  c #2D9A5B",
"B  c #25EB69",
"V  c #09733D",
"C  c #034B2B",
"Z  c #14A251",
"A  c #038343",
"S  c #0AA34F",
"D  c #0BDB66",
"F  c #115436",
"G  c #18EB6E",
"H  c #37EB69",
"J  c #146A32",
"K  c #0ADA57",
"L  c #0F3B24",
"P  c #15C35F",
"I  c #36FC6B",
"U  c #16AB5C",
"Y  c #108347",
"T  c #A7F09E",
"R  c #A5FC8B",
"E  c #B9FD97",
"W  c #A7FB98",
"Q  c #0E331F",
"!  c #C3FD98",
"~  c #137232",
"^  c #16BB5E",
"/  c #0E5329",
"(  c #1B432A",
")  c #0ACB5D",
"_  c #34E369",
"`  c #097B3E",
"'  c #37EB77",
"]  c #17D366",
"[  c #0BEB6C",
"{  c #23793F",
"}  c #79FD8B",
"|  c #35DB62",
" . c #141B16",
".. c #136232",
"X. c #14623C",
"o. c #09B34F",
"O. c #15C351",
"+. c #78F07E",
"@. c #56EA74",
"#. c #18DB68",
"$. c #0D231C",
"%. c #26FC6A",
"&. c #68FD83",
"*. c #081B0D",
"=. c #11934F",
"-. c #47E067",
";. c #0A130D",
":. c #0AF366",
">. c #34CA5F",
",. c #35D35F",
"<. c #26CB57",
"1. c #0B4320",
"2. c #0F2B1D",
"3. c #43D763",
"4. c #131210",
"5. c #37E376",
"6. c #36DB71",
"7. c #65F075",
"8. c #25BA4F",
"9. c #15DB59",
"0. c #09AA4E",
"q. c #24B361",
"w. c #24A258",
"e. c #26CB68",
"r. c #36D46F",
"t. c #25DB71",
"y. c #0D8239",
"u. c #56DE70",
"i. c #18F375",
"p. c #0E9342",
"a. c #0C5C2B",
"s. c #25AC49",
"d. c #0BF474",
"f. c white",
/* pixels */
"                                                                                                                                ",
"                                                                                                                                ",
"                                              . . X X X o o O O + + X X O O @ + X                                               ",
"                                          + @ O O # # $ $ $ $ $ $ $ $ O $ # % # & @ X                                           ",
"                                    X @ O # % * = - - - - * % # & & $ $ & # % = * % & O +                                       ",
"                                . @ # % * - ; : > , < < 1 > ; 2 = * % # # % = 2 2 ; * % # O X                                   ",
"                            . @ O * - 3 4 5 6 7 8 9 0 q w e r t , 4 , y = * ; u : : i * * * & o                                 ",
"                          . @ % = 3 p 6 a s d d f g h j k l l l z x x c a v > > b n m ; = 2 * & M N                             ",
"                        . O % 2 ; B b 7 8 0 V k C h d 0 q 9 t 7 t t Z r a A 0 r e 8 S D i ; i = # $ @ .                         ",
"                      . @ % = 3 B 1 7 q V F j x r 7 < G B B u H H 3 B B 4 , < 0 w d c J t > p 3 * # $ O @                       ",
"                    . O % = 3 : K 7 s L k V 7 P p u - = * * % % * * * * = - I B D 7 q h F e b D i * # # $ X                     ",
"                  . @ % = i p D U x l Y 6 > u 2 = * * # # # & & # # # # * % % * - i D t Y h q S > ; * % # @ .                   ",
"                . T % * 2 G 7 V L x a < 3 = * % % % # & R E E W W $ $ $ # # # # % * - i D 9 c x , u ; * % # @                   ",
"                @ # * ; B 7 V Q d 7 B - * % # $ & $ $ $ $ E ! ! ! $ $ $ & & $ $ # # % * ; 4 r F x , i = * % $ X                 ",
"              o & = B 6 t V Q x < p = % # $ E E E R # % % $ E E ! R & & $ $ $ # # $ # # % - B 7 F ~ D i * % # @                 ",
"            . O * B 6 9 V Q x 6 p = * % & $ E ! E ! $ * * * R ! ! R % % % $ # % % $ $ $ & % = u 7 g V , = % # $ @ .             ",
"            T % - , t V Q f ^ p = * % # % % # $ E ! W * 2 2 ; R ! R * * % # * = % R $ W O & % = 3 7 g e ; * # $ $ T             ",
"          . $ = i m S / x 7 p = * * % % * * = = * $ R % i : B - E R * 2 * # * ; % W $ E R $ % * 2 > 0 c < - % % # $ M .         ",
"          @ % = i 4 x ( e B = % # % % - * * 2 i : i * % : 1 t G % % i : 2 % = : % E W R # $ % % * - ) r x _ % % % % & @         ",
"        . O % = p Z Q ` < - % $ W E $ # $ $ % 3 4 ) 5 ' v Z Y t 1 ] [ 4 i % = B % E $ $ # % * % # % i , { t = * * * % O .       ",
"        X $ % - t L F 6 u * # R ! ! ! E E E R % y < e < Z r A w 9 e U ) i % = _ % $ & & } = * % $ # * i t f | 2 ; = * % +       ",
"        @ & * ] f  .q B = % $ R W ! ! ! E $ $ $ % p t Y e w c ..V w q ) 3 # * y % # # $ * : = # R $ % - D ` e i 3 i = * T       ",
"        O % 3 Y j j 7 p * # $ $ & $ $ $ # # * - - b Z Z r Y X.X...F V o.3 # # 2 ; % $ # 3 3 - R ! W # * H 0 s , 4 i ; * O .     ",
"      . & ; < w j x P 2 % & # & & & % * * - - - H 0 r Z q 9 d X.L  .a S O.+.* 2 3 % # @.m : * E ! E # * i D q A r : i - # +     ",
"      @ % u ^ ` C r G = % $ # % * * - * # * ; B p #.r Z A w e Y $.t 4 > 0 ^ B 3 ; - u n ) B & ! ! R # % = B r F ~ , > ; # M     ",
"    . & - , r Y z 7 ; * # $ # * = i : %.3 3 = i 3 i ; > S V , _ t > J , r 9 7 p _ 5 ) < 6 - R E $ # % % * ; < ..j q S _ % O     ",
"    + % 3 O.S q V < ; % # & $ # % &.% # $ $ $ - O.9 8 < t 7 ; H v ' 9 V Z Z < D 0 S U < , % % % * % % # % - 4 { *.h =._ % T     ",
"    @ = B > ^ J e B = % # & $ # # % % &.* % } - P 9 0 1 y - -.Y ^ ^ t e n t S e ` 9 Z Z < m : ; ; - # R # = 4 e ;.l w > * T     ",
"  . & 2 : : 7 F q B * # & $ # % - ; 2 _ n p p :.n 6 ^ >.,.D <.r k 0 v P B , t x d a 0 q r b : H H # E E # * G r L $.A _ * O     ",
"  + % = i m A 1.9 B * # # & % * 2 i 3 u 1 S S < : O.f A n B a l 2.k #.n ) * 3.A X.......0 < m -.& E ! E & * : 8 2. .e i * $     ",
"  + % * i < a j t u * # # $ & % * * ; , Z r w x b 8 t 5 6 A 1.4.4.Q { e 0 ) n 1 X.X.X.q Z , - O E ! ! R & * u t L $.7 i * O     ",
"  + # * u b e l 7 3 * # $ $ R E E E # ,.a d L  .~ 5.; 6.7 h 4.4.4.4.2.X.9 #.; 9 2.j c r t 7.# $ E ! E $ & * 3 t L l < 2 % O     ",
"  + # * : n e k t ' * & R E ! ! ! E % 6 a X.X.j j | ; S ( ( 4.4.4.4.2.q e B i ) j L x q 7 #.* R R R $ $ # * 3 7 j x 4 = % T     ",
"  + # = i : Z X.t u * # W E ! E R - #.t e c X.X.0 = #.V A ..2.4.4.4.j A 9 < A 8.5 g w a t B ; ; * % & $ # * : t ( 0 3 * % T     ",
"  X # = ; : 6 z 8 p * # E ! R % | ) 7 Z a d J V 8 , H #.^ 7 k 4.4.1.t ^ t x V < , e 6 9.: > _ * * % # # # * : 8 h < = * % @     ",
"  X # * = : t x 0 B * # E W % 2 i , D 7 8 0 9 q =.x 0.3 ' r 7 t j V q.u -.4 ^ v n n p : > i i 2 = # $ $ % - B a w _ * * % +     ",
"    & % = : > V 0 4 = # R & % * ' _ 3 B 7 U Z w r #.7 S 6.s 7 w.w x ^ * @.v Z 9 7 - % # % * * % # $ & # * = B 0 ` ; = * % T     ",
"    & % = i > q ` 4 = # # # % = * % % y t 7 8 { t i 6 ` 6 Y q e.4 6 D ) r q Y e r.; - * * * * - % & $ $ % ; < s t i 2 * # O .   ",
"    O # = 2 i r f < i * % % % $ E W % 4 t ) t ` t i t V 0 e ..6.> i u r ] ' H [ i 3 2 ; _ : : ; = % % % * i 7 d 5 i = % # O .   ",
"    + & * = i 6 g 8 B * % % $ E ! $ ; K v _ ] , t.i Z V 0 B 6 D J < 7 a S r e r r.n > * &.- &.&.# # % % = B a X.< 3 * % # O .   ",
"    . O % = - n A a D i * # E ! E % 3 m _ % % % 2 B B P 7 ) #.{ 4.g X.d s w V w >.: ; % # $ W E $ $ $ % 2 O.V x 5 = = * % T     ",
"      o # * - : 8 j 7 i * # R ! R = 2 3 % # $ % - 5 % % b U ` j j ....c d ` 9 < - - - * # R E W $ $ # * p 7 k a u 2 = * # X     ",
"      X & * = i r j y.D - % # R # * 2 % R R $ % * v % # 3 v e q w d ....Y a Z 1 * & R $ $ R W ! R $ % - > q l ^ i ; = % O .     ",
"        O # * ; Z Y g t i - % $ % * * $ ! E R % # _ u.# ; [ Z q A V Y s 8 Z Z < ; % R E ! ! ! E R # * 3 6 h A i.u i = % @       ",
"        o $ % - t t a V D i % # % % % E ! ! W % # ,.- % 2 p 7 6 A r e q S ] Z Z 9.3 % $ E ! E $ & % - 5 w J v u u = % @ .       ",
"          @ # = ) n 4 J r D - * % % $ E ! ! E $ &.v @.% 2 i > - + ^ 7 Z 7 - - , : 3 ; * % $ $ & % = B p.F o.[ : u = % X         ",
"          . O * n B : 8 c r B 2 * % $ ! ! ! R W * B - % = = ; & W 3 4 6 o.; $ $ - - = * * % % % = B 7 V 8 1 : : u * W           ",
"            M % i i 3 4 a z 7 u = % $ E ! ! R R &.; = * * * = $ ! $ ; i B i # E W $ % % * % * = p 6 J V 4 m m p - # X           ",
"            X & 2 ; i i 4 V g 7 i * % $ R R $ $ % = * - % % % $ ! E # = = = % R ! E W # % * - > 6 x f 7 ) ) 1 3 % @             ",
"              @ * = 2 = i 4 f F 7 B - * # $ $ $ # % % = # # % $ E ! E # % * % # R R $ # % = B S J j e t Z 7 G * @ .             ",
"              . O * * = = H r F F 0 D i * % # # # % $ % $ $ & $ E E E R # % % % # # % * - B 7 x L g { q 6 B * @ .               ",
"                @ # # * % = 4 e / h 8 4 3 - * * % % # % # $ $ $ $ R W R # # % * * = - p < a x  .l x a ^ ' % @ .                 ",
"                . @ $ # % * i 4 e F g Y t D i 2 = * * % % # # # # & # # * % * = ; p 4 t V j z y.t 4 ' = % O .                   ",
"                  . @ O # % * i D e w X.x e 6 n G i ; - * * * * * * * * I ; ; B < 7 V j c t < 3 2 * % # $ X                     ",
"                        M & # * i D t S e V V ` e < , 4 G u 3 3 3 3 p B B 7 U r Y h x 0., i - * * % # T X                       ",
"                          M $ # * I n > D S 0 q h a.w Y r 9 t t s.t 9 a e d / ( x t < p i 2 = = * % @ .                         ",
"                            + @ # * i i i 4 < ) 0 Y Y z c c d d F j k F l L / X.V e , : i = = % # @ .                           ",
"                                @ # * = = * i > #.^ < 1 , 1 v 6 8.6 v v < 6 v v ^ , p 3 - % % O T .                             ",
"                                  M # % % # % - 3 > n d.: u - = 2 i ; = = = = = = * * % # $ @ .                                 ",
"                                    X @ $ O $ $ } * ; i i i 2 * % % % % % % * % % # $ @ X                                       ",
"                                        X   X M X @ # * = = * % % # # # # # # # $ O @ .                                         ",
"                                                    X + @ # # # $ @ + + + T T + + .                                             ",
"                                                          X + + .                                                               ",
"                                                                                                                                "
};
