/* XPM */
static char *result[] = {
/* columns rows colors chars-per-pixel */
"64 64 41 1 ",
"  c #00040C",
". c #02130A",
"X c #0B1B0E",
"o c #0C1D10",
"O c #142014",
"+ c #132112",
"@ c #142013",
"# c #171F16",
"$ c #020E08",
"% c #0F2110",
"& c #0C210F",
"* c #08140C",
"= c #05210F",
"- c #031C0D",
"; c #182018",
": c #020A06",
"> c #030403",
", c #082110",
"< c #052311",
"1 c #0C2412",
"2 c #032310",
"3 c #102413",
"4 c #142513",
"5 c #152514",
"6 c #192616",
"7 c #1D2617",
"8 c #122614",
"9 c #0A2412",
"0 c #0B2813",
"q c #061F10",
"w c #132715",
"e c #112813",
"r c #152714",
"t c #062610",
"y c #032711",
"u c #042410",
"i c #0D2812",
"p c #042811",
"a c #0D2713",
"s c #0A210F",
"d c #181F17",
/* pixels */
"                                                                ",
"                           .XXXXXX                              ",
"                      .ooO++++++++@@#X$  $                      ",
"                    .X@+%%%%&&&&%++@++OX*@#X                    ",
"                  *O+%&=---------=&+@;@@O+++OX                  ",
"                *@+%&==-..$$.$....-=%+@@@@++%+O*                ",
"               .O%&&==--..::>>::::$.--%+@@+%&%++X               ",
"              *@%&==---...$::>:::::::.--%++%,<&++o              ",
"            *o+%&==--..:>:$...----.*....-X%%,,,&++#             ",
"           *O+%&==-..:$..--===,<<,&==--...-,===,%%+#            ",
"          *O%&=--.$>$.--<<,11111111111,=--.*--==,%%+X           ",
"         *O%&=-.:>>.-=2%%333334444444311%,=-.$..=%,%O*          ",
"         O+&--$>>:.-<1133555555555555554311,-.:$-,,&%O#         ",
"        X+%=-.$>$-=,133555555555555565663331,=.$$-=<%++o*       ",
"       *O%%==.:$-=%13555555555155555557765541,=-$..-&%++o       ",
"       O+%%,-:.-=%33555555555538558555777655419,-$$-&%%++X      ",
"      #++%&*:$-211354455833335555335555777655431&-$.-,%++o      ",
"     X++%&.::-=%33138333311338553318555576555433%=.$-<%++O      ",
"     #+%=-:>.=%35555555581-9098583135585555554331,=.$-&++@q     ",
"     O%=-$>$--%556665555539-<99wwe19rr855555583331,-..q%+@@o    ",
"    X+&-.::-=%%5565553%3581t-y2t%31-581335338333531,-$-%+@+O*   ",
"   *+&-.$$.=%355645558838e,=tt--91125w,u9315%5345419=..%++++#   ",
"   O%=...$-=15666553913%188=2t=-1ei989--t11838155531<-.=+++%O*  ",
"  *+&---$.-1355465558111Xq%8&<9-1w0&=---9938511354319=.-1+%%+#  ",
"  o%<==.:.=1567776551tu=99-X12<9900,--.-9i1e3933434312..,%=%+@  ",
"  O%,=-$$-,3567775551t----..----t9p01..=ee<1&93333541,-.=<-%%+  ",
" *+%,=.:$-%35676553188-...-.>&t-ta11i-.&w1-2-91%+5553,-$---&%+  ",
" X+%,-.:.=14564338335r&.$.-..X8t-18t=--8e&-2t09&855531-..$-,&+  ",
" X+%=-.$.=145555555rr8%-=11t<.--.t----=09--ut985555531=.:>.-&+  ",
" X+&--.$-<145555533e9&Xu992-.$$.---.-tt=9--2u855555531=.>>..,+* ",
" o+===.$-,145558333119ia9-u<.-$>:$.-99-,<--=1r555555339-:>:.&+q ",
" X+===.$-<145555333ww1ew1999..:>>>$-----t=91r5385555339-:>:.&+q ",
" X+,=--$-<14555553rre11a9yt9=:>>>>>$$-,99iee5333555531&-:>:.%+X ",
" o+,==-$-<14555555re2-2a0909$.>>>>>>-9-<9ii11333355541<-:>:-%@. ",
" o+%,,-$.=135555558tu=9a0909..-:>..$.-<999,t9e38555541-.:>$-%O  ",
" *+%,%=$.=135555581typpi9--=-.-..-..----..,wrr5555553&=.>>.=+O  ",
"  O%%%=..-1355553399uu0e&->.-=.u=93-.-=-.-1rrr5555554%=.>$-&+O  ",
"  O+&%=..-9355553399<-19-:.--t-,t9XX$.----<err5555+11,-$:-=++o  ",
"  #+%%<.:-,143553399,8%&-.--%1-.tu...:$-..-te55655831=-$.=+++o  ",
"  X++%<.>.=1%1553333ew999--.-X.-y9<--=-<-..-955676541=.:-%+++X  ",
"  $O@%-$:.-&%455533553eX<--..X-<929t9899=,99185676531-..=%%+O$  ",
"   *O%-$.$.-%455438553e=-----9=ie=-9--1e%91855533+31=-$-=,%+O   ",
"    o+-.-..-134543555539t=<380911--=u=<e81,15555481%=.$-=,+@O   ",
"    *+--=-$-,1354355558e9u9rr&&&1<-uyt1e55555555531=-$.-=%+@o   ",
"     +===-..-s148355558533X5r,-381t=t<935555555553,-.:.=&++O*   ",
"     +&<,,-$.=,338565585551558-e55899=X9855555543%=.>$-%%%+O    ",
"     O%&&,,.$.=113565555553558,1355381,-%3333331%2-::-=%%+@.    ",
"     X+%%&%-.$-,134555566685583185553333,93833112-$:-&,,%+O     ",
"      @%+%+&-:$-<114555755655531555558855333311<-.$-<&&,%O*     ",
"      #+++%,-.:$-=,145565575358855555555553111<-.$-=,=&&+X      ",
"       oO++%,-$:$.=,13453565%5555555555543319=-$$-=,,,,%o       ",
"         #++%-.$$$.-,133135535555555554311%2-.$:.-===&%O*       ",
"          d@+%-...$$-=,%9134133333333311%2--.::$.---=%O*        ",
"           O+%,----.$.-==,119111111191s=--.::$$$.--=%O*         ",
"            #+%===---....-=-==,,&<===--.$::$...--&%+O*          ",
"             #+&<&<===.$$$.*..----...$:$$.--=&&%+OO*            ",
"              q+%%+&,,---...$$::::>>:$---<,%++@@O*              ",
"               o+++++,,==,==---..$.$$.--<<%%++@O*               ",
"                XXqOX+%,<<,,%,,,==------=,&%++O*                ",
"                     XO+%&%&%++%+%%%%%%&%%%+OX*                 ",
"                      .d@+++++++@@++++++OXq.                    ",
"                        $XOOOOOOOOO@++O*                        ",
"                                   *.                           ",
"                                                                "
};
