/* XPM */
static char *result[] = {
/* columns rows colors chars-per-pixel */
"64 64 137 2 ",
"   c #002466",
".  c #2C7B4E",
"X  c #3FAD73",
"o  c #A9ECA6",
"O  c #4FCD83",
"+  c #2D734B",
"@  c #3B9963",
"#  c #9BF098",
"$  c #98FA95",
"%  c #93FD8A",
"&  c #88FD85",
"*  c #75FD7C",
"=  c #69FD79",
"-  c #67F576",
";  c #56FD76",
":  c #47FD76",
">  c #47F475",
",  c #26F469",
"<  c #25E367",
"1  c #0AE46C",
"2  c #37F478",
"3  c #A6F49F",
"4  c #16E360",
"5  c #09C357",
"6  c #03A44E",
"7  c #15C35B",
"8  c #0FA250",
"9  c #1CA24A",
"0  c #57F475",
"q  c #17D362",
"w  c #18DB6D",
"e  c #25EB69",
"r  c #0AD35D",
"t  c #1BB358",
"y  c #0E7B3F",
"u  c #1C7A41",
"i  c #0E6B3D",
"p  c #0F623C",
"a  c #0A934E",
"s  c #16DB60",
"d  c #36FC6A",
"f  c #2C8A58",
"g  c #6BE183",
"h  c #25F376",
"j  c #0EBB53",
"k  c #149C42",
"l  c #0E733C",
"z  c #115437",
"x  c #035C35",
"c  c #1B6232",
"v  c #1C5332",
"b  c #11432C",
"n  c #0F3B25",
"m  c #115C38",
"M  c #0A8B47",
"N  c #28FC74",
"B  c #60DC88",
"V  c #0A8345",
"C  c #0B9C4F",
"Z  c #0EAB4F",
"A  c #0EB351",
"S  c #0E6332",
"D  c #131B12",
"F  c #104B2F",
"G  c #1B5B32",
"H  c #17F368",
"J  c #16CB5D",
"K  c #38EB77",
"L  c #36F468",
"P  c #1BBB5A",
"I  c #0F3424",
"U  c #0F231C",
"Y  c #0AEC6C",
"T  c #1CAB57",
"R  c #0E5329",
"E  c #0AF365",
"W  c #0ACB57",
"Q  c #37EB69",
"!  c #0A4320",
"~  c #078A39",
"^  c #37DC70",
"/  c #18F375",
"(  c #16EB61",
")  c #77F57B",
"_  c #73FD73",
"`  c #159342",
"'  c #35E367",
"]  c #45EB70",
"[  c #0D2B1D",
"{  c #35DB61",
"}  c #26D35D",
"|  c #0D6A31",
" . c #46E36B",
".. c #16FC68",
"X. c #26FC6A",
"o. c #168B4C",
"O. c #0ADB5F",
"+. c #36D35F",
"@. c #38FD76",
"#. c #37CC6A",
"$. c #36D36F",
"%. c #48D463",
"&. c #099240",
"*. c #26CB67",
"=. c #25BB57",
"-. c #159C52",
";. c #26B45A",
":. c #036B3C",
">. c #A5FA9D",
",. c #25C357",
"<. c #1BA256",
"1. c #57EA6E",
"2. c #131210",
"3. c #0A130D",
"4. c #4BDC67",
"5. c #1C7340",
"6. c #168349",
"7. c #36C468",
"8. c #33BA5C",
"9. c #0A4B21",
"0. c #26DB5F",
"q. c #33AE68",
"w. c #037B39",
"e. c #63EC7A",
"r. c #18EB6F",
"t. c #03B34E",
"y. c #0D5B2A",
"u. c #37CB59",
"i. c #53E36A",
"p. c #48CC68",
"a. c #1E7C4D",
"s. c #25CB58",
"d. c #093318",
"f. c #85F57E",
"g. c #68FD83",
"h. c #8AFD93",
"j. c white",
/* pixels */
"                                                                                                                                ",
"                                                          . X X o O X X +                                                       ",
"                                                  @ # $ % & & & & & & & % # O X +                                               ",
"                                                @ # % * = - ; ; ; : > > - = & & $ o O                                           ",
"                                      . O o # $ % * * ; > , , , < , 1 1 1 2 > - * * & $ o                                       ",
"                                    @ 3 & & * = = = ; > , 4 5 6 6 7 8 8 6 9 4 2 > - = * & $ o                                   ",
"                                @ o $ & * 0 0 2 , q w 1 e r t y u i i u y p a 7 s , d ; = & % 3 f                               ",
"                            @ g $ & * = 0 h s j k l z x c l i p v b b n b v z m M j 4 2 N = % % # X                             ",
"                          B $ * = ; : 2 , j l m b v i a V C Z A Z Z 9 M y S n D F G M 7 s : & % % % o X                         ",
"                      f o & * 0 > h H s A i b p C t J e e h K h h L , e s s P M i I U G a e - & & & % $ 3 f                     ",
"                    f # * = > : h w j i F i Z 7 Y L > ; - = * = = = = = 0 > > e 4 A l n v T 2 = & * & & & 3                     ",
"                  @ # * ; : Y r j l F i t e , > 0 = * * * % % & & & & & * * = ; > d 4 6 S R Z h - * * * * & o                   ",
"                f 3 * 0 , E W Z i F V 7 h > ; = * * % % % % % % % % % % % & & * = = > 2 s M v Z Q - * - 0 = & B                 ",
"              . # * : H 5 Z l ! S A e : ; = * * & & % % % % % % % % % % % % % & * * = = > 4 a m ~ ^ ; 0 > 2 = % X               ",
"            @ # * ; H 5 C l I i P / ; = * * & & & * * * & % & * & & & & % % % & * * & * 0 2 1 A G V Q > , , > * 3 @             ",
"            o & 0 , ( A l I i 5 , 0 * ) & & * * = = = 0 0 * _ = * _ = * & % % & * * * * 0 = 0 L A m Z 1 1 4 , - & g             ",
"          @ $ = > , W M F v P , ; = * & & * _ = 0 : > 0 L = * 0 - - - = * & % % * ; * * = * * ; , A i ` Z J 4 > * $ @           ",
"          o * ; > Y t S b t / 0 = * & * = = = ; 2 , , > ' 0 = 0 ] > > 0 > ) % % - > * * * & & * 0 e a v M 6 r , = & o           ",
"        @ % * ; , j l [ V e ; * * % % * = > { ] 2 4 r } 2 { ; 0 { > 2 2 > ; & % ; Q = * * * & * = d 4 a F u ` s > = $           ",
"        O & - h j l I | 7 > = * % % & * = ;  .J , 4 8 V J > 2 < Q L .., , > * * = : = = * * * * * = > s S b S W 2 = $ @         ",
"        # * 0 P a p I A H ; * * * * = = ; : 2 2 ..H C p i ^ s e s H .., ..X.- * - > : - = = * * * * = e a I v C 1 0 & B         ",
"      @ % - X.A o.I | e 0 = & % * = = L ' > 2 , 4 , 7 o.y t C a O.r , 4 s H 0 = - 2 2 : ; = = * _ * = > s i F a e ; * $         ",
"      o * > H j i [ 6 H ; * & & * = = : > 2 , Y > 0 ' > ] +.y l C J ..4 A W Y , , , s 2 > : 0 = * * _ = Q ` b o.e 0 * % X       ",
"      # = @.s y I c j > = & % * = > { #.$., , 5 T 0 = ; = > t < j A , N , Z j ( J s s H , 2 2 : * * * = 2 < i p 1 > * & O       ",
"    @ % - , 7 u U M H ; * % & * * * * * = : X., Q 0 = : 0 > 5 %.q a q 0 K 7 J 7 q A r r 4 e , > = * * 0 > Y &.c r > = & o       ",
"    O & ; , j i I T h = * % % % % % & * = 0 , 4 , ; ; 0 ` *.K =.J V 6 0 #.q Q 0 0 2 -.C 8 q , > = * ; 0 = 2 5 x ;.> = & $ @     ",
"    O * > < C p v 7 > * % % % % % % & - > { 5 Z A ' * - -.y y 8 s ;.' 0 < < - *  .#.y i C s , ; = * ) & = > s y a Q = & $ +     ",
"    # * > r 8 z :.Y ; * % % % % * - 0 , ..s J P { e H ] 7 P u V a < > ' 2 ' 0 0  .{ y y q @.0 = = & % & * 0 s a M ' = * $ @     ",
"    >.* > 1 C m y e - & % % % * = ; : X.H ( E , +.J P 6 q J 8 -.Z Y 2 r h Z < = 0 > 5 $.: ; = = _ & % % * = Y k u Q = * % # X   ",
"    o = > 1 C p C H = & % % & * = ; : h ...., h 0 +. .' H ,.b b b k < J <.6 0 1.K +.Z J < > = = * = = % & = , 9 l ' ; & % % O   ",
"    # * > e ` v Z h = & % & * = ; : : 2 , , O.r J Z e , h 6 F 2.2.b V l l ` > < 1 a | 9 q - * = = ; & % & = L Z l 1 = _ * & O   ",
"    $ * > , C ! Z h = * & & * = = > 2 2 H J P 6 8 7 , , H l 3.2.2.2.F ` K } 7 C 6 M a 8 Q ; = 0 = * * * & = K Z l < = _ = = O   ",
"    $ ) > 1 V ! Z h = & % % & * = : 0 0 > r ` P ' ] ^ J 4.R 2.2.2.2.2.S t &.y p M j t P q , > 0 = 0 0 & & = h A 5.w > = ; * O   ",
"    3 * > 7 6.z Z h = & % % & = > 0 0 q q V u  .- - a y Z F D 2.2.2.n P , , q 8 r , , , , N : 0 = * & & * = h Z i s 2 2 L & O   ",
"    3 * 2 J C S C H = & % % * : -  .Q > s J s Q 0 7.R V 8.b F b 2.n 9.0.q K L > 0 X., , , 2 > ; - & % & * ; , C p s H q > & O   ",
"    3 = < H j m a Y - & % & * * 1.^ - 0 2 4 e 0 > Z | r A q.w.C b I i a a C H > ; Q ( E .., h ; * & & & * ; e y m Z j 5 > * O   ",
"    o = , ..j G a s ; * % % & 0 > - ; q a y  .= > A P J 8 7 6 H a M p T *.e.- > r.t.J O...2 > > > - * & * > e i R a 8 q > * O   ",
"    B = , , 7 M y s > = & % = ; = > O.8 i 8 ; =  .*.) 0 s C r.r 4 V S V V - * > W 7 s > 0 * * & & % % & = > W y.p a C 1 ; * B   ",
"    O = > , 4 C G 5 > = & & = = ; , e Z 8 q ; = u.0 - Q , M q 5 +.{ ,.<.G =.' 0 e s Y H L ; * * & & & = ; , Z I p V 8 < ; & X   ",
"    O = 0 > h 7 p a e = = ; * = ; , E ( H H 1.; H 0 ' q > +.C C Z 0 +.i.,.K ] > e H e  .0 ; - ] 4.0 = - > e y F 5.a P , = #     ",
"    O & = 0 2 4 V i 4 2 ; * * _ = > N 2 X...J < ( 4 A 7 , < t A C > - p.> %.> - > ..r q Q 2 > = * * * = > W p l a.V 7 : * B     ",
"    + $ & = > , 6 b t 2 - * * _ = = ; > h r j ( ( 4 t 6 W W J 6 V y T 0 0.0 - ; X...W Z 7 Q > = * * * 0 H Z b p i C H = # f     ",
"      o & * ; h q z l s > = * * * * = 0 < { 4 , 2 } Y t J s H A A l G t M V =., ..X.2 > > 0 { { ; = = 0 7 | U n i =.; % O       ",
"      @ $ & = 2 4 V I Z h = * * * * * = > > 2 2 0 ' > j r 4 , H H s.A t l S M s ....h > ; = = = = = ; H Z d.2.n Z > & 3         ",
"        B % * : h 6 F S s 2 - * f.* * = - - > > 0 ] - 6 H , X...2 > 4 > J y C r , > > 0 ; = * * * = > 7 i 2.b Z ] & 3 X         ",
"          o & = N P p [ a 4 > = * & * * = = = 0 0  .* ^ L 2 2 h ; = 0 ; ; a C r , 2 > = _ _ * * * 0 e V U S t > * % o           ",
"            $ = 0 r a G b a e ; * & & * * * * = 0 > & 1.: : : : ; = = = = ] j , , > = = * _ * = 0 H A b S ;.0 * & % O           ",
"            B & - < 7 a R v A L ; * * & * * * = = > % * ; ; ; ; = - > = = = > L : ; ; = * = = 0 H P S S ;.] - * & 3             ",
"            @ $ * 2 Y s C p z A , 0 = * * * * * _ > % & * * * * * _ = = = - = - = * = _ - = 0 , j l | j Y L ; * $ @             ",
"              o & = , e r J V G A e > = * _ * * * ; % & & & * * * * * * * = - = = _ _ _ - : Y P i S 6 r X.: = & 3               ",
"                g * > 2 X.e r V S a 4 > = = * * & = % - & % & & % % % 0 & % * = = = = ; , e A S F y 8 W , 0 * % X               ",
"                f $ * - > 2 ..s &.v a s e > = = = = & 0 * % % % % % % * i.& * = ; > 2 H 7 V n U v y j Y ; * & >.+               ",
"                  o & & - 0 2 , s a b S a s Q > 0 0 = - - & & & & & & * 0 ; = ; > h 7 Z | I F l Z s L 0 * & 3 @                 ",
"                    o % & * = 2 , s a c ! l ` s e 2 2 > > = = = = = = = ; , h e W A i I I i a j H ; = * $ o @                   ",
"                      X # & & - > , e s M G F i M j r s s Y L h L L , e e 5 A M i G x y A 0.e > = * & # X                       ",
"                        . >.% & g.: 2 , 4 6 o.S F I b i u ` Z Z A Z C M a i m S y Z 7 H , 2 : = * & % o                         ",
"                          . 3 $ & - - > , , 4 5 ;.y G F v F b v i i i p R y a P q H , h h > ; _ * & # f                         ",
"                              X o $ & = 0 > : 2 , < J a l p p y y ` P 7 5 1 e , .., L L > ; = * $ o @                           ",
"                                  + B % * * - ; 0 ; >  .< 8 C 8 ;.5 ( , > : 0 ; ; 0 0 = * h.$ o @                               ",
"                                      O 3 % & * _ = * * - 0 Q 1 1 H 2 ; - * & & # O O B O f                                     ",
"                                          X O o $ & % & & & * = - 0 0 0 - * % >.f                                               ",
"                                                + O $ $ 3 $ $ $ $ % & & & $ # O +                                               ",
"                                                    f   + + .   .     X +                                                       ",
"                                                                                                                                "
};
