/* XPM */
static char *result[] = {
/* columns rows colors chars-per-pixel */
"64 64 142 2 ",
"   c #002466",
".  c #2E7C53",
"X  c #55D46E",
"o  c #A8ECA4",
"O  c #3DAC63",
"+  c #2D734F",
"@  c #2B8B55",
"#  c #65E37B",
"$  c #9BF097",
"%  c #8AFC94",
"&  c #78FD83",
"*  c #88FD85",
"=  c #93FD8A",
"-  c #57B95B",
";  c #69FD7C",
":  c #56FD76",
">  c #47FD76",
",  c #38F477",
"<  c #47F475",
"1  c #56F575",
"2  c #74FD7A",
"3  c #98FA95",
"4  c #46C46B",
"5  c #A7F39F",
"6  c #26F468",
"7  c #16CB5D",
"8  c #1BBC5A",
"9  c #0EAB4F",
"0  c #1BB355",
"q  c #27D35F",
"w  c #16E365",
"e  c #25E368",
"r  c #18F475",
"t  c #28FC74",
"y  c #36F469",
"u  c #15D358",
"i  c #0AC356",
"p  c #0FA250",
"a  c #097B3F",
"s  c #0A6336",
"d  c #035C35",
"f  c #0A8B44",
"g  c #16934A",
"h  c #149C4A",
"j  c #A5FA9D",
"k  c #38FD76",
"l  c #0AE360",
"z  c #0EBB54",
"x  c #0B9C50",
"c  c #0A934D",
"v  c #137B42",
"b  c #137340",
"n  c #13623C",
"m  c #104B2D",
"M  c #0E2316",
"N  c #0F4429",
"B  c #115436",
"V  c #115C38",
"C  c #68F47F",
"Z  c #25EB69",
"A  c #0BDB65",
"S  c #1C5332",
"D  c #093B22",
"F  c #143B22",
"G  c #0D1A10",
"H  c #0EB351",
"J  c #67F572",
"K  c #25F376",
"L  c #158341",
"P  c #156B3D",
"I  c #1B5B32",
"U  c #158A42",
"Y  c #1BAB57",
"T  c #1CA249",
"R  c #09331E",
"E  c #37DB70",
"W  c #68FD73",
"Q  c #27DB60",
"!  c #09733D",
"~  c #143320",
"^  c #0ACB58",
"/  c #17DB66",
"(  c #45E36D",
")  c #096A36",
"_  c #0C5329",
"`  c #26C35C",
"'  c #17F368",
"]  c #19844E",
"[  c #35DC61",
"{  c #136A32",
"}  c #26FC6A",
"|  c #36FC6A",
" . c #0BD265",
".. c #16FC68",
"X. c #17EB67",
"o. c #2B9A5D",
"O. c #03A44E",
"+. c #64EA6F",
"@. c #35E366",
"#. c #37EB68",
"$. c #0BF365",
"%. c #16C35B",
"&. c #57E36D",
"*. c #0BEB63",
"=. c #138B4D",
"-. c #76F578",
";. c #35C45F",
":. c #38EB76",
">. c #57EB6D",
",. c #146232",
"<. c #27CB5E",
"1. c #55DB69",
"2. c #45EB6F",
"3. c #36CB5E",
"4. c #AAF8AB",
"5. c #19EC76",
"6. c #36D36E",
"7. c #17D366",
"8. c #46DA62",
"9. c #48DB72",
"0. c #25BB58",
"q. c #099240",
"w. c #10120F",
"e. c #15DB59",
"r. c #37D35E",
"t. c #110D0E",
"y. c #45D460",
"u. c #0E2B1A",
"i. c #139C55",
"p. c #37CC6E",
"a. c #26A35B",
"s. c #66EC80",
"d. c #33AA5C",
"f. c #38A25E",
"g. c #75EB7F",
"h. c #34B352",
"j. c #034325",
"k. c #034B26",
"l. c #1BA255",
"z. c #B6F3B2",
"x. c #B4ECAA",
"c. c white",
/* pixels */
"                                                                                                                                ",
"                                                      . X X X o X X O +                                                         ",
"                                              @ o # $ % & * & & * * * * = o o - .                                               ",
"                                          - $ = & ; : > , < < < < : 1 ; ; 2 * = 3 o 4                                           ",
"                                      . 5 = 2 ; 1 < 6 6 7 8 9 0 q w e r t > ; & = = = o .                                       ",
"                                  . X 5 & 2 : y 6 u i 8 p p a s d f g h i q w < ; = = = j 4 4 o                                 ",
"                              . 4 $ * 2 ; : k 6 l z x c a v b n m M N B V v g w k C * = = = = = j O                             ",
"                            - $ * 2 1 < y Z Z A i p b S N D N N N F F F G M m v H , J * = * = * 2 = o                           ",
"                          - = & 2 : K z h L P I V S P L U h Y H 9 9 T h U P F R S h E 1 * * * * ; ; * o                         ",
"                        . j 2 W < Q 9 ! ~ ~ m P h 0 ^ Z Z 6 6 y , y y Z / A 8 g P m ! 7 ( ; & 2 1 > ; * o                       ",
"                      - $ 2 : t l 9 ) ~ _ b 0 ` ' , 1 : W W ; ; ; ; ; ; 1 1 < Z w H b _ ] [ 1 ; k , k ; = o                     ",
"                  @ $ * 2 1 1 ' z ! m L z Z K > : ; 2 & & * * * * * * * * & W : k , w 9 { P q < r 6 } | & = o                   ",
"                  5 & 2 J 1 <  .! P f 7 6 1 C & * * * = = = = = = = = = = = * & ; 1 > , / g I 7 / A ..y ; 2 3 .                 ",
"                o * W ; 1 y Y s ) 0 Z < W 2 * = = = = = = = = = * = = = = = = = * ; ; ; > w g P g p q w 1 ; 2 o                 ",
"              O = 2 : y 8 U F P i ' 1 2 & = = = = = = = = * * * 2 2 2 * = = = = & 2 * 2 W < X.H n I g 7 , : ; 3                 ",
"            @ $ & 1 ' 0 P ~ P 8 6 1 2 * = = = = * * * 2 & 2 1 J 2 ; ; 2 2 & * * ; 1 = * 2 ; > 6 H I B L Q t > & X               ",
"          o.5 2 1 ' 0 ! ~ _ 8 6 : ; 2 & * = = * 2 ; 2 ( ; ; 2 Q ; 1 1 ; ; 2 2 2 ; ; = = & 2 ; > K 0 I B O.6 , ; 3 -             ",
"          o 2 : ' 0 b F F 0 K : ; 2 ; 1 +.; & & 1 > > 1 1 : < 1 1 < < > > W ; 2 2 & = = & 2 2 W 1 Z h ) f Q , : & j             ",
"        . 3 C ' i x P F L Z 1 2 & * 2 J @.e < : ; < A q , > #.[ > < , | < 1 : ; 2 * = * 2 2 2 2 2 > w x s g #.: 2 = o           ",
"        $ 2 y $.7 p I ) %.y C 2 * * 2 2 : > , , < < ' U 9 ' 6 #., > 1 y , , < ; * = = = ; ; 2 * * ; , Q v P / : 2 * = o         ",
"      . * : k ' 8 ! F H K < J ; &.1 2 & & & : : : ; 1 @.g ^ 6 } y 1 1 > , t > ; = = * * 1 1 ; * = * ; y 9 d z < W & = o         ",
"      o 2 : r X.p ~ ! X.1 2 = = = & * = = = * ; ( 1 ; C 1 g l ' *.1 : ( < t 1 & = = J C y > 2 = = * 2 1 w =.=.e : 2 = o         ",
"    + 3 ; > 6 z n ~ 9 6 ; & = = * * = = * C 1 -.; 1 ; 1 y @.i 0 z ;.& ( :., < 2 = * < >.' : & * * = * ; , z s z 1 2 * o         ",
"    . 3 ; , 8 f m ,.<.> 2 * * ; 1.2.& = = = 2 ; ; < < : <  .7 0 x f -.1.3.< 2.2 = -.1 @., ; 2 2 * = = 2 > w P g < 2 * 4.o +     ",
"    - * : Q O.v F =.5.: 2 = = * 2 2 2 & * * & * & 6.0 8 < @.8 e =.3.1 < 2.; J 2 * [ >.( < < > C * = = * : Z g ! ( ; * = = 4     ",
"    o * < u 9 b N 0 y ; * = = & 2 2 ; ; ; 2 2 2 ; <.p p h 3.3.7.z < ; y < 1.( #.1 ( 1 1 q ' > 2 * * = * W , 8 s e ; = = * o     ",
"    o ; 6 *.0 I s i 1 2 = = = & 2 : > @.K 8.< ; * 2.x O.9 m a O.i 6 < 3.:.) v 8 J 1 1 9.H ' 1 ; 2 = = * 2 < q ) 7 1 * 2 2 3     ",
"    $ : , %.=.m a Z : * = = = * 2 > k 6 , < : 1 J 0.P c L =.` < L ' : Q < ! p < ; e J Y u | 2.>.2 * = * 2 : / ] q.1 2 ; ; = -   ",
"    = ; 6 i U V U Z ; * = = = & : > , , < 1 @.;.0.q ( >.q =.L 8 h @.; < Q ) z J 2.5.E u ' 2.Z 1 2 * = = & ; Z U f > ; : ; * X   ",
"  . * J 6 i p P x 6 ; * = = * 2 : > , > : > 1 1 ( < K u 0 s ~ ) ! h 7 9 g _ #.1 @.8 7 ..X.8 < W 2 * = = & ; Z f ! Z > ' 1 & o   ",
"  - * 1 6 q 8 P 9 y W * = * 2 W : > > : ; 1 8.y 1 < X.y E L V w.~ N f b E [ u Q a h e...Q < 1 W 2 & * * 2 : y 9 P w / %.1 2 o   ",
"  O * ; } 6 i P H y ; & * & 2 ; : : > < 1 1 r.O./ , } } 7 S w.w.w.w.m h e 7 q x L g A r , y > ; W 2 & 2 2 W , Y ! h =.A < C o   ",
"    = ; , } 8 ! Y K J & = * 2 2 2 W > > t ' z z #.< t k q N w.w.w.t.F b d g @.@.g H < : > > > > ; 2 & * 2 ; y 0 _ s ) i , ; X   ",
"    = ; > < z s Y 6 : * = = * 2 2 W : , ..' u q | > e 1 Y P ~ w.w.w.w.N @.' 6 1 < 1 2 2 2 : > > : 2 & = & ; y 9 F N n z r ; X   ",
"    = 2 ; , %._ T 6 W * = = & ; ; < | 6 ..6 y y 1 y.I T L b ,.N F V P s ` l < 1 W : : 1 : > , > : 2 * = * : Z f F G I p r & X   ",
"    3 * ; k 0 ~ f ' W * * 2 2 2 >.2.> 6 X.< #.; 8._ F g v L ) x ! s m Y g 9 0 x 7 y < < , , > : 2 & & # 2.: ' U u.w._ 8 , * X   ",
"    o = ; , U N L Q : & * * * >.J W , A w #.>.J 8 9 P %.) / a 7 8 x i.V O.<.0 C & C 1 , , < 1 ; 2 2 1 -.2 : Z a w.G b 8 1 3 O   ",
"    + 3 ; Z c s b A > 2 = = &.>.& : } e.X.; ; , Q a =.g O.h a <./ ! S ~ v v g >.* 2 ; : , > 1 ; ; 2 & 2 2 1 7 ,.w.~ a Q ; $     ",
"    + 3 ; / p g B 8 , ; * 2 -.= & > } ' 1 2 : 1 Y =.h O.z h q w Z p.g ) x L ,.a.1 ; ; 2 2 : 8.1.1 ; ; ; 1 6 9 u.w.~ 9 < & o     ",
"      o ; e 7 8 n g Z ; 2 & = = ; < 1 < : 2 ; 1  .2.s.1 #.0.:., %.( ( 8.E 6.L d.[ 1 ; & & ; ; 2 2 J 1 1 > Z a M G ! e ; 3 f.    ",
"      o ; 6 ' u f ! l , ; * = = & 2 ; , : 2 2 1 +.; 1 * y 0 < Y z g [ @.[ 1 q ' ; & & * & ; & * & * & ; < %.s w.,.8 1 * 5       ",
"      o ; , r $.z s z } W * = = = * W 6 J * & 1 & 2 2.; , e , O.p g A C [ < 1 y.< ; & = * 1 < ; 2 & 2 1 6 Y u._ 0.1 & = o       ",
"      X ; | < 6 w L g w 1 2 = = = & : < ; * 2 * * & 2.< < 0 1 E / x u > ; < : 2 ; ; 2 * = * * * ; 1 ; 1 %.! D Y 1 & * = X       ",
"      - * : > , y O.d 9 , ; * = * 2 > > ; * g.= = 2 y } , ;.1 > , Z u H h., ( 1 W ; & * & 2 & * 2 ; > 6 9 N O.K ; 2 * 3 .       ",
"        = 2 W 1 < / P v A t ; * * 2 ; < ; * * = * J | r , 2.< > , < Z Z U O.q < < t y : : W 2 2 2 ; > %.P P / < : 2 = o         ",
"        o * 2 ; 1 2.g B x w 1 2 2 2 2 ; 2 * * = * 2.> :.> , e > > > < , ' 0 0 < ; : > > : W 2 2 W : Z L N x Z k : & = .         ",
"        . 5 = * J > A P s g Z : W 2 2 2 * * = * C 1.> 6.> > 6 > 1 : : > : 1 Z w : & 2 ; W 2 2 ; 1 6 0 N ! z ' 1 2 * $           ",
"          @ o * ; : t h m B H 6 > ; 2 & * = = * 1 X ; 9.1 1 < > ; ; ; ; J 2 ; y 1 & * * & 2 ; > ' 8 S N v 7 } W & = o           ",
"            . o * ; k ^ s m I H 6 < ; 2 * = = * 1 2.2 : 1 ; : : 2 2 2 2 2 & * * & & = * & ; 1 6 8 P G N 9 6 : 2 * $ o.          ",
"                3 & : e g ! S B H X.< ; 2 * = = & ; * & 2 2 2 2 2 & * * * = = = = = = & ; 1 ' i P M m g ' : ; 2 $ .             ",
"                o = ; , u O.f ,.V g w | W ; 2 * & 2 = = * * * & & * = = = = = = = & 2 : < Z H s j.! 0 ' : ; & 3 o.              ",
"                  o * 1 X.A 7 %.f S f Q #., ; ; ; 1 * = = = = * * * = = = * * 2 2 W : ' %.f s ) O.8 #.: ; 2 * 4.                ",
"                    o 2 | 6 6 l 7 z s s c A #., 1 < ; & & * * & 2 2 & 2 2 W ; : < y ` 9 v m ! z ' : ; ; 2 * j @                 ",
"                    @ 3 ; < < t X.6 Q U S P h w Z | > 1 y ; ; ; : W : : : ' #.Z %.H ! V n v 0 ' t : W 2 2 3 o.                  ",
"                      o * ; ; ; > } 6 A g d S P f 8 q / z Z K , , y 6 Z Z z =.U ! V s ! x 0 e.6 , > : 2 3 o                     ",
"                        o = * * & 1 t 6 l %.f ,.I k.I v v p 9 Y 0 9 h a a P S N I b ] x l.%.A ..r > 2 j O                       ",
"                          O - $ = * C , y 6 e q O.h U _ m m N _ m N N B I P L 9 8 %.%./ / #.< : ; % o .                         ",
"                              o.# z.* C 1 < , , , Z w A O.g ! P V n v g i Q y < 1 1 ; ; & 3 3 5 4 @                             ",
"                                  - 4 $ * ; 1 1 : 1 : < < #.e 7.p x p 7 e., 1 ; 2 * = = x.                                      ",
"                                        X 3 * ; ; 2 2 ; ; ; ; ; 1 2.#.w w 6 < 1 2 * = $ .                                       ",
"                                            X 3 * = = * * * * * 2 2 & 2 ; ; ; 2 & 3 5 +                                         ",
"                                              + - o o o o 3 = = = = = 3 $ o o X # o.                                            ",
"                                                            - - - - - .                                                         ",
"                                                                                                                                "
};
