/* XPM */
static char *result[] = {
/* columns rows colors chars-per-pixel */
"64 64 138 2 ",
"   c #002466",
".  c #378357",
"X  c #50BB6E",
"o  c #8FE383",
"O  c #2E7B50",
"+  c #9AF099",
"@  c #93FD8A",
"#  c #8AFD8B",
"$  c #88FD82",
"%  c #99FB95",
"&  c #5BD06F",
"*  c #A3F09B",
"=  c #74FD7A",
"-  c #69FD79",
";  c #57F475",
":  c #56FD77",
">  c #66F476",
",  c #26F468",
"<  c #17F368",
"1  c #1BBC59",
"2  c #1BB356",
"3  c #27D35F",
"4  c #26E368",
"5  c #16E361",
"6  c #0BE96C",
"7  c #38EC69",
"8  c #38F377",
"9  c #0FA24F",
"0  c #0A8B46",
"q  c #0F6236",
"w  c #0D5329",
"e  c #0F7B40",
"r  c #0A9C4F",
"t  c #47EB70",
"y  c #78F579",
"u  c #79FD83",
"i  c #46F470",
"p  c #16D358",
"a  c #0BC35C",
"s  c #0B934D",
"d  c #0E733C",
"f  c #1B4A2A",
"g  c #0F120F",
"h  c #08230E",
"j  c #104B2E",
"k  c #10432C",
"l  c #0D3B22",
"z  c #115436",
"x  c #0D6A36",
"c  c #239A46",
"v  c #47F47E",
"b  c #25F375",
"n  c #0AF365",
"m  c #0D331F",
"M  c #0D1A0E",
"N  c #0D2B1C",
"B  c #17CB60",
"V  c #35E367",
"C  c #A9F0A5",
"Z  c #16C35E",
"A  c #0EBB54",
"S  c #149242",
"D  c #036433",
"F  c #1C5332",
"G  c #036B32",
"H  c #1BAB51",
"J  c #0A4320",
"K  c #1B5B32",
"L  c #238740",
"P  c #45E370",
"I  c #48FD7B",
"U  c #48FD72",
"Y  c #115C38",
"T  c #25EB69",
"R  c #26DB5E",
"E  c #0A8344",
"W  c #168349",
"Q  c #34DA60",
"!  c #35F469",
"~  c #10241C",
"^  c #0C5B29",
"/  c #03A44B",
"(  c #0BDC64",
")  c #16FC68",
"_  c #0AD365",
"`  c #16EB62",
"'  c #0BCB5D",
"]  c #A6FB93",
"[  c #36DB6F",
"{  c #1BA252",
"}  c #1D6C3F",
"|  c #B9FD96",
" . c #38FD76",
".. c #25AB55",
"X. c #037B39",
"o. c #17DB67",
"O. c #56E36D",
"+. c #C3FD9A",
"@. c #A9F8A5",
"#. c #36FB6A",
"$. c #76F487",
"%. c #37C362",
"&. c #57EC82",
"*. c #89EE82",
"=. c #57EB71",
"-. c #43DB6F",
";. c #97F187",
":. c #25C361",
">. c #4DDC6E",
",. c #4FD36D",
"<. c #43D46E",
"1. c #67EC7D",
"2. c #0BB350",
"3. c #037336",
"4. c #26BB58",
"5. c #66EB70",
"6. c #25B356",
"7. c #35D35F",
"8. c #17D366",
"9. c #27CB64",
"0. c #60DB6F",
"q. c #249348",
"w. c #35A45B",
"e. c #46CB6B",
"r. c #48C466",
"t. c #14833A",
"y. c #15DB59",
"u. c #0BE260",
"i. c #16C350",
"p. c #149B42",
"a. c #3FBC60",
"s. c #67E46E",
"d. c #36AC5F",
"f. c #35D36E",
"g. c #33BB5E",
"h. c #75EA80",
"j. c #44AA5E",
"k. c white",
/* pixels */
"                                                                                                                                ",
"                                                        . X o o o X X O                                                         ",
"                                              . X + @ # # $ $ $ $ $ # % % o & X                                                 ",
"                                        . o * # = - ; ; ; ; ; ; ; : - = $ @ @ @ o X                                             ",
"                                    . o % = > ; , < 1 1 2 3 3 4 4 5 6 7 ; = @ @ @ @ X o % o .                                   ",
"                                  . + $ = : 8 < 6 1 9 0 q w w e e 0 0 r 3 t y $ @ @ @ @ @ u @ o                                 ",
"                              . o % = : i < p a 2 r s 0 d f g h j k l z x c 4 > $ @ @ @ @ = - $ o                               ",
"                            . + $ = : v b n a r e d w j k m f l l l M N h j d B V ; $ @ $ = : > # C .                           ",
"                        . o @ = : 8 b 4 Z A S D F w G S H A 1 a a 1 1 2 0 x J K L B P u u - I i - $ % o                         ",
"                      . * u - U < A r e K Y K e H Z T 8 i ; ; : ; : ; i 7 T R A E x W Q ; - 8 b ! ; u @ o                       ",
"                    . * $ - U 4 H d m ~ ^ / Z T 8 : = = u $ $ $ $ $ $ $ u > ; v 7 ( S x Z i , ) , i - = # .                     ",
"                    o $ = i 3 r D N l S B 8 : = u $ # @ @ @ @ @ @ @ @ @ @ # $ $ = : t _ E S a ( ` , ; - = *                     ",
"                  . % = : ! ' s j x 2 6 ; = $ @ @ @ ] ] @ @ @ @ @ @ @ @ @ @ @ @ % $ = ; [ { K S 1 R i : > $ X                   ",
"                o % = - I b 2 x } 1 i - u @ @ @ @ @ @ @ @ @ # # # @ @ @ @ @ @ | ] @ % $ - 8 p e q c (  .i - +                   ",
"              . % = - - i ..w X.Q ; = # @ ] ] @ @ @ @ @ @ # - u = = $ $ # @ @ | ] $ | ] $ - i ( e z s V ! ; $ o                 ",
"            . + $ - > V / l d o.: u @ @ @ @ $ @ $ $ - > $ u O.; = = = = = $ @ | ] ] +.+.% $ y i ( d q 3 , i - # o .             ",
"            * @ = ; 1 X.m x o.: u $ @ @ @ y = = = = - ; - = = i = - - - - = # ] +.+.+.+.] @ @ $ i ( d e ( 8 - $ @ @.            ",
"          . % = ; Z d m l 2 ; = # # = > y = = - ; i ; > > - i > = = ; : ; = # @ | +.+.+.] @ @ @ = i o.e s 4 : = $ @ o           ",
"        . * = ; 6 / F ~ H i y @ @ @ $ y = = - : U i 3 V U I #.#.= = : : : - # @ @ ] | ] @ $ @ @ $ - 8 H x 3 i - $ @ C           ",
"        o u i Z e Y N x 4 ; $.$.@ @ @ $ $ $ $ u y - i %.( 8  .; = = > t : - y @ @ @ @ # $ u @ @ @ $ - V 0 W P - $ @ %           ",
"      . * : o.r 0 d j 2 &.u y > y ] @ @ @ u > y *.# u > { 3 , 7 ; = > T - - > # @ @ y = y = u $ @ @ $ ; o.x 2 ; = $ % .         ",
"      o = ! < a 2 z s i y @ | +.+.] @ $ $ # u =.-.u - - -.a 6 ' ` y y R ; = ; u @ @ ; u ; - - = ;.@ @ = 7 s e P y $ @ ] X       ",
"      * ; i , a d w :.: $ | | | | | % $ ; >.; - - - - i Z ( 1 r 9 ,.- <.; u t = $ y =.1.=.: - = # @ @ $ : a } Q - $ @ @ C       ",
"    X $ : i < 2.l 3.6 = ] | ] y y ] ] @ @ @ u : < 4.>.: t ' 4 H 1 5.= V y $ ; t ; O.1.; > i i - $ # # $ - T E ' ; # $ u ;.X     ",
"    X u : b 1 e m H i $ ] +.+.+.+.] @ @ @ ;.y ! a 2 6.:.=.7.Z i 6.> : V t Q H r :.4 > u > , ; = u $ @ @ u i A 0 t $ = = $ o     ",
"    + = : 6 H x K Z : $ ] | | ] ] @ @ $ u u = 7 9 9 A S e 8.1 p , I I 7.9.3.x 9 [ =.; u V ! : = - $ @ @ $ : 3 D P = - - = %     ",
"    % - 8 a 9 Y d 6 = @ @ % @ @ # $ u 0.t ; y > 9 e r 2 x l B q.a 8 i R ; E d Z - O.=.O.( U : ; > @ @ @ $ - T d B - i #.- @ X   ",
"    % - T ' r w S 7 = @ @ @ y > - ; i ; = $ # y w.z c 0 d W > V Z 8 y i P S 2 =.> Z 6 A T i P P = @ @ @ @ = 7 E c i ! 4 - $ o   ",
"    @ ; 6 4 S k H i u @ @ @ $ = - : : - : i e.r.9.t > t 1 d t.' a o.t ( B E :.> i A 2.y.b t Q > = @ @ @ @ u i 2.0 u.A 4 - u o   ",
"    # i b i.e j 1 : $ @ @ @ $ = - > - ; U Q Q 4 4 8 ( ' s q l e E r A c r 0 ( 4 3 r _ , ! I > = = $ @ @ @ $ ; a x r e 4 U - o   ",
"  . # : , i.s D a : $ @ ;.@ u = - - = - - ; i - ; < 6 8 2 c Y g k q E 0 >.7 8.b / 0 2.< i : - = = = $ @ @ $ : a q } x 4 i - o   ",
"  o $ : , p A x a : $ @ @ # = = = = = = $ - P #.; 8 , o.p.K g g g g w 2 V 2 H u.4.E a ; u = = = = = $ @ @ $ ; a J N Y / 4 y o   ",
"  o $ - ! , o.x 1 : $ @ @ @ = = = = = u > Q 9 ( i ! b i 9.m g g g g N } e L [ i 7.>.: $ = = = = = = u @ @ $ ; a l g j r T $ o   ",
"  X # - b b _ x 1 : $ @ @ @ u = = - : ; < ' A T I i U ; e x M g g g g N 2 7 6 8 - = - - - = = - = = $ @ @ $ ; a l g j s i $ o   ",
"    @ - i i R x 1 : $ @ @ ;.# u - - : ! , < p T ; 3 Z P S d L k k D x f d 2 o.i i 8 i I : - : - = = # @ @ u 8 r g g j 2 ; $ X   ",
"    % - : ; 4 x 2.i u @ # = $ y : > I ! ) , ` ; =.S k 0 e c e 2 E E 3.2 6...a p.E 9.i ; : : i ; = u @ y t =.8 H N M K 8.- % .   ",
"    % = > : ( ^ E t = @ $ # @ $ - - I 8 8 3 =.=.p.D q 1 L 8.0 u.9.' 0.d r B 2 s P $ # u = - - = = $ @ # $ = 7 S g M e b - +     ",
"    o $ u : o.z x T = @ ] @ > - = - I i v i - V _ x H 9 a.P r 4., H 6.f k d 0 0 B u # = = $ $ # $ u u u u - T x g l 2 ; u o     ",
"    X @ $ : 4.q k 3 > $ ] 1.> u = : #.i - = ; i 3 s s W 4.4.s p., [ e } w e E d 9 7 - u $ @ y > s.$ @ $.> i Z w M S b = @ &     ",
"      * $ ; r d z A i $ y y @ $ = ; i > $ u ; =.r r r x e d.6 T 6 t f.V g.3 9.6.e A i > $ $ @ ] +.+.| = : t H m d ( ; $ @ &     ",
"      X $ i H H 0 E < - u @ @ @ = : I - @ u - -./ 2 o.<.e.g.i i 7 q.8 [ ,.; =.:.P t = = $ $ @ +.+.+.+.@ = T d J 8.: u u % .     ",
"        % i B ( 1 d ( i $ @ @ @ = - : = @ u = <.P t > $ > V i ! H r A ( 4.3 - ; T ; > u @ @ = 1.*.] ] y : :.q / i = = $ *       ",
"        % ; 5 n ( S s 7 = @ % @ u = - $ @ $ = - $ u t # ; 3 i Q 6.r 1 5 i ; i = > ; i - $ @ # % ] ] @ - b S } R ; : = @ o       ",
"        o ; , ! , ' x o.; $ @ @ $ u u $ @ $ > $ ;.$ >.u : g.>.; ; Q H < ( ; : u # @ $ $ # @ @ % @ @ = ; a j s T i : u % .       ",
"        X > i i 8 V X.0 V - $ @ @ @ # $ @ $ h.@ @ $ i = - <.<.- = : T 4 A g.; - u $ $ # $ $ $ @ @ u : 4 d z / < ; = # *         ",
"        X = - : v i ' q H ! - # @ @ $ $ @ # $ @ @ @ - = : ; ( - - - I i i :.9 V : : - u $ u u $ u - b H N d 1 ! - u @ o         ",
"          # = = : : 4 S d ( i y @ @ $ @ @ ] ] | @ y y y : ; i - = - : : : ; P Z T ; - u # @ @ # = ; 2 l N e R ; = $ % .         ",
"          o $ $ - - i R D X.( ; $ @ @ @ ] | | +.@ 1.$ ; ; : ; : - = = = = - - > =.> = u @ @ # = : :.x M D 2 ; - = $ o           ",
"          . * @ $ = : ! 9 J d ( i y $ @ ] +.+.+.;.o # > O.= - : = = = = = = u u # $ = $ @ $ = ; o.d N D 2 t = = = + .           ",
"              o + = - i ' q j d ( i - $ @ ] +.+.@ @ @ $ 1.= = = = = $ $ $ # @ @ @ @ # # # = i Z e K 0 1 8 : - = # X             ",
"                . % u : V s d F d 1 8 - $ @ ] +.] ] @ # y # # $ $ $ @ @ @ @ @ @ @ @ @ u - 8 1 } F / R ; : : - u C               ",
"                  o @ - i 3 H s D F 9 o.; = $ ] $ % @ @ u @ @ @ @ @ @ @ @ @ @ @ @ u = ; 4 2 d d H < I ; : - = % .               ",
"                    + # - 4 R p B r d e 3 7 : = - u # @ $ @ @ @ @ @ @ @ @ @ $ u = : b a 0 f x 9 p !  .i : = + .                 ",
"                      o $ #.) b , ( ' E j 0 a T i : - = = $ $ $ $ $ u = = - ; t T Z / q F x E H p < , U = + .                   ",
"                        C - 8 i I V ` ( s q j X.A R T 7 7 ; : : : : ; i < 6 Z H e K z Y d E r 9 ' < #.> + .                     ",
"                        . + = = - - 8 b u./ s D K ^ d 0 S H 1 a a a 1 H 0 d w k K e r 9 { 2 1 Q i - # @..                       ",
"                          . * @ $ $ - 8 ! ` 6 ( 1 9 0 ^ w ~ J k k l m k F d r H 8.4 7 i ; - = @ % o .                           ",
"                            . X o % @.u > i ! , b 8 V R ' p.s E x Y q d 2 i.< i ; - = $ @ @ * .                                 ",
"                                  . X o @ - ; i i U : ; i i i 7 8.B c 9 / ' u.8 I - = $ @ % X                                   ",
"                                        . + $ = - : - = = - - > - : i v 7 V i U : - = @ * .                                     ",
"                                            X * # u u u @ @ $ $ $ $ = u = u u # # % * X .                                       ",
"                                                X o o o * C * % % @ @ @ % o X X . .                                             ",
"                                                                  j.X X .                                                       ",
"                                                                                                                                "
};
